<mxfile host="app.diagrams.net" modified="2022-11-10T04:11:40.876Z" agent="5.0 (Windows NT 10.0; Win64; x64) AppleWebKit/537.36 (KHTML, like Gecko) Chrome/107.0.0.0 Safari/537.36" etag="ApkHyZyHvJQhMh1WhV-H" version="20.5.3" type="github">
  <diagram id="YCrvdOa-2Ua_66Mg-CMw" name="페이지-1">
    <mxGraphModel dx="2249" dy="705" grid="1" gridSize="10" guides="1" tooltips="1" connect="1" arrows="1" fold="1" page="1" pageScale="1" pageWidth="827" pageHeight="1169" math="0" shadow="0">
      <root>
        <mxCell id="0" />
        <mxCell id="1" parent="0" />
        <mxCell id="PDv1FXCA-drPs_k4_aMJ-11" value="" style="shape=image;verticalLabelPosition=bottom;labelBackgroundColor=default;verticalAlign=top;aspect=fixed;imageAspect=0;image=data:image/png,iVBORw0KGgoAAAANSUhEUgAAASAAAACvCAYAAABdEgM5AABoY0lEQVR4Xu19B4AkV3Xt7Uqde3LaHJS1yhKLsoSQENEYAzbG4E8yxmBsEw3+BAOGj20M2Hww2JYwnySQCBYGIwmJLFDO0ipsnt3ZyT3Tubu6/znvVfX0zO5qe3Zrk7ZK6q3p7qpXVbfqnb7xXJFwCSUQSiCUQCiBUAKhBEIJhBIIJRBKIJRAKIFQAqEEQgmEEgglEEoglEAogVACoQRCCYQSCCUQSiCUQCiBUAKhBEIJhBIIJRBKIJRAKIFQAqEEQgmEEgglEEoglEAogVACoQRCCYQSCCUQSiCUQCiBUAKhBEIJhBIIJbAXCURCyYQS2JMEfnvLxyISaRgRaeAZaRjYJhKJNLhpRD00kYa3Fr5teJ828Ae/baj/JFLn69zLPoB1uIQS2F0CIQAdY0/Fr28FsEjDikTqtkjdkXolKuImDUOiwA670WiYEambABusG5YY9YQR4fbqRSAysAY4Cb9XwIRXHcDjKnhqRKr4G8OI28DfUjdy+LKCv/F9pIYt8De+k0hFDKskRrTWELPSEKN80cUf4PfhcgxJIASgZ/DNvuO2vzMbjVq80XCjmPNRA2ASMeoxYIWDtWOYtXStlj/fjLpDYphd1bqbKZXLTrlUsqu1iuXWa3YjUrcAUAZgxqLWA03HkAbeGwQfQBHQRGs80HYaUJGAXmoNwAFWYUOzYkasqmXbtVg0WnEcu2BFjBlpNKYaVXvMctJ3ua6VrdcjlUY9Uqy7kQIwsCRiViMRE2Bmli6+7IOVZ/BtOqYvLQSgZ8jtv+uXHzXcRj1ab9RjdbcWl0YlbUTcjFsrnB6x3CUNs4ZXdahczafLlWK04paculQSTjrSEbEbACbTxoS3BX/gRW1HPxu0otSigKZlWWhVURlqXbxHSylJ2FsBVN3FqwZAdKVer9VrkUIlF8kbDTtvm9GCY0cBTtFxYOMuo+GMNlxrwoomHnbrZrbmGtPQkoo4zaJhmOVLL/lwqC09A57dEICO0pv4yO0fx4yuxmtuOVlvVDJuo9bj1qtD1XpleaVeOaVYmV1arec7zVikN2K7aYBPAkAUExPaj+kCaKCgQFkxLWVBHSYpGOLCAIOmBIQygU2WK65VadSMsrhOoVE18o2KMWlF4pOOmRh2Is4Gy4xuMSxrOyzE8YYbmTWt6KxErML6iz6yECEP0zWFh12MBEIAWoy0DvO2D/zyY3ZDagCcclcjUuqy7FrPTGn0heLU17gRt6sKrafiVtPVRrWjWi8nYAXF4km4auBuiZhwuZgulBu8AF1c08Xj1hw1+Q/LAhA0LVhXcA016gAgaEtc11387fK8HMnnarD8rKopdt4Sa8Y2onnbMLNmw8xKxdjemRz4drVqjtfr1qREnOmI4eSffdFHQ5PtsNzQxR80BKDFy+yQ73HPbR9MiFHrAIgsNaOVU2tGaf3k7PhxM8WxfitVHQQAJSOmFYsYylEMcGHwCRMXQGM7cBVLFZMbk1yt6/AY4+8GAciG7pFW68Oy0EctszjXKs7VhHcbbia4mOALxxp/Y12r0nyjhmQBnDRAUWOqw85sVCK54kR9RybaNdyT6dsQtVO/qZath6quNeY27OxFl3wif1iuKzxo2xIIAahtUR36DX/z4/ck3Uily3TcUxt25ZLp0tiz85XJpUas0RNPRdOxZCRalSk1gbWfhWaVv8DlAgcxnM/ed9rMmr8NJ33ssGpA9Qb8zd458vwIRHqtfUem4YOj72MCQOkEAAWckVpaygUpVwrV2XrZmEyYHds6E/13NRr2z2uu+UjEsCcuvvhTQLlwORIlEALQEXhXfn3jO+Jwf6wUp7JuLLfrJU7aOsFJRVYYjvREzDKcx0VoMSW84CqRvNJ4OGENxNKpRai1QW0iIrUafbWeI7g+d7t18OrIWXxMUeBj+CfH64IGRyAFuNbrWntTa7wQNZOY3ak1OJhrUo9KoxatSDUyXivIVjfvPtTXveRHkUjsgYgZ23HBhZ8qHDlXHJ6JutehGI4cCfz0W++BuyPXa6WKZ1djsy+brU2uT3RGV4jldrn1krhuGROQ2o7K72MQHKk0vmbg30qaKfzb1yAQRcffiEKpiYw4lDehtWnmIECv03MOwwKzqlJmShFNLuYyRuCnUhmP6r2+zjkw0hE5XvfcubpV+K2RVcTrAiYBgG2x7bjYZrxuwhTLjs5u608vuduop79Vq8fuu/jS/zt5GK40POReJBAC0BHyaNzytXfYjVhxqRuf+sOiNfGihpOD1tPoiSVoRlU80MBkhD9Eazgwn7AuVz3wwOfaNPEASaXsmHMakBcO900cddkEnkj5sAKQNJAHCSDyl6aJ6IGNadI5DXTxgGj+9yIWcrWbKQKM9CttScuJviO3aru1WdlllJL3Z+yB62v15M2GnR6+/LJ/OlyhvyPkiTsyTiMEoCPgPtz05b+0GsnSumxk9B31xMz5nYPmSlcmbCdWFWo+6pdfRaq0M1YtXhJyw/OV7PMyPACat503yfe570HdgNe0MIeI4NgePkTgVJ8DIAIq3xOwKDOG+QHSRUucRsdkccJ8It7o/kE02vN1w0puuuKKzx5hhuhBFfQROfjcT88ReXrHxkk17MLxjVTxD52oXG4lrWXReFnKtYrU3JL2h+gKiJaJqk0wre20fN6ctK2T15tjhnZU68X/3t/3cP0O0fzDeTWvpeUUm6DUem6+duetVamZzmdqLipB28MkakRSEydGX5HRjXyhdVKoWTGrVirmZ76HrZ48Np6wI/cq9/DTc+Se7DPxzG6+5k0JNz75yrIz/TtGrLgsYuZRxYASKZhXyrnqJjG/EnqtzBVOMDo7itp84tKqHflg1SqspqZDc41agvfi34d94bkQhJi6452f5+Oaf2oeWCoNUCcuqoUyULLwAJkyapGZZcIfZEOOyG2M2JWkxMsnztRGX2nbxRfc8sM3ZQ775R/jJxAC0GF+AEyn0ls2J8+XaGEolqygSnMGMeWcdsTCOatApx731vhb137qV9N57E1IVT3hmWn+ROX2TVDyJ6+v+RwJt98/d0+bQ8nZnFa3h+tRxfmeOaoAiADmpR/wc0TC5mQGh7QVF8uCs7ual1o9K9FUPeU6xTUz5ZHn2nZ95WG+/cf84Y+EJ/CYvQk/ufYtqC+vrqhJodtyGlEnismlcnp0hKtSYRYeJhVDzH6oWf3tW86tQMJbic/V9v6L7719OTH9ydkgoPHFHJvDZX4p9PCuyz8f7xzVeXqhdV5r6zX5ANU0PSkDD2TVtbbISuiEd6FNMrKmzT0bX1sxI1WT0gD8R0tv/fF7DlMa+DH72M+78BCADuNzcMXrvtAwTGb8mm6tVq25LidIRKIxzpgafrVpWngOVeXv8X79m5NTb6dNGP/F7f2okacpqWts8RepzGJPU/KjZodFDr625p+PrwX5j6Wv6RE8/OtqvVZcu7oOH3SIJZ7WpEwygLiSYU0Bj2khLRMyRha1SnBEzpSrWEXC5bBJIHRCHzbR6wNbTmrENjKTbjlXrFbdhJh0nKJkAhMuliCjBSaQmkseACkth0l3mJQG66g8H8i8SJI/gb11c18fiFovur1o08ERE83IhSP7fimPz0x97Z9jy7n6DnfSGiktCTJR2hEXgpWWi2NXYXpVADpMZzAFMgZRgFNIOJ1Zw0iOXn7lJ44ER9jBEe9RMGoIQIf5Jpl214RZm36sVqofV680OuqRglWqzQCYXOnsSKEYs6z9zgyGMWGP+S3kDsPEayATWuC01hPOjyh7PiJsx3xE0vbUm1Gmue/8y6b1UmdCozfNd1tjAz0Ot1vsGuOq/fc8Pk2n5mnzhOZRf2iwwdnrM/M0mrnbxTA7OdW0KankopIzUeemasuY31SUTDoh2WxWSkVcAPFdokWjFN9l1jL31o3EzsN8+4/5w4cAFPAj8Ddv/j+Jv/viX7ed8p/KLM0aNfvGsjmxslCY6ovYZlcEE6rmTslUYVpS6bjUGgCZBsPyUUzoBJSGJH7r4SdBRXupWhfDQbIeEvJc0OxUK/iFRyKeZZkAMYBUa4TaAxOdGa05xMSOQN/SacRV0vSgdINrvgeloVSK0B7omoIG4QMQjrBHQOI5+EAFUiEFfIloAueG84EjJoKkQgcOYa75Hv9C4cPnvvaG7blfa1jdRTWqqpJHMiLPWTnnOR4yno1GTByzG9dILaiEGBrKUlCm0gDRom3WVFZ1dnIKRlZaklYG2dIdJavSM5Z0eu6MWF3fj0jndLu3/wNv/7t4uZhPmpYz8YkvfDjMH2pXcPvYLgSggATJYd71uk9EhneMnPa2V79v8+e+9old7Qx9+iV/Vn/ivq/tNOMrRqbKo+5kbqNUaybMr7gk0hVB8SmwACUYgjCyyQmISYuiMPDhkHpQCtUqJqMImAbFsKOY2LpmivUKLuuoMFn53nXhU8JkZm1YGfuQEwzvZLY0g3814NS4n1prpYqxpUTU9gBoThNqD4A0YI2M71IanKoYUWv8gxfXhKCkk1JAZBOUAE4MmfNloZaNqQi8RpufWzEFQATZOrK/SzhPJiFGrDLGQaY4UhfqjQJAMyeNKmrkcA0mGGdTiUEp5mwpzsQqttsxnXKWbIxL/w/F7tx0+gV/0hZtx7vf8EGnUKj056Zmjosn07fhSkIAaufhbmObEIDaEFK7m0xnc3GgRPr+ex98w5+8/N2f/tL1/wAHztMvOx77VcSJR8yega5l3e5EIjaakdFJ8OCUtkmhgkp3hJHtqClmHBMaWlCxPIHyglExQV5o2QmJdyShEQCQWHiKQs0KCL4qSGIE4aBiRp2YHAOQUHtgzRQcsFyrQk4UdPLU6D7xXUV+ag1NPlWTxcwcgJV3CV51lm8Uqc+1q3e+l4bv/ZfJgJafGIhxqRUpckRv0OKMFhFdwabJYlqWmID5R1FzmDBDuyUKYHWg7dBxjOp2aHx4D8Cyce61yiiuK6+AyQTK2fA2G5EUQCoiYJcF8GCfepcknMHKYOcJxYHE6geKs/bDlaqV3de98b+fmZ5tbNz01AtXrVqzs1yuMnToJWC1O0K43d4kEAJQgM9GueJWKpWa84tHfvCnS1auuuF1L3vXU9d+5x+f1snpRLsSqVTiFIl2nNghHYnoKoBKqlOGRx6S8ZmNmHxFaETTAJ1pqaAso4GEPdOCqQIfEWdgoYRSg3JFwOOMv/P4G9ujaFVTM0NTKEMzoAlFEACoqJgP7roqocLil4+phGuCAKJwBBWw0mtwgSqhUvzwpa/5UDPak0+IQKYTt2GKAYK4nw1Q4Rrk0c21vz9ByEJ+pW911WgvEhgBlOrc8LY8zagV/6aG5EgslpBEPCXgl4Y550o6CYBEqL1WdpE9DvBFYaoZicJb1im20QlNKSY9HWtkaf+65JLuE+pOrWPdtMx2zeYqbZEgvf533mEWiuUTf3nPry5bvvqE/wtC2VbOkwCfnmNzqBCAArzv1XojluzswAO6bNd1P7r+n1561e/+2Wtf+o6tX/neP+1VZbftdFc02fPiesMaiGDi8L/lvd3S0bFSZos75LGNd8D3M4bpPCHxaB45LCVoOFMyMb1TJrIjYka7lR+oUi4rzafBanncVQcTX2iywUdLsFEaCTUaOpMVIOA9X4RHBtQoB+5CRKI/CaigNBegF9cuo0gEJbU/tTE9XuuaSKLeq/HoFMbf3v78gvs1WLnOY9GHTJOMEXQfCAGQBLAIA1pc029sVqVYqMAXpT+LV+MSQ6ImWnNgDACtmwPApKW7a0ji8U6plWIAoxS+Q+WF2S9nnLJe0vEl0uEshz6VyiAev7ajq+eV5fLY5ifvujt/3Lnn7PUH4g0ve1+kkJ856ZHHHvmrvs5liWKp3MUi4HAJTgIhAAUnS/hXpFIoVszenuXx8YmxE37x23s/eMn6cz/y+pe/d/s1139yt1/OXY8+mXTs+IVAldPBb9zVgFlBOomIxKXDTkvGXiFDZ54qE+5G2bztPnlqyz0yMvY4/D7I6HUcsZM9ki8W4AEhLxAgA4StFoDHpG3iRY4YfvZro1Q8yQceggReSiNS9Bd88W9W1XtrRWdGpNBaiiY40wvBxPt/DkG875nD7X8Pu0kfHqCmCkd5jcoBzgYaDYHipqN8npbGNX1a6hxwiGgcphYoWuHFUoAUYVidQAph10sNAEu37NphyPDGrMTgjB/sXSrHrTpbVi0/S3rMVYrxkU57ERCvAdwbEWsokmhc0d1lPlnK7/za/bf9ZvKMy5+92715/cvfbxYK5c4ntu56y9apqbM6Mx1Z6J05AGqoAQU4Z0IAClCYsI0wUYzJ8YmsuWbd2T0bH7r3Bbff+5B1wTmnffItr/6bJ77wtb9rVoQ+8ou7aRB1R2Oxl2Jerca8VCoIaUfBb4zJzpTdpJTA2dxt90jPqpNlzfKLZePmB2XjlkdkYmK7FGa2SrRnGPMU9WPECWICTCbgoLoqOmLp0I1gTOVb4cRm0wv8rak74NouoeyDFK7UTjwqC83FowPyqiatuRAy5sJqvh9H8/NoaKLx1brQ76QXRrKU7qW3U4AGaIhBW/Gjcox0KYc4xyKEgW5tBmYn/lPnTo2IBGtQ2xDkEyfeJfWZ1ZI2Vkjf0qWyeuUpsmbV6ZKRIeyflCrkGDVIOasdXR6PkAPUPc7uzLyhO1fM56bz37/1upunnvP7VzbvzRte+X4rX6gP3f/E1r+dKmbPX3biqclNjzyaqzXM/A0//NRetdkgH6VjZawQgAK803U4XfIF2AB2DHPe7jrl2ZfJ9s0bn/v9W37a94LLLviXv3z9h36yesWS6pqVS8xyyU1Go/bvRdLJy3AKHf5pcHraBCN2iYDTxrb7ASjkc07gF71betaeKGetLUq2MCpTpSfkV498RXLVrZID6U0V0S1aCCZAR1kKMMEKOdaVccbTJ6RD2BGvglxbW0QCT92gTtLUcuh44X4ev453gq1Mis2/PX+SRpY5gFJshk19QX8+RyZGPQlgpQwgz57DNRsKfPmeGc4AGSuqHO406eBig6kJrmtExVKZDulMrZFnnfWH0pk4XnoS/ZAWtRykLTCYj3KOBJzz5JT2j6twTQFf3YJT/tTUQOZdQ5VKMjdb+uq3Pved6vadY4Xh0XHZNpK98q6Hn3i9JBLnrF17Zh/MMLd/yXIzXyhTlQqXACUQAlCAwqSZAZ3BNewE4sxRKcI3s+aUUwfv+8Wu9I23/GjpZRde8hUnav2/zs5MfvnKZStiXZ0vw+F7fbuGjlSV6wJNiooHmf5s1Ich3iUFcto4MThiM5hedemNDUpXYq2suuhCRcs6Ax/R2MQOGRndJDtHNsr45DaZKTJahiiZXQIoocIeIesIieDhyFYeGUxIC+dZx/i+9kOtY47UiwDFcJgPQhpEdqNz9XQC32yiRqM0LGXu+cDjm3la+1LshzTBirO0ylQY3jAYMiNoOFIp2XC8w2RqdCCU3i/9XctlaPkaGexfLX29S6Dl9OCsU9D8UlgnAVzQHJk6AJkxisZ8IyprCsxbFwVC2LbWiBTdxgndq5e+Y5VY1clc+dvu2NTSTbsmf+/W397zPEQCTjp55YoUmjVGjWi8mCtAfjY9/+ESpARCAApQmoYJlUP5P2gR0bFhIKSeNU69+NL0xK7Nq396x+1/tmNi53MTmdT3119+XtlIJk4iBvgKhBVbMFtgauQRpk5mMpKI8dedfldMMACUiUlmIjRdwUSkydSD3/2enrKc2JOT2skzgJFZfDItj22+Q0qVcZkt7JCp3E6ZzY0ilD+NyJoOXc+idylj7gQEsg8qtkVqUUwcVDaPOqoGnhbyeN0R1VMpOKd91UaZOrwibYopZzQjYB6PswYJDXJUj9JxJCoCqAk8ppmSdKpf+vqWS0/nKknGB2Tt0jMBuJ14pQE0GeXTaYiDF8L0AB1Q/fjWnwdkcze0jrILgwjkCZjHruFYFsL1/Dzu0MSVfrO3853DM9OrvnPbreds2LRz5dBxa/s6e4fSM7N5RN3QvRoXhF39Cw7wiQmHCgEowGfghhs/3LjyivfqycogDZ2lmIw7xkalI92VPv5Zz7Y3Pv5ox4c/8y9n37tpS/5973tP6uzThtT88Esi1VxR/8CccmrI4OX7nPqsjixndAZVjlyaKNUCfCExhLmUacWoMl/QktQkpe+kJOtXrcWaaStljEiHNV+gpgDZWQ1h/c07NiJ6VoQzuCT5wqzk83m8cup9FQl9Cig8qlMdmNdajT5PL5TlyVADj+/j8bpbKDMyiokck2QyJckEspKTSfXeQY7TYPcSOI9TSHgEyMISRakEQIa0I9TMeD3IccI1GTCt9Of6kSWYEBJqlRJkgM98DmmAGxo0ajOU7AIs5iAfNrKlTQiZaQHcT+2O9RNbJqKf+dznln//xh+/pbNnaeOM8y+ws7lKdAzlG2kEzZQTXrurmj73AB+ZY36oEIACfgSUydGo6wcWr0QmDfOpIdMF/JpakdjqE9c5DThrbr/vse5Lr3yp9aKrr5DX/6/XyBXPOVn5R/Io4kD5EiadKTMzk8h5wUSC9mAjXm0gR0drI8yXgXkWZ0sdPRF95YQO7LryH6EMgxMX3lr0hFd6GVIVMZ21w5nhbdcsSu/KZ+EdGhf6IKK+pf5G129dphHyZyaQUjQIOCoczyxk/V7XYOn5T3pYxrxY+aUBypBus0u95xXpz3WETB+P4ELAIcCQFUCnS/NvbmvgOkhJQiOU18PxlE8cx2rWsDu0VRGj5+cEF1S8I21TyShfREmGg/ovMwHwFRnelVP1dVGI7e67RuTr3/qW3HTbT6Snf8A689yLrUK5LlOzuAEgMct0QzOjPwxOb1wn/tTyCJdgJRACULDyJNUDntMKfqCRFRRxDLRJVjk1TiKBX/04TB/XyOWK0TpYDrv7M/LT394nP7z1Njnn7NPlrW/9U7n6yrOkwHkO0yiRGVD+nnIFWgnMgSjAxMFLeZro4yAVR411UGp+q5eqdFCaCJNp+PIAyluzzItfc64adEgrBzccu95mGuKoHxB2XOmxVukQuPqeM5+RKn04/bkGF39/lldwVA0wmh6DYEpY0X8T2nw9iY8fC0oZVtetdphn48Ao9bnmY9CemkurEeQnMwFweEENlGdUoA25QEPDJvDaiJIhIxo7F2g/4YQyfSm55WePyjXXfkU2PPaUdPcO4B6slhwSObPFnMRSaWSWd6ucJ4JXsZhHlA7mHoAWBbX4WVF6V7gEKIEQgAIUpprjzLRjaq5XcpAlcEBTYZnlZDYHvw28GelesTuiiOjkJdGTErsQkzsefkx++YY3y8olS+R5z71cXvo7L5T15xwH0IE+4KSR95NW07kGc0nVU1GLgXZg2gxLkwkQegXYbVTkiTk3vkrTAkCc1PPy6DAra0gIVuYbv6MmQ3Cas6QUzPg+II10rVoA/54fdtfv/YNrjUYtyiGtX82/GWhT/iZGu/S2/p4oXUPIHZ8Tf7zDkseHi4rkcSeVGMT9wA4A0Iki/8lXBr38SgQCRO5/aIfcfMvP5Be3/0aGd+6CJmlLqq8PbicELKEdJaFZFgFC+ZKLiGIW8oa2CaCPp6AFIfIGSUMFouOKOdnhEqQEQgAKUpocSzXeohOaZhieV0yWUhXlE/DbxBOM2AB4KgiPF5BQx/olo4ByL1sGV61UTqNSviTXff9Wuf6Gn0gcE+qNr3+tPOvsM/FaJZ1IaamDfqKMSYU5BPCBLQHKCUEhpvJ5q+nLSTw38XkM+o2ohejZqyEEEXtVkBpHnZmatf6ippiuHePLcLykxiYQtSCI+swDmKb/R5+DflEZZORtLvdIdTz1UQZDA66l2gJOBD+lxdmAbLyaJweepCY1R/OENWUtQ+3MeVJZ1RhrckbknvuH5eENT8q3bvie5FGOUsYdsRNR6VyyAuCCTG84+Ms4cD6HUhUXDn2ATiKNewPUy6PVKkpw4bdL4H4ovmnsQFuslVsg6Afn2BwvBKCg77uOUSutHfPETMHhSn8GzQvSg9ZqcJoiPyWdTsOH0yFT+W349UUNFzCEOS/UdhJGSllXNFz+7Zrr5dOf+ZJkUnG5+PxnyYtecKU867yzZHAIZh1ruuCcRdmlmvA1FKCqSngeUeX7MLLlKEcqWqlrTyq3xAy3QcPBSJCLMJDhNQXUM1+jlO7Rju39OdfUqHz1iMdpjdrNU5uIxAo7DJWV7RloyjOPC+NXqjYMSA1TiV+rTGgPblS5VVPZ8LqgeqoTz91SgEqDEOCDsagXIX1H7rzrIbntp7+W+x/eIDnQiJhw9kTjGZSlwA8EeZAZoALkrSGXyLAhOTQwRJI1HOBY4wRKJbIOIIUxlgSglWV8dAz+OJiUSqh1xhRCDSjg+RICUMACVfMUcwt+X4AQQAGOTZpjvk4QwU+8gXqtUnkWL4SEWd1tILyszAxmQgM4mIRHq4qf8Ze5G6lC+OjWO++X//rJzxSl6Jo1q2TduuPlRc+/VJYv75fjVq+UzgzNKT13OVuoTWh/C7l4PEygtsE/ab1gzRIOg7YXU4vnLRiIWhBVFLUAjhD+115gfZFK3ZhngXlveAIeYFShAanwPjtTUCNUCZLa1KK3SCVHesDjH555Sd4RtK7TcgyCzRSCgk9u2ibbto3KLbf9VjZv3iWbNm1SRbmo85IuvBhtKwLVq9B0aKEq5zj9Q8yqQrlLHSqTix8EmrNunYVm+AZ/K4wGWHN7B4WvJn14bsQFbxEM3BCAFjwkB/w2BKADFuH8AaB1qKnPjCClAfCpVSigfzzJUMjnmM5ftaDK29xLc0FVxU41h48+JnEi5YiD0HCxWJTRmbL89p4Nct03vi3JjrgMDQ2hDGGlnHziWjn9tHVy6qkny7KlqAj3fCyg9VGcPL4i43tz7BiJ4GmSwRUNK4OnT14e+rhVXRg1lNbFwyM/GbFc0mUfulsrXNAElxbAgJLRXHxHM/OLCErcTru7PVFQZBif74l7lNvoeE1Gdk3Ik09ulCeefEo2b2Wy5ZhMTk4ip6kCR/JSuPsjku5DwSm1I3bA4P4oAaG7vNUXpn8c9MmZTQpbfXReFk08FAU3z1f9aJBRsg4uAOAVTjvUgOY/DQf8LgSgAxbh3AC//5IPRCampvTz3OpXCeAYPjiwtiuVSuHXvozkwqKccNY5cCQXQMVRkvsfeVzueehh+c9vXI9M4gLYEQty/vpnQTNKy5Klg6iVWiHHQXNasWK59MMJm0oZcMCqmQdNC9oBHUtYCI1Iyta91glanonE73xTyUeyCKJE/gQmmPhhIv/yK0ADjsHUJd3HXkfB/Dwc+n/gp5ex0QnZOjwsW7dsl23DO2R017jkcH33PfAgeI/i8AfB0cw2zYqWEblF0aR0p3plJluQKEwo5hURACknJjoSSKOg7ODfgSzwRIcaUCCSnDdICEABynQB6gQCQazvIujQZ0LQ4YuTja9o3JEcNBCQZMGxDYc27CwUt0oUfoskfC0unN+bhyektmVEanc/qMLUVSCCKhCFCUI/SkdHh/R0d8qK5atk1eoVsnTJcunq7pA4/CAmnLVDg0vVmmRgXKOTBHJrECqHA5xrndVM3xZ9XBVF+s41SyJIijY2NqHW4EkCN/OUjIyMwnTaItu375BJgHU2O6siWvTrmCQag8lpkdkRHmWafFasC34x5ArhvQt/lNKiaFSC6YzbZTqR2QSOEcrFp2wlEKlo4G41I/t9sxUjiU4ND5cgJRACUJDS9FUE3/USwNj+LzknVaGALGYACF/qlx4qSgrggeJXqCxwoBIAFKzArMOENU1oBaQ4hc+IJPcOyX+8SnOafRybGc+TBSRKPj4s9z++VZUqlEG+Uy4xSofj4D2Bx4IzmyF8RtMIPCQFi8Zs1GsyYY8ghOwk5QSn5qTX/ucsfaCWguJbDSyqtgzvMzFZ1rtSOenV/lQclXOa2cuE84h09aPIBNO+AmAjoLoGxsb3FZpKUJ9wVjgWSct05T7B2teECN40yQJZKNbQBxSIKFsHCejuBH5eR+eAvsthYUDoAK6Gmo6iWyX/jTfJOMGURoT4c25kF3JgWKgKfiBoLUxC1BzQ5HYGSyDKNZRfR9FwINuYfhdoLRUyHTLD2slobcE7R5azxaPQgMhigWNov46uEdPjAswwqQk8rJNqR8vw68R4jAozqQkunnZSKc05v+mQJsTpNcwtrEjZSgoRRtMcXB+NRJ4D5VGg1uPlDvEcufh1ZnzP8+R2QSye+RVqQEEIs2WMEIACFqjn9Qz0QaXGw19zTqZWQFDAE4+joBLfwQSrQGvhwslns6Ie2kYRtR0KPEh1oUoZ2IoPSEkwo7ZBkFGf65c/iQk2Ku2FOTwofOV11aFBMd+mAUYwJHSrMLjlkZ/5gLJwzXPn+fgv3zTS42vXr1Ycffc4cxj03wSgWNRSphc7dVAr4z4ci/4dB76wOvJ0uLVOc5gDaZ/cPojbq4OJPodkECOGY/gSCAEo4GdhXgZyAGPT7PK7RVDL8bUQXxuqIMxdBQC58LH4JggjUaq7BUApjlwYlVJDjUfxO3vRKmpDMI2UOUdnM53OXlsctGvV6QEwvUoAsBrqrSyAFIvWYe2oHBrVtx7AxLzLOgGMUXnFBe2nAOguGnFE2fy2PjVoP5pLmoYcNTJNn6EASGk+7OulkgZ0CyDMe0b8WERK4KRxpq4VppeLmjdSUMbpH/NyhigfH0BpWs7OziqHfSCLzhUI9IclkPM6ygcJASjwGxiso5K/5P6k8k/V1xYUxQVqoFQdvEd8Y1BF4QuL6rEFdFF1WL5ZqNIDqMbAnGJaDic6o1z4WLMOeiaS6pzB5EiYQiQXYVQJf6s0R6VywOlN0MB2ilHR85AopcZLPWjljFY6hJ7EOu/Hm8q6RkyDjXJP8fggv9A6UF0cRWiNL0g2j08tlZntLcjXKeP65nQn/bnvN6OWFOQS4k+Q0tRjhQAUqEw9J9DCGRHoMeYGo9vW3K06gBChNZJmBt9eKgj8dB29h/awLlzzGPpzaiDUTvz3cxX2qks0NRtut4j1QrE004ea2ddUq7RmpjUnXu+ehDkvG/IgSZsF8aECFLRwQwAKWqKe+yLoYfc2ngKaFhpUtZ2nZcwZDK0TdPdcOtWJwgOPhWsVk1Lfk1Rew5F+T81KczhzdLXfItf6mjyVqfl3y5V6QETQ0+MvOHev/fTBl7UGnhCAgpd0CEABy1QVFgTtCHrac2Rr4/lT2f+d9kq/8GXrxN2LtuDjwMJ1K5opcG1FNzqpvbF9rW8R6zl94ukBsnn5ZFtsxSf196HQfgJ+SMLhmhIIASjQh0FNzkOop+vJpwm/tPPXYB2+Wmvn8L4Xr0TE33/BmgDD8RiZ0i//vV6r48IHtKdGhXPn4Z/PgvUewWPP5zw3fjvXtO+r3o8t4B47hLd2P07waNwlBKCA75qak4fIB6Qmv1eR7ms7rOrmwroBH5TmLnH3CaRq01Shk95q4Rr1sfpzrySDa/+9cjL77/ey/97GbZ7fHkFoToDal4WM6+b4Xthefe45v4P1++/2RGhPVLgcDAmEABSwVA+l9aWJTeEZmafpeMWV3oRVnETNZe5vrZ0w4sTI1961Cn8PHRz3Gg6qqe+x86jj7J9WwlnNF8PyGmj8ZW48X7ubwxjvO3VcOqWDSTTc12PA2GCIQ/uS0uK/378nZ/HHOYb20DP/UClBvhm0WAHrCX+gZ4nHxwev/VgT+OjYBteYJjdUr/mPZKs/yyOGf9pL9UGNGlPry/9cj0dY9V96ON9ynu/obpFPa6bkYoUdbr9XCYQaUJAPB59X/TrQmd3WWWma971oAM2Z2zrUflgS3i5+pKyZv4PPFYjtB/CoM/IcyiZsOgpLDUWTTlHZcu2f64Jq9qa2RPBiDhLzEUFNi2LWGLLC2bSQDJQu69/wt0/jWkUhbh38PypDnFE1DM88IbLnMrO6UmE2Jss/kHAJMjPmX7HWraazy/3T2w8BtnUrj9mNQgAK+NYfEuRpOeeD7fP2r2cOW32NYS63cX9ByID6pjqp0bgh6HjX1cxHWphegO81nxL30VsTLJgBzXqxIv4uuwVV1EoOkKoiuq9JBuyTU+MT0tvTo/KmWBe3c/s2GRwcRFU/Ey2VIajI6MleRkDiZ8xCdzRJ2aG+rQE/lUfucKEJFuC9aZ2sAQ77jB5KR9h0BG++v4qXzceTAKDXc5lGvqRZlEuOIDAcVgA4JWRLuzY4jjISAw0rmzgmrISM75yQKJgBOpOdkp/KSyVfloEe9GPDQUdGRkBuNqE4i6gRsZ6sUkV3jd15hBYw/T+jb8shu7hQAwpY1IfSCR3wqR/64UjLoVMbFfhoh/QcICnb52l0D5qAUVCR0NRSNWReMS3J9qkhWSgTKUxPS1cyDrpVU0a2bpH+7i7JzWYljo6s3aAy6e5JypZtWxXoOKScpWPbq6RnoW0DzRlVHngExSihHyjwZyQEoCBFquyhEILaFamfJ+RrPvPBxzMud/O6+LE/nY1NLqBGFZQhpJGFFlMGDzQLbG1U0XelwaSIotvJ8THp6OkC+21ZxoafAo/21fKud74KfcDQoPDhovzz578gDz70GDrEgp4E7IsxFPCyk4fiM2peDO5rW3lV7V59uB0lEAJQgM+B+rEOvQWLkijolptqTtMU28sITBtQiQee/4cA1JWJo2njNLrPVlTPdwvFqy5aFVXwvqHoquvocmHL2M4Nsv688+SMU06RN77hJYorG1RDcsa6OLSgDGhFQGYGojX2HqT55ZKYHoCmfBTK76R6roV3d1F3d98bhwC0bxm1vwV/JNvfOtzSk0DDi3jplII5Cfotn/VmVC5hrDFkr6JYuhZteHgzerhHZTk4r1etWgFq2SFFKRuNgtoVGy8ZGpDeri5FO9vdEZMf/c9PpYxuhTF0EEmASDKPYUulIvrVg6ExnpTZGdCPIKpWV8RpKOptOvZ008dwCVYCIQAFKE9N6BfqQYsRqW6gxsUvK/HgBmL0I/E63UCDju5xr9+b6If2lje/Vs45a52cecZKLwMCkTHSiDBzuzmqbouUL8xIdmqbPP7EPbLu5FPQqFB3m9XkaOiehogZQYbhfDJK0pTzF31rQwBazL1tZ9sQgNqRUpvbqIrx0AhrU1p6MzWpPcL9CjQPB0TzbNpIRzBZIMvQTgg2bFtGeued27bBR2PKX7ztbfK8550vgz0AFphSfoyMfpwYTLFCiX3dkecDHxF7f5XgZM5A5fmDV/6efO1rX5MnNzwmL37FH6EvvCkTExOKvCzKVtB2UhH+j6L1TyaTQR5QwT/REIAWdWfb2zgMw7cnp7a2UmGS8FeyLVlxIzp4CTKKZxotgZLoIsvJz/fscuECkLo70dkUfiLbQhvl7LichmaMX7n2X+Wlv6PBZ2ZWBG4g1WoajU3RCJJEaQArOowBbA6ZHfFJDX3fv/ilf5epbE5e/opXo4Fhn1x80eXyH1++Tnbu3ImoWFK9eOxcLqe0It1l1sMfDZZhImLbd7e9DUMAak9O7W0VJgK1J6eWrXQTRAvhdEdiaL9jMoEQpk+piA4g0D7Gdm4HK2OjnJscmzlh5ZLpf/vCR2XdiWloN7rJahx0kOwydM2/XSdXX/kSWbPyePned/8HAITQOzqgVqtU8i354Y9+AR7rpAxvnwXIJeR5z3+BfOrTX5Lrv/19aD851bXDQhNGRr8qFZ1Z3UJozzsLMoDQBFv0Dd7HDqEJFqBElQkWPqRtS1T5aJh1TMJ7j1SePemjACQTvqEq+p11d6Rnc6Mj4+vWrNj5z5/58GCHI7uqeYlkEpKGfhJHy57E37znU9Vrv3JtYsVQ/2xXpjeFJsrTCHx153OIgCUNuenm22XFyuPQL21KVq1di84cMNvQDLFUNRE9q0pnz6BqeFgFhzbbBpFkzYLNx/5piqYWGhhvawg/bd/atjcMAahtUe17Q/WQhoGwfQuqZYtKuaZrtthGCFnIMfhtkmj5U4fmki3ki9nhXSOnr139qw+89y8fTzfMJU5RapbbMCMFiUeq1fRN//XT1Gc/89H1p6w5a3Tjw4+ayXh0x/p1Zz4xM1Fan+mJ9T+1aVSS8ClNTufQ2hrRsaQu+UCitLztL94pA8tXSzLVKdmZPEy+GnxAZNhm9AtJiGTqh3Oa1hc94ge77GVRgnuGbBwCUIA3UmOP54oOcNxn8lBzLXug9bB9D0wwF50+ysVCrZIrZu1C8ak3vf6P/ztlGROFbBmphPWN1RJ6deRmOnK52amUGUm894/f+qLh7TtOv+qcs+8+/ZST7xh7cutMZ3ztn0vKekG1lEsMDA0siUSnDdNJCKozJAen9Qc++Gm09UlDA4OZBs1HtXyG9qU6vCIHiB0+TGY2qpIMFXlrpxj/mXyrDsq1hQAUpFhDNX3R0rQBAA3k3LCVkIPOqTWATzaXlUilkutLJDf/6Vv/5Cc9KeeRetWdKrgFpj3nsI1brdZGqxUyIZkzp5227ksrl6+MmpGInc50ZMfHpqzSXY/+bSzhfGfn9MjVPWuWXoK0xOOXLhscoJb6vg99TH75699Kf/8KFWovw/wzrZhi/KEWRj8QTcIIz2vuikLretF3d987hAC0bxm1vcWh54Nu+9QOyoY+x47PSeSTijFX5+mWZn0XEv1KABz2jXfQbicFz3LdLUutmK13GMbISUtX/HD1QMc38JAWkZmcR4SqsvbsodZIFP9msRYX3ZVRL5UfX3uTNVso3mObyYcyZuftx5049A/bZ930y179ttj2HaNGz9CQFMuopDdSAjxDASvrvtj2mZ1ho14L7DKc3Mr68pbQCxT0gxQCUMASPZYeUQJPTZU+aEIvAhDLJHy+nYUdO1StF+St1zpTsIo3LgpFq0gCJLeRBedOX8oYs6dn7n/F7zz/i3ErUrTMRmnt2f2tALPPu/a8111VuO6fv2vBmIrUtuzc8D93btr179/69tKxmWmjb8kg2qUhrF+aFSvO7rIWjo8CVmhhNl4VmGBUfRwTjQ4b+rBhgsU+Rb5fG4QAtF9i2/NOxxL4+BIg+Oguptq5q2TgawzsdKpKvfjBnHS0M0Wz/rArq8r/cRqSnd4lQ52x2SfvvHfk/X/+V1+OW/WcYxvVE5+9fFHgw1O49u+vM3aNT0SzZffUa278xfsfGR49dWjlqtTSzgEpVwuqmWIq3QUE1Veiq8w01ezc4l0IATbsShjgTJkbKgSggyJWzaB3cIY+skbVZRG6bEKxJs4zkNjvVE9rFnT6xabNVmD4jOH2JDKUd+3YJOmY4W585LHpl1394q8vHey5PZFMNE677PhFgw+POD41aW/ZvuOCG2/71buTQ2tOHliytAdAGYmCcsNyklKs5JW/x2yDz1oRAXna25El/aP/bMJExIN0D48F9NEmVwv4KJ2G79mZdY5EDIUUHnG+5pBWBGMN/duXQNh9JjspiXhUclNTMx2x1P0XXXTh1zKZTlBq2PsFPp/50DXR0cmpE37z4INvdLq6Tuoe7OszbStSRl4RNTFGuir4O5nILO7uq0BYuAQpgRCAgpQmxzoWkKdFZvT5kObUX88Xp9+xQ4ORJh7ziez1XI6iBCM/OyUD3V2z8EiP/K8/es034radR0lG8czLT9qvlhfQfuT+Rx993XixcPZxp5zSuWtiMprLF1RtVx6FY4VCSRKJFEL9LDZtawqEwBP0PPHGa0v6B+nYz+RhjwkY0u2ZPQBSmo9vgvmAQ7tF95TXAW39vtUfVCnlZLC3s/bAnb+dfuHlV3xrWV/PzYlkqn7elSfPlaIv4kn55Pu/6IxOTFz6xPC2Z/UuW963cdtwmtpUb2+/lBFtq8DsiqLgFexkoOFY1CHCxoSLuA/tbhr6gNqVVDvbsc8WVaBjqIOm9i/rBoE+YTxF5Xdzb4rN757Rokug+AHFozlJ2uZYXzxx39mnnXJdMhYr2baVa0fce9omXyhE7nrggdem+/pXRhOZjngHaA8jUdkO7meS1A8tWwoTrCIzM1mQ1PdKqdDGobwMU91FLVyClEAIQEFKs9UEOyZ0IK81T+t16yB807RRLmrIws8V0k5qnSeEdD9EoSrZJx95bPi9b3/Hv2TsyM54zMlf8LyT9kt6n/3YV2M7xsbWFVw5rlio9jlIYq6gqLWBVKG+gX6V7ZzNZhX5fHdnj0yDLzqmSi+ePm/Je0RAR7RfpxX0E/aMGi80wYK9nbqBptdHKtihj9DRvFC7f3atjRIJPqS3YNscE8hTZ60XEv5sFnrWyoIc6GJ2x/DYy5/3wm92x5xHU8lE8dIXrWsLDfao/RRLxsjoxHOKEhlcuvK4KEg8EPGKioEMa9J7kBOI4MOF5lcMhPZtqjS0HdmCo83Nj9B7dQSeVghAQd4UZYIde8t8SlXt5vFbKidQWFoqFxTPjwPgmZ4aR24fO1A0GhM7tk8v7+i6/bSTTvxhX3fH2FUvP9fPat4vIeZLRXvnxPRZTiKTqAEJFQB6eUpseKgXj39xcTdKqXS4u+F82a87s/edQoEGLFBqQMeQC2g36fmZztSE+JoBYXwPGgKOj42At6ckKfBk5LNT4tRqE/Xp6S0vvvr5/znQndkMTuZFeYQXHvjzn/x2BDSqzqNPbFzmRJO2W9cROPad95OyVPcNBUQahCLYpr1FtztBs8J2d2hv2HCr9mKQoZwWLQF6ohe909G4gwYaxMO8ANecCaYnOlsc70AX0j7046pWCsi9iUpHzCoPP7Eh//pX/cF3j18xdGdXZ4d56UvPPiCBAXzQuMuKT8/mUhErGnXVHfAINOYaz+OcfH7p9qXtpSHSmRWaYO2Lra0tQyd0W2IKN9qbBHyNZ16msIqMeWF5TP5EMopuE5MyONCL7qUzMjm2o/aKl7zwwcsuOOubBrSWi19y5viBSrhScw20Z16WSGdiEcuJ1Q0mPwKAfNMrgip3BXFUYnSNu18+0uaxqQGFANSmsNrdLASgdiXV7nZzv+MH9Ive7uEO53Z+P3c1LalxqDWRR4MPJz+5dTLQegozZZhek5KfmZArLr0w+863/9F92eHpKvpwHZDp5V9/sVSycsXSKV39PTEkOyJwDqZF6mCeycXYXNPjzEztxQlO61ChCbY4qbWx9SLvQxsjHsObeGSIvsvhmJAEDRp1wS26gW+OUQBxlFg8/sRjcuIJa0CxWpDzn32ufPYz7+7p7cgsz6TjUYTdvbYTByauQqkU2bZjx7m2E0+S2IzkPZrAh9k7IJhnNWmzz4/vB1pUwM1nGzmwEw33nieBUAM66h+IhZOond8Ulk60Xvie92kNqe8mJhXq8uu9fIOGa+Q8K3UBfMrQOvJTM3LqCavkkfvvkNe/5lXyjre/XMyaTFI5AX1qNVJnPfyBL+ALcrZs3TpUi2WcOADIVQDEccnnQ+oPHkZThszlIrUjq+a5eaSIB36u4QhzEljUHQgF9/QS0GSsh9JNQLMC5VL+S0V39MsvFDWAIs2/vZot1m2hJFO9mKhXr1a8TqPMGESDPrTDaYCjmYyAddCVsrVNlNw4YICvopwBI6quEeweWsb32Bx5PczzcZF54wpoNCSO5D+zPC2V6WEZTJvyqY+8X97z5y8XJOcgCceNWI1qPuYY1oqzlx0wAH3yf3+ZOOZsHR7pRo94dGc2pZjTHM/62nVxbATlF37VvgIiT05tPNfqxoaZ0G1IapGbhBrQIgW2z821C+QQLr4q03pU73fFt4vm9zied26diE7V0EqU/bkUDSkmLyNXSsFBPgH/LgNhmFAIwmb0S7cUgyHfx9FBVNBZoorSBgIXcgxVR1JQGuLzgpj1srzpdX8oV1x8gZxz5gqlGVXRn8tOmGCHN/uixRoo4g98wbmbYDc82Y46GcOIOJSEzzXNlIhGBGRjBCCPg0hpRNSNfL9Ve6cAH1B7G4ZbtS+BEIDal9U+tzw8pMGeB3jB2alyCFaeq8WjCmu+11oBTazRSfAvgwje789lgi+H0SMuBCAHeTv1UgkAxe4V2M4hX3IEpF4ldBQdl+6ejNKiHNsCrakto7t2Sik3Lc+9/GJ5zat+X844dbmk0IGCjiIoSBIh0bsOQDmWY9mlrTkztiKlWk/s71KplM3x8clzYuDXQJsfNvdS10MQqvGg3rLQiRPGtPZX4sHtFwJQcLJUIx1aE8w/+VZ/jJ+u4mtB9H/o7chCqH/1NfioKBHAx0F5Al9cyiBpr7HNKFECwaR8nk37ohIDaZgaA6AUjVngTU7gc0xwFJMm7IYU8pNSrDnyoqsuk99H++N1J2ZUsJtnUUQPrkohL12dSbHAsQwEIyYmUZORchroHggL7kBuQ7laiWzatvXcZEdHQqCh6XOHxuNpLLz8VqK0p1EI934aSCoKNaADuUt73jcEoABluiAKdkgUdsPL5m06jNXPOiNTHgC1aD2KBFUlDmofEfeB1qCiRS78QmriQkOJWqif4gTGrE0lO2V2Oou+WWPYF94ffM4OFhFEzx0zBi6fCTlu7XK57HevludecbmsWRVXR2a3UrJdAKuQfIj2yaBdVeCnkpHroCU0O2GvnRJxGxuweWl/b8O//N3XAD47l4xMjg/2H3eiXYfW4y918Ez7PjG/Yn9/j3NIbub+ntxRvF8IQEfxzZsj09L8yvPJtVrjC9R49DYISKsr1qFylo00YBppjYf+nigcOQY+h1mDsHlZxqHZ8H03lQvA2i7QWuTzs7LkjDPkikueLS97yZVoh9wvGbBelAEjzOpB7SnGAtshdRvMXNPLC1JWIYtSDTQWdCv9AL7zxTIeaIwjHagRmTb7rEVrQvD/OIVy6SKoY0PQ4uIVYBvzBVVfd3W81px0X05hTvOR8tiHABTgndCR30Prgtaaz0Lwae+iwC8B2lPlsoVmUoOfJy+5Qln97UATcqBNjE/tUj4eo7dbLrjgfLnyz98gZ555pqxc3iHAJJCt6t59xLc0rDR0upHpyRxMNAdk847SuEiBqsaklxqnWscObqPWH3Wcc3CgN6Nb4K1GrXFvfdKdAHDMuvVGIdoPlvp9LN/84o8iW4d3RB/fvPlqJ5Xshl4XA5ABgFoDa7Sd9sB72OQnah/zDu2d3dfVPzO+DwEo0PvYEgLb5/QJ9MB6MM/80m/mR7dVJrB6Kc+P3iRSldLsLCgyNAAVUCRaQPi6uzMtJx1/qpx4/Gq59JJL5JSTj5e1qzo137N32srMwjD0KWN3tVSrDQCSK/3dUIe8pQS1KAYwgltYaVsVOK+paVnRWAI4sQpwEUeT5RU498sAFBvNcuR+s1rb6I6XJ1DfNekMxJu0rFvv326sOEOH7X/23TuMHbtG7Vojkn7wiQ1r+lcfH2e0zmsKhC1IeA/TUl0ndmmCEpMS2XrZk9JiUCXszRz4QxsCUMAiVQ7PgMd8uuGSqYxHsmWD67gAs6kmnZ0AC/hqGFqnf4e+EGoFNH8Msw6NhdpOGX6gskxs2SBLlg3JeeedLc95zmVy4fkXyOpVPRIDqHCm04ryr2khABGR9LVqQEMQTE38VvCjJtSsPsfGDvh5uJC4BBUTGezKlqQ9+Gg1UOF0SUQuhEY2gvylXUaltq0xXRqrFMulaq2xFa3i3c13b5rK5YszExMzcFRF6sOT42/uXbGyt9ZoROOI4LHNchTpAcTiSqWE66XjaU8S9E3U9jWgQ3tnD+FDdBgPFQJQkMLXM/WQ6j5k9aO/g6+uri6VDDg5Oalazgz09slsbkbi8AQ3Gq7E4jZAwpQdO3bh+6qcjAzlr/7bP8iSgS5ZtqxPbMxJH2S0K1tPuTng8bUqahR7Edxi0TcSIUJ1Y8AOvAYAVuATq+ehvuQlhi6FjlmwkykXxlwuUU5NlPKlu63R7K+qNXd0tlZx73n44WfnK+Wu3v5ex7QcqZUArAReOsq9UgwFgItM+ll4dcplFuSzEo6lJBACUIAPgn5AD+1jSrMm3dkBjuMZsPwVEbVKovo8DjCJwAcDrSiHJEI4kyOGK9s37YKGlJfnXnm5vO2tb5ZLzz9ePQA+yPhn71aRDd3QWpNmEGwx3Qg8TXIv3/e0P9fsHZXjqTGRAYlTxhrJiZFeT5QN0vpAVyLi1SRhFGC5XZi27BdZHbG7hvPl2ce3bFmT6BuKowZMmV9MlFTkhczk5rAq7OYdQw2q0xR0A8LFJWED0A7pj0uAj+YRO1QIQEHemmb9kRr0oD+sau4CaPyMZR1OB3CwlAJ3dnTXDkyziqQTcZlE0uCpJ66Qv/qLt8qLX4Tgk3fdXDfq8AUhZo4aBsVcaDJXRzmmufZNFE/raYKPLzj6vTip94S9i5vg82+FYpeMNAhM0GdwFjTw4jitHjNh9yesxNDPf/ubRrILqZC9fXEXoMKkQwKmidKRGsJxuvvqPm6FV73fxmMAHNwfoG1j5GN4kxCAjvKbn0glZRodHhhhyiTTkpuZRg1UCWHxjKTirIGyZHTnNrnqikvlve/+SzlhbTdVCphqSCgE0BgwzchekYzDFQNfUQ2+IQIawUzlAjWJK3yHj59fROTywGcf5BZ7RuL2wclFYWsE+YochxE3KxbpGJ0yem+67TarZ2AgEYkl0GgQXzRYRgIzDOYnTVIbMuHfc8vcmfj2VJuQorCeZthR/rgccacfAlDAt0T9SB5CW4wRJZ3JbMnU9AQyk0syAArUBhzMU5MTsnP7Rrn2S5+TV73icpWZTIvEJpG8hUJNnChrulDAqRzUEYTdDVQy+AC0T9F4SY6+8qPW8zShltbMexysNVepdQN/nhOkWGuGMhBcpzLacBH89oGHH81M5wuJdAokPTC3QEgG7cdRwFMsFpWvS/mA5nFBLzze3o6/tytvE672KbhwA18CIQAF+Swo2irO8iAHffqxsvD9mAg/JeH7KeRm1bqKjhM7Nj8py4Z65f777pbOBADGw0XLQOFppQjwqaHIFE36Eh3NxD3+xHNKwuyBFgU/kNIidNTKX1ovrXU6qgxrAsQe52jrRNeaj9Ks2pQTa7r8kD/3nZgQ+cF//yjV0dEJNAXo4MQVBStMxpqK+CEdAKBaQVkJkyC5PC21SDu3i6XwIf60I6lFbbPYn4BFDX5sbkz7BSaAUgVazAxSQiBLV02+BRNv3/PQz+FZuGbGsSNT45MyMTYOzUZgdjkyNrJNhvo75Jtfv1ZWL43JYB8KTJHsXFW90TlnEVOCSyUaT+tbxJkF1UJlEDM8jvemZSvw8X3E/lpNZu/Gtn5HT5Eykbzv92RgcfQ5BbFlkN0eFD+UqB9P23CQYV1FDpE+xhObtsuPfvILSWT63HSmW7X9odPZxUXSeU5tMIpWPCUU0WrOIt/N3oognizb8Ct7zU5aRXBsPtoH4apDDShQoeK3FzOB9A/I//XUf5g18E3oRRdItlZlu8wM5vz3UcgzGfx5QT8Mf9H97/m3v7iYjtViA62NB+F4LqO0ypTcxIhkonW54ZvXyLoTupTZpZoiqxwd/KN2x3kAYLg0YVJhkJ7we9Ny/OP6U9rfl9qJt6vahGadyrJGGx46uE2cF0s7eKE0GY0IHjuvRqKUn5FYKqU6iYBWVeJo4+NHqFTbZ1UAgjOHaQjfskyDP/Hjn/q8DK46rTYyNWNlGrqMLBkDNQiv0zvJYqmg6EJ06UmrtkVfFrOjF912PnRCN5+84P4INaDgZOlNXerqNVgYqL5SD7onYoalPGIsNVHULJ/TE/w2Nn7rqSaVTwvgNKhf+K1l4DwmKKXjCZmdmlR+HRK+i1uU227+ASJeA8qcYvdREo+pY/nI0qq6qOtvye9p473m1Zmb7AtNExsmE6k7OK4CI/wVZYNAOrXpAVckPRRXA+CTAHiWSOHsgQ/KOZTj2A/xI6EQmhuUGpheroyMVuWxDU/J2PSs1dHTpxzPmuvHOx/N3txyV/1x5sbTJ+9v144zvKn87FtZDfR5euYPFgJQkPdYzwL9I7zXHoXzH3hNi0GTQ79UixtVNKor2tVL0Wfoz/hiyFlXu9cROndhdlmgw5jGRC7Kd274pqxcmpRcjn4eno6Xw6NKEVpAqMUWmhvZP0J7a44HHjKxPL8X//a1I9aC0icTtdGYkGXx+IZ+mQh4gwBLHpDqiU2ncevCLqZ60Y8nzSliVk+PKX/6xjeW+7oyM10dyUZnOn2o8j5D8yvIebLg5+EgDX2MDjvPUem/WYjzTI7zgKjJq9y6jUYH33HKiaw7wszvDkyNaGZ6TNB0Qoozu+QTH/+QrF7RqxAwASIxOpq1V4bmICe9N/F5a7xTm9NmfK2m/bUCLgMhcp4ZNAoEnnTDG3V5DFeZaIlcRWY2NDNkFKJv19xDwQp8gCd3TgBIfC2MM135dLxPuL8aEh985ZpvT48Pbx0Bt1ChuzNTzk6zm087GkxQz2LICBSUJP1xQg0oWIl61fCYjs0WDHs7wJyp0Krp+H/7zlPl1FVaEieh1nxoVNGwIUNWV8aRydFN8u53vk3OOeMk6UAecQ0hobqL7Od5LuEWB/a8ZEKOpn/g92dN/lNUncEJjBIIz8nsguKVYEQr7KYf34YkyKziIPPrQRny15YpP6TapMG1CD8Rz5I09XlPK6LZ5uJ6dmwbrv3XV7/62Efe9Z5XT+/aOTm8dRM8zhqcDtFybPbdPsjCDQEoUAFjIjFfXyfxYj7T+dmiEvltgZsRMk8TWuB4XvirTsezcj5jO5Wj43kiqL0UcxOyammP/PGrflfWLE9D4wBfM9rfJJETU67StPFMMLXm8XzdokULUzLwz3Oxa01u7yL7mnsqGh4vM5pk9dd/+3sAHriSIQomBZYALKptF9IBXNUSTPuD8sUSIm866mYjrcBlOQX+Zv4PWRo/8u6/3vLxD3/0h2tW9ZVOO/WkyahtINWZfrBDpgGFZligc0UPFgJQgEL128Dscch54NPayYKAQi2k9aX1HINggxmtNQtMNDhZdCcHdqxgpKkKCo0x+cw/fgyFpyg/qNQlBW9tGjYZt4vafg6PH4b2bve8WPjCMPVi3hNwdKmGjUp0LlRoqP0QPe6/9zGZBpvi4OAShW8GomIuEcoHQ65ZuwUPNJqZqoqOiSxAk2YZrmECIa8nntiS/8s3vu3uP3/rOz8GQH9LxLBe8cLnPe+WqYmRsmO3EUMP5v7q34C2M5eCOeixMEoIQIHeZaU9wPhSk3gvERNf69GZM/TT0FQy+WuOtX7pz/zWOVzzM35nMnyMlwYsV675t8/J+nNPUXMabW7U5GY30iK0Bm1coRJeVX7xpeNiypc078Vt+Nni1hyLIXjFvaPC+lh7+IW6WLnjzrtl7Zrjpa8PoXVsZ0LzSSDMzsXF9Zpo9aPVChwbO2bzdbnj7gekhG0LuMyf3PbL0nPOv2z4uRe/5OMzk4WbpiYLXbmZytrjVy+7yWw0JqFBQe06lBpQ6AMKdLqEGlDQ4tRKgPoJV2aYgczktOLpYVauA9OiUMgprcGFEzYGUndiRjWfRZgZ2gtoMxyYJg44e8ArgegSShCg5URZOlFnVm8VDmdDdmx9EjO4JJ/51CfkeVc+24MUF+UIJSkg/6WBvBvHSQKEGG9ipy5oR82XD2XaPY0OO8rn0qqX8H0RgahcoQozjmAx/3v/vYJKJDKhFSGuR3uQCshLIigxLedHP75JXvqy31XvyxXkLPGAUBNn8nnlVAeHDz6wATw66nXrz38tf/zGP5XvfP+nsnO0JG9927tyf/bmv/4yykPu3DU2U1//u8+KTU7kEtnpkvlHr/yDu7du3BhIW+d2ngLvjoZh+HaEtYhtwkTERQhr35sq24bAo8CHC0nBGNUZHOyXRx59UE5cuwo1W6MgDUsqIjGaLrZJZsIJKbAYFH4S9tliA0B6bbl/JwiX+Xl2akpOPPlkedc73ipXXnGVXLh+EPVeORnoTqhkvwiBB3eUYDIDBEkgR4gztNXiIggwzQYRcc1k6G3PKBMP6VtFtN5Q2qn2VbihkVX7eZTjWS82umMoXQ6fTU+XpbNDm3033XK3TM1MyfkXnaH8P1Hl99H7sGLdgulFDW1qtoAomB7jn/7lC7Jk+fHy7//5Tfnnz10jp5xy3tiaE066uQZnFgjxizf8681PQrRnxGP21jPPWPdY34+62dZ5jn5x3zdof7dQipq2wsIlSAmEABSkNJtT1Pf8GnAKlxXFxRTAo7e3F/k5szBDYjIyshOZwuzfV0HInMWkjhx33IlgJjxPTjrpBOU3sRFGymQyitunuzsKMFIKBCa5BgKaOb0t9Ke8FBaFszEEe7L7ub5bdhZkw4bHZcuWLbJ9+3b1mkBBFdkDO5hLwz5aSDOOJ2OgY+2RvoFe6e8dkCSAYbB/SDq6Mlj3ADTngAiBLgVkqPwQcICBAxqABr/NLBKTH3t0o/zn178qL/u931MJhkwDQiqPWlyoVyhKwV/UnFDDlkb1Ot595vPfkompsnT3LwEQQosyErJzerpntm6/uDud/HmjXHy4Wi6em4jF3t7b39M3eNzAiquf//zIbb++P9A7uMfBFOwwAqBucLgEKIEQgAIUpop+6XAV4uDaB0SWwm3D2wEgnTBDUCiJCblp8yZUa8O1DLrQv3zLm+TySy6Uk09aCzIxfTLsLgHMamouBQAN37OwEpacSp8hyGRg5uRmigAbfAmQyuYr6NkFRMB39OXefMvt8n8//6+yZduwjI9PqRowAprftA+k8PhuXGUrM3ReJYcOWS1o8tGPBUWumC+p9wSodEcKZPSr5LQz1snZZ54jK1cul/6+Hunvj+JaBCAr8s3rvibf++71Mrxtk3zkYx8S7I59MXeh/jBgxcJSRskopipsuRySxsenG/LF//iq9A6tlGiqRyrYKZNmGYXd/8F//PSbfufKKy64+rKLv5E2ynf09HXckezrfW/PsvQLXv3aP0oeEgBq5m2HABTgdFFDhQAUoES9UInuaszfTPxF/w9NMNYl1VAmMTW5U1784hfJ//rjV8u5ZyyXDDSDGKP11A6YVYyJjICQWmgWFfNVcPto9YF6A2pP5y0ZoBBNrukcOv2l8CU2+uYNP5dPffpzsmV4RIaWr0SviC7pW9rbdAArnxTMvAZApY4EQdaAOaT1wLHZMRVwBD830xxdgA4cxQAifl4BQG0CYD2+5Wb5/o23qdIKvqipzcxOShoaVG8P6roAMm/80zdL70Cn6gvmcwqRkD4e5cVFcF0Ix4PFkMD6ib//rNixDtR6pWQWPqTRyaLKb4olu2Xp6uTQnQ8/lLnltltOO/uMdVNXXvUc49SO7jXlkYZVphp26BadAxEugUogBKAAxanawehgbTP7hz4cgg/Nn6ElvTCtBuXd736nnLAKnSFwbDUdYZZwEtO3wokZZxgdw7CrgwNaVVVTBXunDLKwWCyJ/Dsk/VEFQpU4DzQ5VZFMlyPDu6ryjvf8DfwvP5OugaXS0bsMjmgTUSW2x3GQLhhX2o+BUL2JDGaVxgdw4XnXocIwgUkREALFyA3ESNssmRLZkhlRLhPoZ2PfFJsXRuMKWPGNIrkfXLpKstMjIAuzJJ/LyVXPv1r5mXy/Ecg9sK/XfRX94WPYn+Vx//3Tx+XHP/mZDK1YC+CKAcgq0t23BCYbnNNgcTRwrUv6epMwXZOPbd408MS//4difRxD/Vs0npGevhUB3sG9DaWAx0+oOgTHO3YOEYbhA7zXDcSavR9JphWrmDz6OQBcorJ27RrZvHkjHM9Tcs0118iGTTnPEwIAGd+Byc+8HgAMImDo2gfNAu8RBYOXCP8XVaQsRnWCWceo+aoWZ0BRUVBaUwfA58tfuVEuuvhy+fWv75LVx50MDKFjF36ddC8maicmrQMwqcMfQ/84tCa8KohgJTPogJHqFDMKYAOgIe4mLtkHTYCgDcCKpdSanxXRdidXqkFLqap1rsgWNzH0DitgXPiRAI5FaCXnnLdelq9cpmZsAdE6uNXVtTJOVgb4WFDzSCz20IM75K/f979l3RlnSxUAOJmFtphAowyA5Y5dU9LRPYhziqrr6B8YAvc1NKp4EhpiQpYsWQbw6Q3w7j39UF4yeqgBBSzxUAMKUKCqG6eizlDPKS0X5ZthseUUaraWLl0OP0hZvve9G+W6b31DnnvhubI02ZAO2GBvf/vboEUslRKaA1KLKMNMisJZ7ZOrm2w1qkJWCHrH0ko7qtUsefCxYfn4P3xWfvLTX0pv3yD26ZIZNhdE3ZUB4BsdHYdfKKGIynh+1Mg04yFcwAh10Rzj5w0gWQ1rjmtAdVG5hNCGqGiRiUv9UjGcxcRIfE9Nii/HjklfN+rPTHiicb2jozvkta95v3TDbFRBNgxAfuY6AI3a0hSKZPu64wIKI/nfH/57SXX0y9jENMZKSAcq5mfRBNEFEPd0ZGQW9LL0oe0aG0HTQ/b5grnnIKcIhGrMJ5rOzkITwzm1JJsHeDtbh/I0oNAEC1q+IQAFKNFrb/hY4+VX/5UekQ4g1jzhmTVJRQEzxcYkyyPDruZGAUbL5PbfPCC10Sflxm99VQaXrFRafiKRQnQKuT+YYC7yhdhqhuqUYcVlGvkySXS8YCRsx3BObvnZ7fLRf/iCVCNRSXSvRhgfPqccs6zpeIGjF6yGLMlg4mK9nFOnpbxJ/oT1fs9V62T4gWhq6e418KGT2B65SgRAmnmWCvPDKFNABWc6tJho0pA8esYz+dBBvpIBbp6XPf9yefa61aDUgDaD8cAIBBCCOZUDOX4KvNW9cbnrwYL806e/KI9vy0m6r0+VgvE4zG1KejQeUsspbZDtoZOg7KAHm2YcxIjzSIE7iOH8DsUScLAXLaZDlnV9sC/niBo/BKCAb4dXs6W1H0wYhuCpKVDbmJiaVV1H+es9vH0nJm1EvvKf18kFF5/nnQUzgtFFFJoH86BpLanaKuTM0NSKpeLKb3PXPdvli1/8D7nltl+LleqDecR95tQA/2+d/9Om1UAQ8sCpdU0w0u93X6vcaaBXHSZhdmYS2+XkT970Bh29A1K4EIILUHSgiaXhIEfGgWzdXpf3f+gTWE8h5+cEmHIz2NobW6c04r0u72hdNNAcfLDZy+PQphADfpiOgeFCAAr4Jtd1cWQTDQgGNHNSYP0rIUuZfxdLOfX+ox/8mFx+1SlSY6EmXTNeNKyGaahMIJgtXNR0xJ16ageynz/7BfnBjT+GFhKRVKYPIOWRr3vXsScgCvgS5w1HbSiVTgEg8/LCq6+SFSu7oP3QUgTwwqekrDYFMSLf+Ob/yL9f+y1cKEAYOUbl6iFLZD4wEWj4CUHowKS4x71DAApYqA1wZrRGa0lBOoGCTIarGTVKJqPIB9JAtAs8zrf8cot0I5TO7WIpJA8yCxo+kwS0nQISgmpw6j70yKPyjetukLvvug9NBzvRVx2ZiEClOPiQSzOzzStoaj6HiD2dUbskwGdsbKcsHeyVVyO1gEmHSWYDwHQkEFFz27ptRD704f8jwyNTcIwh2bEHrYHgvB7ZNYZQu5dzEPB9CIc7OiQQAlDA98nTgPzos6oBo7ZDM6yI8og86qD4fjY7Lf/yuc9LdnJKRb0IHjZY5V1oFFR/TCQqTmObdLoTyXzIEO7pl/5lJ8hMDiH4aAr+EUce27gdGcvd8zpRLNSADnbqCnODmKj4qte8VpYM6VLXWSRBsiTk3ns3y8033yw33vjfcsJJpwGsTBlD6ci2nSPS2dUnfYO6dfRRsxx8Z/dRI4qgTjQEoKAk6Y0DDUjr6p4WQgAykD/DDGDmA01PjqLswkSFeJ+qBVux6nilDdFQYTeHCoi9yojycP/ueBc0orosR3udahW1YHBgm1ZSxrNonY48ntOQjTw6vLlpHRxqDYjnPIOmiCevO1XOOPMkGZ1GlvcTk3LrT26We++8U+U+Meq2fMVKeXLjMDS3pHT1DSDXp4jEQ0boRpHzdNRoQCH8BDxXOFwIQAELtb4gUkttZwxaDmvCenqQkQzgKaE/ew7JegSnqdm8CoOzUr6qspBR1sAoFMZJpZPKec1QOtsNJ6ENVVFNmkwhaxiO582bt0gCmhLtsVbNJ+BLetrhWD+2eetmee3r3ya56WkVzVoyNCS5qawsXX4iTLC6ZGdnkFE9JImONApyN8gAIoBT2LYHZRwFaIRHx6J/Vo6Ocz16zjIEoIDv1UKTh3VWnUigo4+HGg+SWAAgMRXmZjSMva4U5Rh8P1mAET9jr6tyuYjJbMgkGg+mCTgIgzMEbiKkzcgWs48Vtw6SFPfmeObnB9MEY3ierYF4jawxI/VIAxQgFvw/HajQZ6IiM6gTyR4UyboyvWNcVq49HiH5GYmj8G0mn4PJ5rP4B3wjAh4O8BOCT8AyDTWggyBQ71dSNQXm8DRBGELmmmYYWx9T8yELIiculVCV54NXCvQZtN9Auq52rkF7iKFknvk8yOTBJ562o1L6mOcDkrIF6SmtgHMwwccXnWq1A39UGefIejHYiAAb9pxngiC0Oi+izm4fdjwFcxPUq9iG8lDAGcaWDs5TeJSMGmpAQd+oRU8osuJoggo20WP+kF9i6bcz5Ce6DY/PzOODkU8oH/RF7N94mmhDE+e7Km9HazfaeGleofpAVdwfXeij06rCJVAJhAAUqDgX+YhiEoKpQi2KxkxRdGk6s90XH3T8b7RqcSgygZ9eRMyenqtKn9eDHRelAHUP01Z/1ISnoO9CON5RIoEQgAK+Ufvn0dDlDq3Lnn9q59NPzOHU4ckQ9rkfFQgqHmyeH/Q2FtF6/c52Bx/vGtgl1gPcgG/BQRlu0YrtQTmLZ96gIQAFfE/p11hMHuDcBNUg4msM87WgFuDZjYT98ICPFpsuj2g9V9X1VCk3XLeem4ZU5RtqLgQu1pqE0zvgx/CoGS4EoKBv1SIdG9R8fJJSngqJ3tXaU4Hma0KeGUbTzTdtDvfcVc5mHyB5JTS5WjU1D3CaHWC9a5i3X9A34aCMd7glfVAu6nAPGgJQwHdAlcBrN+s+H1iv+5eiK/XLLxeacFq78CaxQiM9uZXmNE+bCPhC2hxOnZJnfikzklxG80CIHK/a3GLETxF7eBJS+x26tjptXtFeNwtVtQOV4B72DwEoYKHC/AI2oJ0gtZSWsZtmCuPzLdCk+Ftbz6HlS/6pOlD4G2DCeoZM68gBX8Eih+MFeOesqDx4hsr5TIZHamqtUpiL3gUWT5rXebZVkrv71dSVLQBtX8Ok4qrSIZoynweOyCJotpRdpIDCzZ9OAiEABfx8mIYBmnVwI6Iko862EciFYUV4s52yIvfSEV0Sfc1pPlq7UR1QPS3Hn7qaDszzt5D9nXuDz5ShbBW833PYLOAr28twTcDUZ6vI7D0cMHxy+4W7KqRqCf/t75kCfAzyulIKlEXTn0TwIVvjHIsqZU3waeIPtTJsr1oxevqqOiNmHPq/CtinVEbOFqgHHCdWNc3DKej9FdKRvd/h9GAe2ZLZz7Nr1KvVuO0UKsWim0mltelBdnlv0cmBWuy6z/vCW6AnjeqMrjh4uNbtmPn4K+jCpON+XB9ZyxxQKl5pdX7zP2ueL0EoCOezAjw/CueP7oO4lrtWkkjU7ZmvvCvEo72QmfmnRXkn0GGxu7u7Njk+Rr7d3YmKjqwbcNSdTQhAAd+yVDKRnZndUenMZArjE6Pe6Ewx1Ez1fOj58M8RbNFrpHhPWyar2tD7bM8BeT2p5oflA76Uo2O4p/UhaU1z7qWBylCyJVcjtVDejzlAaordk22xlBe3XC7ZhjmD1tLgYQyXICUQAlCQ0uSjHmmMLulYdmt5djYbtazK3I/mXFcXKkSgDdLZza1agnr6F2gNzV/3hb4U7ePYU5JfwJd05A9HENot8kag0dqXNgt9rVEDvf8dWLA9fbMV6H3zELV34NUf2bZtatXyFffbpp098oVxdJ1hCEAB369URyZy4fkX3Lr9iYe39HdmJujlQQs+lmwqn4QLs4shdpek8urYeoL4ZpX6tSYI7Wa+6BNVASSlHM35igK+hKNqOMp0ftjfP33P9PMAXIOQ7kUdqftgREOXZSO4SwRz6pQ+mCGZkhnediQyXc3OPIgGjHdcf9PnwJMSLkFKIASgIKWJsb7w//622plJbjlp2XHXPXzPXTvRwWFaB9lphAGM2OEXIKRNMj9Hxv/1JfDwM89saObO+H4U/2R98DnGI8PNwNRCMG71C1F2BB6aup42xHcKxQFAvqWrgN3XpBjBRFvGWim77cmnNi/tG/pRdyazNeBHJRxO/fyGS+AS6OhMV84/7+xbBxKJ70fKpWG3UpzV8S6Geuf8Nn61Op2dBmwptVY+Ch9w5maH9hvhhY1aX4Gf/NE2oO/M3qNTmzLVlflzLw0+vkN/3uV6KVy8V/VaOe+WCtsH0un/Auvkb7/x/U8eLcRFR9UdDAHoINyuf/zS+2p9PR3bL1+//qtWLntDpJTfjLY4U5FGFY8+Q/MajHQRp6fFzEsO8m9Li4a0sFjsIJz3M2tIX6v0ZTj3qPsRRpX2oO4BI3LsQwJ6E7zQ+HHWLeQ2lXeNf2/5wMB3/+umf9r0zJLNkXM1IQAdpHvx9//+PndosGfLRWef/eXy9i1fKY+PbUjbjVH00avWEFkBGIFwvqTC9BYaY3EiVEFCX0cvLsc2xQZnTg1sZTTTfDPBC8p7fiCd63KsL8qk5UvDiI5stZhbxXxBsTSy9TX7l0HA6kV5sxstc5UsUBKw2aGJ92hgPbFtw2OPz24bvuGE5Su+2t2ReuJYl/HBvP49x3gP5hGPsbHf+6aPR0CpuvwHP77lUru/73cb6cQ5NcPs7ejpi01NZY0etB/O5QoAI5Cxonc6Cb5I3+q66LnF5urs2qcWH2y8nCIPfHbPIwpWwKrbKxaSqbHQVpOoofMFOq2SBdH/Ptijtj9aE4Sb+VRaXr5ceN41JIRW0WOeCzuT8EUQKgJ0GCBIJKIyOTZaBlX3qFmo3geqxu+vWrb8592dHU9++fqP7rOkpv2zDbdcKIEQgA7BM/GBt34yMj01E33ksY1n3PHwg79/+sUXXPT4ti0rOnsHUuh7nmRuItvvVCpQ//GGlKYGqEwJRlV2DCX8NLUdfz7oUo8QgDxg3gsAZZIJmZqaUt1G0uDYpkyRIYGkaVDaokVS3S1XauVCNuPEhkee2vTLE5av/kZ/b+/D1173kTDkfgjmRghAh0DI/iH+4o/+2t6xc2rFf//kf9Z3L1lxdT3pnGumMp11w85ETDtmRCyzBmrTKluiwgSz2ZZZ3SFdVzW3tIBQsz7s4FzI0a0B1aWGUooMyPCZjzUzi+6tAPjOrgwNtWp2ctd0XGTXziefug9tW29Zv379Lzs7M9v+7WsfOUo6Jh6ce34oRw0B6FBK2zvWn/3BeyNbt+084ee/+vWznYH+K6qOeVa5Xu9CM7AOakVdnb3IFzLxS43AixeqV/qO5+toLf7cYzQnwGs64gFIaYeMHs53OvssjVFwatP8wgpdRuLwqxVKYyM7Z/Mzk5NOqfLA7MjYbeevX3/rd2/61w0Bii0cqk0JHGnFRG2e9tG92ee/+UmqMBv+5BXv2blzbOr2+x557MydU5PPWXvG6WcnOrs6n9y8qTtXqqSHhlaYCNyTYlBfsE9f0VKBfnRL4sDOfp/OGUQWbTj0p7PZhlst5SuFaLY0mx2bGd318MqegdsGB7t+3XXmOY9H43bozT+wW7Hfe4ca0H6LLrgdX/uyd3eNjk/2PPjwhuOHJ3adN3TcSed0Dg4dNz6V7YjYsRT8QelGRMVwmpEvNIBWsGQyih/cqew20pGsATUN0b1oQJG6WxnftSPX19051agURyd2bL+nK5a4aclg/2M9nZlsIpkY/9JXPhQWmB7E52dfQx/MZ3dfxw6/XyCB17ziPdbsbKlvcjI3cO99D51WNsyzepYtXdewjRUIx0frlpE0bDNtmGbMrwFjgt1cCtEesipYc4a7rBgwmnfb326OrmJvN+PgAxBPqvV85s5EXVdLftQcGcacwlI3dEELF8Xl49bL6GeUQ8sidH6sjs9OjG8oTc/ed8Ka1bd3daW3xhPOtq9f/4l9Kk/hw3loJBAC0KGR86KP8soXvqsrXyinEcLvuevhe85pSPnsnsG1XfGu5AkV183Y8WhCLDtZN5xU1ImbDJGXy9Vm+J76EXtvcXJDexKLviQ4tlWzQlLnwBnLrOxaHY0NvdYcms9av1oXbsvoEdMCVBkJQvNstBiLxdS6dVnYHpphcHUsjyCS+/p/N+rIzbHQC415O6qJoqYucevopQZnvMrTwVnyGKqPGtpTk1uJLay5XQVNGU2n5lqmlBzDzEeqtZnsxNTkrs3bNll185Ghnv671qxZ+6RlGVk7Hhv7z29+KDS1Fv0kHtwdQgA6uPINZPSXXfX2zmKhmCoUi8mnNm5cPjy16+RkunuVlU4cn+ruXVFtSLLq1qIAG7BGmHHTxBSNRR20dTZ0FJ+TW99qF2sNAvwM1oeBl89o6AFPKwBxW74IQHz5C3OW2JlV5Sp5y5560/t5Q+osFgIbzwsEa6TDUB1SPbOSOU+ml6EcA7rU0DW2xgaP9CbXqgVcQck2zZJpuuVcbiKXHR8fyY1PbutLdz28ZsWae9PJ5CQ6so5HLHvyG//19yHoBPIUHpxBQgA6OHI9aKP+3lV/ZpXLlVShXE5PZmc7n9y4aU2uPHsCpvfKWEd/uqe/Z4npWH3VeiMOLchGpXfMMJAHbJmOaaHRvGnFCChMdGSOYSKZUlqSDzS+huObXtRyCCK+FsQLIxARfNj3nl1enw6A+J2vAfnaj79GuafE4zF0VgXgsMMqAciF8eRWKo1SrVSvIzsTahw+r8YAOADMXHZsanhqfHzcasjOZDy6tb+76/5MKjmTTsQLlu1M2bZT+sp3PhmG0Q/aExjswCEABSvPwzLacy95XdStNfqKhbI9MzPbvXnjpoGCFPudSKIzlkp1G7bdBY1owIw7KwFECbiNHJRjIqhvWqaRoG3G2Q8zjoqIYRkG/jYMVZrPvMhqrQKSa+ygFCBsYJmNdDpjZDJpaCe6rk2bUVrb8tcwqRrI8CYrPWhqWQDXqKo10o+hDbEro1tx82BLrdSAPdUGGt7XylWySY5X8sWJeqkyhZPIzkxMToOLZ3zJkqVbOjvSOxPxaMV2rBzOMm/ZZun6Gz8bajmH5ck78IOGAHTgMjwiR3jOs14ba9QjaUCDXa1WLJhvsdGx0cGRqZ3LXCkPCQo/HCudtJ1UHP3qo8CbOIAlatpOxnKMjGnbKcOM2A6+qtbKFgAIGKEybiKmFZF0qqOeyaTcUqkCZYRc1swWoHNJaTIeeSx0Hag58OpU67VGqe7W8ljnsJ4FNoGsrZovFrPFUjGHqojSjG1Zk31dfcNdnZ0j8Wi06Dh2DZoRLMxG/ge3fWH6iBR0eFIHJIEQgA5IfEfnzpec8we2haRHKD2xKgr0qd24bh3+Itd0q9VosVxKl4rFVKVaSeRnZuPwLzkw2hhkIthgjeQAI1qOJ5I1gBYzJOkIohpEblkE7KgsUcMxGolEfNowrWLUcbKWbRdQZFuE3lW1TLNumhHXthVzfQWlErkf/+KakPLi6Hyk9vusQwDab9Edmzuev+73GdSniVb/9QNfr19y9h8jDKb4ZT37S9tjkQhyk41I46d3XstQXLiEEgglEEoglEAogVACoQRCCYQSCCUQSiCUQCiBUAKhBEIJhBIIJRBKIJRAKIFQAqEEQgmEEgglEEoglEAogVACoQRCCYQSCCUQSiCUwDNUAv8fK9mWxK0ZiGoAAAAASUVORK5CYII=;" parent="1" vertex="1">
          <mxGeometry x="-387" y="360" width="120" height="72.92" as="geometry" />
        </mxCell>
        <mxCell id="PDv1FXCA-drPs_k4_aMJ-12" value="" style="shape=image;verticalLabelPosition=bottom;labelBackgroundColor=default;verticalAlign=top;aspect=fixed;imageAspect=0;image=data:image/png,iVBORw0KGgoAAAANSUhEUgAAASAAAACvCAYAAABdEgM5AABoY0lEQVR4Xu19B4AkV3Xt7Uqde3LaHJS1yhKLsoSQENEYAzbG4E8yxmBsEw3+BAOGj20M2Hww2JYwnySQCBYGIwmJLFDO0ipsnt3ZyT3Tubu6/znvVfX0zO5qe3Zrk7ZK6q3p7qpXVbfqnb7xXJFwCSUQSiCUQCiBUAKhBEIJhBIIJRBKIJRAKIFQAqEEQgmEEgglEEoglEAogVACoQRCCYQSCCUQSiCUQCiBUAKhBEIJhBIIJRBKIJRAKIFQAqEEQgmEEgglEEoglEAogVACoQRCCYQSCCUQSiCUQCiBUAKhBEIJhBIIJbAXCURCyYQS2JMEfnvLxyISaRgRaeAZaRjYJhKJNLhpRD00kYa3Fr5teJ828Ae/baj/JFLn69zLPoB1uIQS2F0CIQAdY0/Fr28FsEjDikTqtkjdkXolKuImDUOiwA670WiYEambABusG5YY9YQR4fbqRSAysAY4Cb9XwIRXHcDjKnhqRKr4G8OI28DfUjdy+LKCv/F9pIYt8De+k0hFDKskRrTWELPSEKN80cUf4PfhcgxJIASgZ/DNvuO2vzMbjVq80XCjmPNRA2ASMeoxYIWDtWOYtXStlj/fjLpDYphd1bqbKZXLTrlUsqu1iuXWa3YjUrcAUAZgxqLWA03HkAbeGwQfQBHQRGs80HYaUJGAXmoNwAFWYUOzYkasqmXbtVg0WnEcu2BFjBlpNKYaVXvMctJ3ua6VrdcjlUY9Uqy7kQIwsCRiViMRE2Bmli6+7IOVZ/BtOqYvLQSgZ8jtv+uXHzXcRj1ab9RjdbcWl0YlbUTcjFsrnB6x3CUNs4ZXdahczafLlWK04paculQSTjrSEbEbACbTxoS3BX/gRW1HPxu0otSigKZlWWhVURlqXbxHSylJ2FsBVN3FqwZAdKVer9VrkUIlF8kbDTtvm9GCY0cBTtFxYOMuo+GMNlxrwoomHnbrZrbmGtPQkoo4zaJhmOVLL/lwqC09A57dEICO0pv4yO0fx4yuxmtuOVlvVDJuo9bj1qtD1XpleaVeOaVYmV1arec7zVikN2K7aYBPAkAUExPaj+kCaKCgQFkxLWVBHSYpGOLCAIOmBIQygU2WK65VadSMsrhOoVE18o2KMWlF4pOOmRh2Is4Gy4xuMSxrOyzE8YYbmTWt6KxErML6iz6yECEP0zWFh12MBEIAWoy0DvO2D/zyY3ZDagCcclcjUuqy7FrPTGn0heLU17gRt6sKrafiVtPVRrWjWi8nYAXF4km4auBuiZhwuZgulBu8AF1c08Xj1hw1+Q/LAhA0LVhXcA016gAgaEtc11387fK8HMnnarD8rKopdt4Sa8Y2onnbMLNmw8xKxdjemRz4drVqjtfr1qREnOmI4eSffdFHQ5PtsNzQxR80BKDFy+yQ73HPbR9MiFHrAIgsNaOVU2tGaf3k7PhxM8WxfitVHQQAJSOmFYsYylEMcGHwCRMXQGM7cBVLFZMbk1yt6/AY4+8GAciG7pFW68Oy0EctszjXKs7VhHcbbia4mOALxxp/Y12r0nyjhmQBnDRAUWOqw85sVCK54kR9RybaNdyT6dsQtVO/qZath6quNeY27OxFl3wif1iuKzxo2xIIAahtUR36DX/z4/ck3Uily3TcUxt25ZLp0tiz85XJpUas0RNPRdOxZCRalSk1gbWfhWaVv8DlAgcxnM/ed9rMmr8NJ33ssGpA9Qb8zd458vwIRHqtfUem4YOj72MCQOkEAAWckVpaygUpVwrV2XrZmEyYHds6E/13NRr2z2uu+UjEsCcuvvhTQLlwORIlEALQEXhXfn3jO+Jwf6wUp7JuLLfrJU7aOsFJRVYYjvREzDKcx0VoMSW84CqRvNJ4OGENxNKpRai1QW0iIrUafbWeI7g+d7t18OrIWXxMUeBj+CfH64IGRyAFuNbrWntTa7wQNZOY3ak1OJhrUo9KoxatSDUyXivIVjfvPtTXveRHkUjsgYgZ23HBhZ8qHDlXHJ6JutehGI4cCfz0W++BuyPXa6WKZ1djsy+brU2uT3RGV4jldrn1krhuGROQ2o7K72MQHKk0vmbg30qaKfzb1yAQRcffiEKpiYw4lDehtWnmIECv03MOwwKzqlJmShFNLuYyRuCnUhmP6r2+zjkw0hE5XvfcubpV+K2RVcTrAiYBgG2x7bjYZrxuwhTLjs5u608vuduop79Vq8fuu/jS/zt5GK40POReJBAC0BHyaNzytXfYjVhxqRuf+sOiNfGihpOD1tPoiSVoRlU80MBkhD9Eazgwn7AuVz3wwOfaNPEASaXsmHMakBcO900cddkEnkj5sAKQNJAHCSDyl6aJ6IGNadI5DXTxgGj+9yIWcrWbKQKM9CttScuJviO3aru1WdlllJL3Z+yB62v15M2GnR6+/LJ/OlyhvyPkiTsyTiMEoCPgPtz05b+0GsnSumxk9B31xMz5nYPmSlcmbCdWFWo+6pdfRaq0M1YtXhJyw/OV7PMyPACat503yfe570HdgNe0MIeI4NgePkTgVJ8DIAIq3xOwKDOG+QHSRUucRsdkccJ8It7o/kE02vN1w0puuuKKzx5hhuhBFfQROfjcT88ReXrHxkk17MLxjVTxD52oXG4lrWXReFnKtYrU3JL2h+gKiJaJqk0wre20fN6ctK2T15tjhnZU68X/3t/3cP0O0fzDeTWvpeUUm6DUem6+duetVamZzmdqLipB28MkakRSEydGX5HRjXyhdVKoWTGrVirmZ76HrZ48Np6wI/cq9/DTc+Se7DPxzG6+5k0JNz75yrIz/TtGrLgsYuZRxYASKZhXyrnqJjG/EnqtzBVOMDo7itp84tKqHflg1SqspqZDc41agvfi34d94bkQhJi6452f5+Oaf2oeWCoNUCcuqoUyULLwAJkyapGZZcIfZEOOyG2M2JWkxMsnztRGX2nbxRfc8sM3ZQ775R/jJxAC0GF+AEyn0ls2J8+XaGEolqygSnMGMeWcdsTCOatApx731vhb137qV9N57E1IVT3hmWn+ROX2TVDyJ6+v+RwJt98/d0+bQ8nZnFa3h+tRxfmeOaoAiADmpR/wc0TC5mQGh7QVF8uCs7ual1o9K9FUPeU6xTUz5ZHn2nZ95WG+/cf84Y+EJ/CYvQk/ufYtqC+vrqhJodtyGlEnismlcnp0hKtSYRYeJhVDzH6oWf3tW86tQMJbic/V9v6L7719OTH9ydkgoPHFHJvDZX4p9PCuyz8f7xzVeXqhdV5r6zX5ANU0PSkDD2TVtbbISuiEd6FNMrKmzT0bX1sxI1WT0gD8R0tv/fF7DlMa+DH72M+78BCADuNzcMXrvtAwTGb8mm6tVq25LidIRKIxzpgafrVpWngOVeXv8X79m5NTb6dNGP/F7f2okacpqWts8RepzGJPU/KjZodFDr625p+PrwX5j6Wv6RE8/OtqvVZcu7oOH3SIJZ7WpEwygLiSYU0Bj2khLRMyRha1SnBEzpSrWEXC5bBJIHRCHzbR6wNbTmrENjKTbjlXrFbdhJh0nKJkAhMuliCjBSaQmkseACkth0l3mJQG66g8H8i8SJI/gb11c18fiFovur1o08ERE83IhSP7fimPz0x97Z9jy7n6DnfSGiktCTJR2hEXgpWWi2NXYXpVADpMZzAFMgZRgFNIOJ1Zw0iOXn7lJ44ER9jBEe9RMGoIQIf5Jpl214RZm36sVqofV680OuqRglWqzQCYXOnsSKEYs6z9zgyGMWGP+S3kDsPEayATWuC01hPOjyh7PiJsx3xE0vbUm1Gmue/8y6b1UmdCozfNd1tjAz0Ot1vsGuOq/fc8Pk2n5mnzhOZRf2iwwdnrM/M0mrnbxTA7OdW0KankopIzUeemasuY31SUTDoh2WxWSkVcAPFdokWjFN9l1jL31o3EzsN8+4/5w4cAFPAj8Ddv/j+Jv/viX7ed8p/KLM0aNfvGsjmxslCY6ovYZlcEE6rmTslUYVpS6bjUGgCZBsPyUUzoBJSGJH7r4SdBRXupWhfDQbIeEvJc0OxUK/iFRyKeZZkAMYBUa4TaAxOdGa05xMSOQN/SacRV0vSgdINrvgeloVSK0B7omoIG4QMQjrBHQOI5+EAFUiEFfIloAueG84EjJoKkQgcOYa75Hv9C4cPnvvaG7blfa1jdRTWqqpJHMiLPWTnnOR4yno1GTByzG9dILaiEGBrKUlCm0gDRom3WVFZ1dnIKRlZaklYG2dIdJavSM5Z0eu6MWF3fj0jndLu3/wNv/7t4uZhPmpYz8YkvfDjMH2pXcPvYLgSggATJYd71uk9EhneMnPa2V79v8+e+9old7Qx9+iV/Vn/ivq/tNOMrRqbKo+5kbqNUaybMr7gk0hVB8SmwACUYgjCyyQmISYuiMPDhkHpQCtUqJqMImAbFsKOY2LpmivUKLuuoMFn53nXhU8JkZm1YGfuQEwzvZLY0g3814NS4n1prpYqxpUTU9gBoThNqD4A0YI2M71IanKoYUWv8gxfXhKCkk1JAZBOUAE4MmfNloZaNqQi8RpufWzEFQATZOrK/SzhPJiFGrDLGQaY4UhfqjQJAMyeNKmrkcA0mGGdTiUEp5mwpzsQqttsxnXKWbIxL/w/F7tx0+gV/0hZtx7vf8EGnUKj056Zmjosn07fhSkIAaufhbmObEIDaEFK7m0xnc3GgRPr+ex98w5+8/N2f/tL1/wAHztMvOx77VcSJR8yega5l3e5EIjaakdFJ8OCUtkmhgkp3hJHtqClmHBMaWlCxPIHyglExQV5o2QmJdyShEQCQWHiKQs0KCL4qSGIE4aBiRp2YHAOQUHtgzRQcsFyrQk4UdPLU6D7xXUV+ag1NPlWTxcwcgJV3CV51lm8Uqc+1q3e+l4bv/ZfJgJafGIhxqRUpckRv0OKMFhFdwabJYlqWmID5R1FzmDBDuyUKYHWg7dBxjOp2aHx4D8Cyce61yiiuK6+AyQTK2fA2G5EUQCoiYJcF8GCfepcknMHKYOcJxYHE6geKs/bDlaqV3de98b+fmZ5tbNz01AtXrVqzs1yuMnToJWC1O0K43d4kEAJQgM9GueJWKpWa84tHfvCnS1auuuF1L3vXU9d+5x+f1snpRLsSqVTiFIl2nNghHYnoKoBKqlOGRx6S8ZmNmHxFaETTAJ1pqaAso4GEPdOCqQIfEWdgoYRSg3JFwOOMv/P4G9ujaFVTM0NTKEMzoAlFEACoqJgP7roqocLil4+phGuCAKJwBBWw0mtwgSqhUvzwpa/5UDPak0+IQKYTt2GKAYK4nw1Q4Rrk0c21vz9ByEJ+pW911WgvEhgBlOrc8LY8zagV/6aG5EgslpBEPCXgl4Y550o6CYBEqL1WdpE9DvBFYaoZicJb1im20QlNKSY9HWtkaf+65JLuE+pOrWPdtMx2zeYqbZEgvf533mEWiuUTf3nPry5bvvqE/wtC2VbOkwCfnmNzqBCAArzv1XojluzswAO6bNd1P7r+n1561e/+2Wtf+o6tX/neP+1VZbftdFc02fPiesMaiGDi8L/lvd3S0bFSZos75LGNd8D3M4bpPCHxaB45LCVoOFMyMb1TJrIjYka7lR+oUi4rzafBanncVQcTX2iywUdLsFEaCTUaOpMVIOA9X4RHBtQoB+5CRKI/CaigNBegF9cuo0gEJbU/tTE9XuuaSKLeq/HoFMbf3v78gvs1WLnOY9GHTJOMEXQfCAGQBLAIA1pc029sVqVYqMAXpT+LV+MSQ6ImWnNgDACtmwPApKW7a0ji8U6plWIAoxS+Q+WF2S9nnLJe0vEl0uEshz6VyiAev7ajq+eV5fLY5ifvujt/3Lnn7PUH4g0ve1+kkJ856ZHHHvmrvs5liWKp3MUi4HAJTgIhAAUnS/hXpFIoVszenuXx8YmxE37x23s/eMn6cz/y+pe/d/s1139yt1/OXY8+mXTs+IVAldPBb9zVgFlBOomIxKXDTkvGXiFDZ54qE+5G2bztPnlqyz0yMvY4/D7I6HUcsZM9ki8W4AEhLxAgA4StFoDHpG3iRY4YfvZro1Q8yQceggReSiNS9Bd88W9W1XtrRWdGpNBaiiY40wvBxPt/DkG875nD7X8Pu0kfHqCmCkd5jcoBzgYaDYHipqN8npbGNX1a6hxwiGgcphYoWuHFUoAUYVidQAph10sNAEu37NphyPDGrMTgjB/sXSrHrTpbVi0/S3rMVYrxkU57ERCvAdwbEWsokmhc0d1lPlnK7/za/bf9ZvKMy5+92715/cvfbxYK5c4ntu56y9apqbM6Mx1Z6J05AGqoAQU4Z0IAClCYsI0wUYzJ8YmsuWbd2T0bH7r3Bbff+5B1wTmnffItr/6bJ77wtb9rVoQ+8ou7aRB1R2Oxl2Jerca8VCoIaUfBb4zJzpTdpJTA2dxt90jPqpNlzfKLZePmB2XjlkdkYmK7FGa2SrRnGPMU9WPECWICTCbgoLoqOmLp0I1gTOVb4cRm0wv8rak74NouoeyDFK7UTjwqC83FowPyqiatuRAy5sJqvh9H8/NoaKLx1brQ76QXRrKU7qW3U4AGaIhBW/Gjcox0KYc4xyKEgW5tBmYn/lPnTo2IBGtQ2xDkEyfeJfWZ1ZI2Vkjf0qWyeuUpsmbV6ZKRIeyflCrkGDVIOasdXR6PkAPUPc7uzLyhO1fM56bz37/1upunnvP7VzbvzRte+X4rX6gP3f/E1r+dKmbPX3biqclNjzyaqzXM/A0//NRetdkgH6VjZawQgAK803U4XfIF2AB2DHPe7jrl2ZfJ9s0bn/v9W37a94LLLviXv3z9h36yesWS6pqVS8xyyU1Go/bvRdLJy3AKHf5pcHraBCN2iYDTxrb7ASjkc07gF71betaeKGetLUq2MCpTpSfkV498RXLVrZID6U0V0S1aCCZAR1kKMMEKOdaVccbTJ6RD2BGvglxbW0QCT92gTtLUcuh44X4ev453gq1Mis2/PX+SRpY5gFJshk19QX8+RyZGPQlgpQwgz57DNRsKfPmeGc4AGSuqHO406eBig6kJrmtExVKZDulMrZFnnfWH0pk4XnoS/ZAWtRykLTCYj3KOBJzz5JT2j6twTQFf3YJT/tTUQOZdQ5VKMjdb+uq3Pved6vadY4Xh0XHZNpK98q6Hn3i9JBLnrF17Zh/MMLd/yXIzXyhTlQqXACUQAlCAwqSZAZ3BNewE4sxRKcI3s+aUUwfv+8Wu9I23/GjpZRde8hUnav2/zs5MfvnKZStiXZ0vw+F7fbuGjlSV6wJNiooHmf5s1Ich3iUFcto4MThiM5hedemNDUpXYq2suuhCRcs6Ax/R2MQOGRndJDtHNsr45DaZKTJahiiZXQIoocIeIesIieDhyFYeGUxIC+dZx/i+9kOtY47UiwDFcJgPQhpEdqNz9XQC32yiRqM0LGXu+cDjm3la+1LshzTBirO0ylQY3jAYMiNoOFIp2XC8w2RqdCCU3i/9XctlaPkaGexfLX29S6Dl9OCsU9D8UlgnAVzQHJk6AJkxisZ8IyprCsxbFwVC2LbWiBTdxgndq5e+Y5VY1clc+dvu2NTSTbsmf+/W397zPEQCTjp55YoUmjVGjWi8mCtAfjY9/+ESpARCAApQmoYJlUP5P2gR0bFhIKSeNU69+NL0xK7Nq396x+1/tmNi53MTmdT3119+XtlIJk4iBvgKhBVbMFtgauQRpk5mMpKI8dedfldMMACUiUlmIjRdwUSkydSD3/2enrKc2JOT2skzgJFZfDItj22+Q0qVcZkt7JCp3E6ZzY0ilD+NyJoOXc+idylj7gQEsg8qtkVqUUwcVDaPOqoGnhbyeN0R1VMpOKd91UaZOrwibYopZzQjYB6PswYJDXJUj9JxJCoCqAk8ppmSdKpf+vqWS0/nKknGB2Tt0jMBuJ14pQE0GeXTaYiDF8L0AB1Q/fjWnwdkcze0jrILgwjkCZjHruFYFsL1/Dzu0MSVfrO3853DM9OrvnPbreds2LRz5dBxa/s6e4fSM7N5RN3QvRoXhF39Cw7wiQmHCgEowGfghhs/3LjyivfqycogDZ2lmIw7xkalI92VPv5Zz7Y3Pv5ox4c/8y9n37tpS/5973tP6uzThtT88Esi1VxR/8CccmrI4OX7nPqsjixndAZVjlyaKNUCfCExhLmUacWoMl/QktQkpe+kJOtXrcWaaStljEiHNV+gpgDZWQ1h/c07NiJ6VoQzuCT5wqzk83m8cup9FQl9Cig8qlMdmNdajT5PL5TlyVADj+/j8bpbKDMyiokck2QyJckEspKTSfXeQY7TYPcSOI9TSHgEyMISRakEQIa0I9TMeD3IccI1GTCt9Of6kSWYEBJqlRJkgM98DmmAGxo0ajOU7AIs5iAfNrKlTQiZaQHcT+2O9RNbJqKf+dznln//xh+/pbNnaeOM8y+ws7lKdAzlG2kEzZQTXrurmj73AB+ZY36oEIACfgSUydGo6wcWr0QmDfOpIdMF/JpakdjqE9c5DThrbr/vse5Lr3yp9aKrr5DX/6/XyBXPOVn5R/Io4kD5EiadKTMzk8h5wUSC9mAjXm0gR0drI8yXgXkWZ0sdPRF95YQO7LryH6EMgxMX3lr0hFd6GVIVMZ21w5nhbdcsSu/KZ+EdGhf6IKK+pf5G129dphHyZyaQUjQIOCoczyxk/V7XYOn5T3pYxrxY+aUBypBus0u95xXpz3WETB+P4ELAIcCQFUCnS/NvbmvgOkhJQiOU18PxlE8cx2rWsDu0VRGj5+cEF1S8I21TyShfREmGg/ovMwHwFRnelVP1dVGI7e67RuTr3/qW3HTbT6Snf8A689yLrUK5LlOzuAEgMct0QzOjPwxOb1wn/tTyCJdgJRACULDyJNUDntMKfqCRFRRxDLRJVjk1TiKBX/04TB/XyOWK0TpYDrv7M/LT394nP7z1Njnn7NPlrW/9U7n6yrOkwHkO0yiRGVD+nnIFWgnMgSjAxMFLeZro4yAVR411UGp+q5eqdFCaCJNp+PIAyluzzItfc64adEgrBzccu95mGuKoHxB2XOmxVukQuPqeM5+RKn04/bkGF39/lldwVA0wmh6DYEpY0X8T2nw9iY8fC0oZVtetdphn48Ao9bnmY9CemkurEeQnMwFweEENlGdUoA25QEPDJvDaiJIhIxo7F2g/4YQyfSm55WePyjXXfkU2PPaUdPcO4B6slhwSObPFnMRSaWSWd6ucJ4JXsZhHlA7mHoAWBbX4WVF6V7gEKIEQgAIUpprjzLRjaq5XcpAlcEBTYZnlZDYHvw28GelesTuiiOjkJdGTErsQkzsefkx++YY3y8olS+R5z71cXvo7L5T15xwH0IE+4KSR95NW07kGc0nVU1GLgXZg2gxLkwkQegXYbVTkiTk3vkrTAkCc1PPy6DAra0gIVuYbv6MmQ3Cas6QUzPg+II10rVoA/54fdtfv/YNrjUYtyiGtX82/GWhT/iZGu/S2/p4oXUPIHZ8Tf7zDkseHi4rkcSeVGMT9wA4A0Iki/8lXBr38SgQCRO5/aIfcfMvP5Be3/0aGd+6CJmlLqq8PbicELKEdJaFZFgFC+ZKLiGIW8oa2CaCPp6AFIfIGSUMFouOKOdnhEqQEQgAKUpocSzXeohOaZhieV0yWUhXlE/DbxBOM2AB4KgiPF5BQx/olo4ByL1sGV61UTqNSviTXff9Wuf6Gn0gcE+qNr3+tPOvsM/FaJZ1IaamDfqKMSYU5BPCBLQHKCUEhpvJ5q+nLSTw38XkM+o2ohejZqyEEEXtVkBpHnZmatf6ippiuHePLcLykxiYQtSCI+swDmKb/R5+DflEZZORtLvdIdTz1UQZDA66l2gJOBD+lxdmAbLyaJweepCY1R/OENWUtQ+3MeVJZ1RhrckbknvuH5eENT8q3bvie5FGOUsYdsRNR6VyyAuCCTG84+Ms4cD6HUhUXDn2ATiKNewPUy6PVKkpw4bdL4H4ovmnsQFuslVsg6Afn2BwvBKCg77uOUSutHfPETMHhSn8GzQvSg9ZqcJoiPyWdTsOH0yFT+W349UUNFzCEOS/UdhJGSllXNFz+7Zrr5dOf+ZJkUnG5+PxnyYtecKU867yzZHAIZh1ruuCcRdmlmvA1FKCqSngeUeX7MLLlKEcqWqlrTyq3xAy3QcPBSJCLMJDhNQXUM1+jlO7Rju39OdfUqHz1iMdpjdrNU5uIxAo7DJWV7RloyjOPC+NXqjYMSA1TiV+rTGgPblS5VVPZ8LqgeqoTz91SgEqDEOCDsagXIX1H7rzrIbntp7+W+x/eIDnQiJhw9kTjGZSlwA8EeZAZoALkrSGXyLAhOTQwRJI1HOBY4wRKJbIOIIUxlgSglWV8dAz+OJiUSqh1xhRCDSjg+RICUMACVfMUcwt+X4AQQAGOTZpjvk4QwU+8gXqtUnkWL4SEWd1tILyszAxmQgM4mIRHq4qf8Ze5G6lC+OjWO++X//rJzxSl6Jo1q2TduuPlRc+/VJYv75fjVq+UzgzNKT13OVuoTWh/C7l4PEygtsE/ab1gzRIOg7YXU4vnLRiIWhBVFLUAjhD+115gfZFK3ZhngXlveAIeYFShAanwPjtTUCNUCZLa1KK3SCVHesDjH555Sd4RtK7TcgyCzRSCgk9u2ibbto3KLbf9VjZv3iWbNm1SRbmo85IuvBhtKwLVq9B0aKEq5zj9Q8yqQrlLHSqTix8EmrNunYVm+AZ/K4wGWHN7B4WvJn14bsQFbxEM3BCAFjwkB/w2BKADFuH8AaB1qKnPjCClAfCpVSigfzzJUMjnmM5ftaDK29xLc0FVxU41h48+JnEi5YiD0HCxWJTRmbL89p4Nct03vi3JjrgMDQ2hDGGlnHziWjn9tHVy6qkny7KlqAj3fCyg9VGcPL4i43tz7BiJ4GmSwRUNK4OnT14e+rhVXRg1lNbFwyM/GbFc0mUfulsrXNAElxbAgJLRXHxHM/OLCErcTru7PVFQZBif74l7lNvoeE1Gdk3Ik09ulCeefEo2b2Wy5ZhMTk4ip6kCR/JSuPsjku5DwSm1I3bA4P4oAaG7vNUXpn8c9MmZTQpbfXReFk08FAU3z1f9aJBRsg4uAOAVTjvUgOY/DQf8LgSgAxbh3AC//5IPRCampvTz3OpXCeAYPjiwtiuVSuHXvozkwqKccNY5cCQXQMVRkvsfeVzueehh+c9vXI9M4gLYEQty/vpnQTNKy5Klg6iVWiHHQXNasWK59MMJm0oZcMCqmQdNC9oBHUtYCI1Iyta91glanonE73xTyUeyCKJE/gQmmPhhIv/yK0ADjsHUJd3HXkfB/Dwc+n/gp5ex0QnZOjwsW7dsl23DO2R017jkcH33PfAgeI/i8AfB0cw2zYqWEblF0aR0p3plJluQKEwo5hURACknJjoSSKOg7ODfgSzwRIcaUCCSnDdICEABynQB6gQCQazvIujQZ0LQ4YuTja9o3JEcNBCQZMGxDYc27CwUt0oUfoskfC0unN+bhyektmVEanc/qMLUVSCCKhCFCUI/SkdHh/R0d8qK5atk1eoVsnTJcunq7pA4/CAmnLVDg0vVmmRgXKOTBHJrECqHA5xrndVM3xZ9XBVF+s41SyJIijY2NqHW4EkCN/OUjIyMwnTaItu375BJgHU2O6siWvTrmCQag8lpkdkRHmWafFasC34x5ArhvQt/lNKiaFSC6YzbZTqR2QSOEcrFp2wlEKlo4G41I/t9sxUjiU4ND5cgJRACUJDS9FUE3/USwNj+LzknVaGALGYACF/qlx4qSgrggeJXqCxwoBIAFKzArMOENU1oBaQ4hc+IJPcOyX+8SnOafRybGc+TBSRKPj4s9z++VZUqlEG+Uy4xSofj4D2Bx4IzmyF8RtMIPCQFi8Zs1GsyYY8ghOwk5QSn5qTX/ucsfaCWguJbDSyqtgzvMzFZ1rtSOenV/lQclXOa2cuE84h09aPIBNO+AmAjoLoGxsb3FZpKUJ9wVjgWSct05T7B2teECN40yQJZKNbQBxSIKFsHCejuBH5eR+eAvsthYUDoAK6Gmo6iWyX/jTfJOMGURoT4c25kF3JgWKgKfiBoLUxC1BzQ5HYGSyDKNZRfR9FwINuYfhdoLRUyHTLD2slobcE7R5azxaPQgMhigWNov46uEdPjAswwqQk8rJNqR8vw68R4jAozqQkunnZSKc05v+mQJsTpNcwtrEjZSgoRRtMcXB+NRJ4D5VGg1uPlDvEcufh1ZnzP8+R2QSye+RVqQEEIs2WMEIACFqjn9Qz0QaXGw19zTqZWQFDAE4+joBLfwQSrQGvhwslns6Ie2kYRtR0KPEh1oUoZ2IoPSEkwo7ZBkFGf65c/iQk2Ku2FOTwofOV11aFBMd+mAUYwJHSrMLjlkZ/5gLJwzXPn+fgv3zTS42vXr1Ycffc4cxj03wSgWNRSphc7dVAr4z4ci/4dB76wOvJ0uLVOc5gDaZ/cPojbq4OJPodkECOGY/gSCAEo4GdhXgZyAGPT7PK7RVDL8bUQXxuqIMxdBQC58LH4JggjUaq7BUApjlwYlVJDjUfxO3vRKmpDMI2UOUdnM53OXlsctGvV6QEwvUoAsBrqrSyAFIvWYe2oHBrVtx7AxLzLOgGMUXnFBe2nAOguGnFE2fy2PjVoP5pLmoYcNTJNn6EASGk+7OulkgZ0CyDMe0b8WERK4KRxpq4VppeLmjdSUMbpH/NyhigfH0BpWs7OziqHfSCLzhUI9IclkPM6ygcJASjwGxiso5K/5P6k8k/V1xYUxQVqoFQdvEd8Y1BF4QuL6rEFdFF1WL5ZqNIDqMbAnGJaDic6o1z4WLMOeiaS6pzB5EiYQiQXYVQJf6s0R6VywOlN0MB2ilHR85AopcZLPWjljFY6hJ7EOu/Hm8q6RkyDjXJP8fggv9A6UF0cRWiNL0g2j08tlZntLcjXKeP65nQn/bnvN6OWFOQS4k+Q0tRjhQAUqEw9J9DCGRHoMeYGo9vW3K06gBChNZJmBt9eKgj8dB29h/awLlzzGPpzaiDUTvz3cxX2qks0NRtut4j1QrE004ea2ddUq7RmpjUnXu+ehDkvG/IgSZsF8aECFLRwQwAKWqKe+yLoYfc2ngKaFhpUtZ2nZcwZDK0TdPdcOtWJwgOPhWsVk1Lfk1Rew5F+T81KczhzdLXfItf6mjyVqfl3y5V6QETQ0+MvOHev/fTBl7UGnhCAgpd0CEABy1QVFgTtCHrac2Rr4/lT2f+d9kq/8GXrxN2LtuDjwMJ1K5opcG1FNzqpvbF9rW8R6zl94ukBsnn5ZFtsxSf196HQfgJ+SMLhmhIIASjQh0FNzkOop+vJpwm/tPPXYB2+Wmvn8L4Xr0TE33/BmgDD8RiZ0i//vV6r48IHtKdGhXPn4Z/PgvUewWPP5zw3fjvXtO+r3o8t4B47hLd2P07waNwlBKCA75qak4fIB6Qmv1eR7ms7rOrmwroBH5TmLnH3CaRq01Shk95q4Rr1sfpzrySDa/+9cjL77/ey/97GbZ7fHkFoToDal4WM6+b4Xthefe45v4P1++/2RGhPVLgcDAmEABSwVA+l9aWJTeEZmafpeMWV3oRVnETNZe5vrZ0w4sTI1961Cn8PHRz3Gg6qqe+x86jj7J9WwlnNF8PyGmj8ZW48X7ubwxjvO3VcOqWDSTTc12PA2GCIQ/uS0uK/378nZ/HHOYb20DP/UClBvhm0WAHrCX+gZ4nHxwev/VgT+OjYBteYJjdUr/mPZKs/yyOGf9pL9UGNGlPry/9cj0dY9V96ON9ynu/obpFPa6bkYoUdbr9XCYQaUJAPB59X/TrQmd3WWWma971oAM2Z2zrUflgS3i5+pKyZv4PPFYjtB/CoM/IcyiZsOgpLDUWTTlHZcu2f64Jq9qa2RPBiDhLzEUFNi2LWGLLC2bSQDJQu69/wt0/jWkUhbh38PypDnFE1DM88IbLnMrO6UmE2Jss/kHAJMjPmX7HWraazy/3T2w8BtnUrj9mNQgAK+NYfEuRpOeeD7fP2r2cOW32NYS63cX9ByID6pjqp0bgh6HjX1cxHWphegO81nxL30VsTLJgBzXqxIv4uuwVV1EoOkKoiuq9JBuyTU+MT0tvTo/KmWBe3c/s2GRwcRFU/Ey2VIajI6MleRkDiZ8xCdzRJ2aG+rQE/lUfucKEJFuC9aZ2sAQ77jB5KR9h0BG++v4qXzceTAKDXc5lGvqRZlEuOIDAcVgA4JWRLuzY4jjISAw0rmzgmrISM75yQKJgBOpOdkp/KSyVfloEe9GPDQUdGRkBuNqE4i6gRsZ6sUkV3jd15hBYw/T+jb8shu7hQAwpY1IfSCR3wqR/64UjLoVMbFfhoh/QcICnb52l0D5qAUVCR0NRSNWReMS3J9qkhWSgTKUxPS1cyDrpVU0a2bpH+7i7JzWYljo6s3aAy6e5JypZtWxXoOKScpWPbq6RnoW0DzRlVHngExSihHyjwZyQEoCBFquyhEILaFamfJ+RrPvPBxzMud/O6+LE/nY1NLqBGFZQhpJGFFlMGDzQLbG1U0XelwaSIotvJ8THp6OkC+21ZxoafAo/21fKud74KfcDQoPDhovzz578gDz70GDrEgp4E7IsxFPCyk4fiM2peDO5rW3lV7V59uB0lEAJQgM+B+rEOvQWLkijolptqTtMU28sITBtQiQee/4cA1JWJo2njNLrPVlTPdwvFqy5aFVXwvqHoquvocmHL2M4Nsv688+SMU06RN77hJYorG1RDcsa6OLSgDGhFQGYGojX2HqT55ZKYHoCmfBTK76R6roV3d1F3d98bhwC0bxm1vwV/JNvfOtzSk0DDi3jplII5Cfotn/VmVC5hrDFkr6JYuhZteHgzerhHZTk4r1etWgFq2SFFKRuNgtoVGy8ZGpDeri5FO9vdEZMf/c9PpYxuhTF0EEmASDKPYUulIvrVg6ExnpTZGdCPIKpWV8RpKOptOvZ008dwCVYCIQAFKE9N6BfqQYsRqW6gxsUvK/HgBmL0I/E63UCDju5xr9+b6If2lje/Vs45a52cecZKLwMCkTHSiDBzuzmqbouUL8xIdmqbPP7EPbLu5FPQqFB3m9XkaOiehogZQYbhfDJK0pTzF31rQwBazL1tZ9sQgNqRUpvbqIrx0AhrU1p6MzWpPcL9CjQPB0TzbNpIRzBZIMvQTgg2bFtGeued27bBR2PKX7ztbfK8550vgz0AFphSfoyMfpwYTLFCiX3dkecDHxF7f5XgZM5A5fmDV/6efO1rX5MnNzwmL37FH6EvvCkTExOKvCzKVtB2UhH+j6L1TyaTQR5QwT/REIAWdWfb2zgMw7cnp7a2UmGS8FeyLVlxIzp4CTKKZxotgZLoIsvJz/fscuECkLo70dkUfiLbQhvl7LichmaMX7n2X+Wlv6PBZ2ZWBG4g1WoajU3RCJJEaQArOowBbA6ZHfFJDX3fv/ilf5epbE5e/opXo4Fhn1x80eXyH1++Tnbu3ImoWFK9eOxcLqe0It1l1sMfDZZhImLbd7e9DUMAak9O7W0VJgK1J6eWrXQTRAvhdEdiaL9jMoEQpk+piA4g0D7Gdm4HK2OjnJscmzlh5ZLpf/vCR2XdiWloN7rJahx0kOwydM2/XSdXX/kSWbPyePned/8HAITQOzqgVqtU8i354Y9+AR7rpAxvnwXIJeR5z3+BfOrTX5Lrv/19aD851bXDQhNGRr8qFZ1Z3UJozzsLMoDQBFv0Dd7HDqEJFqBElQkWPqRtS1T5aJh1TMJ7j1SePemjACQTvqEq+p11d6Rnc6Mj4+vWrNj5z5/58GCHI7uqeYlkEpKGfhJHy57E37znU9Vrv3JtYsVQ/2xXpjeFJsrTCHx153OIgCUNuenm22XFyuPQL21KVq1di84cMNvQDLFUNRE9q0pnz6BqeFgFhzbbBpFkzYLNx/5piqYWGhhvawg/bd/atjcMAahtUe17Q/WQhoGwfQuqZYtKuaZrtthGCFnIMfhtkmj5U4fmki3ki9nhXSOnr139qw+89y8fTzfMJU5RapbbMCMFiUeq1fRN//XT1Gc/89H1p6w5a3Tjw4+ayXh0x/p1Zz4xM1Fan+mJ9T+1aVSS8ClNTufQ2hrRsaQu+UCitLztL94pA8tXSzLVKdmZPEy+GnxAZNhm9AtJiGTqh3Oa1hc94ge77GVRgnuGbBwCUIA3UmOP54oOcNxn8lBzLXug9bB9D0wwF50+ysVCrZIrZu1C8ak3vf6P/ztlGROFbBmphPWN1RJ6deRmOnK52amUGUm894/f+qLh7TtOv+qcs+8+/ZST7xh7cutMZ3ztn0vKekG1lEsMDA0siUSnDdNJCKozJAen9Qc++Gm09UlDA4OZBs1HtXyG9qU6vCIHiB0+TGY2qpIMFXlrpxj/mXyrDsq1hQAUpFhDNX3R0rQBAA3k3LCVkIPOqTWATzaXlUilkutLJDf/6Vv/5Cc9KeeRetWdKrgFpj3nsI1brdZGqxUyIZkzp5227ksrl6+MmpGInc50ZMfHpqzSXY/+bSzhfGfn9MjVPWuWXoK0xOOXLhscoJb6vg99TH75699Kf/8KFWovw/wzrZhi/KEWRj8QTcIIz2vuikLretF3d987hAC0bxm1vcWh54Nu+9QOyoY+x47PSeSTijFX5+mWZn0XEv1KABz2jXfQbicFz3LdLUutmK13GMbISUtX/HD1QMc38JAWkZmcR4SqsvbsodZIFP9msRYX3ZVRL5UfX3uTNVso3mObyYcyZuftx5049A/bZ930y179ttj2HaNGz9CQFMuopDdSAjxDASvrvtj2mZ1ho14L7DKc3Mr68pbQCxT0gxQCUMASPZYeUQJPTZU+aEIvAhDLJHy+nYUdO1StF+St1zpTsIo3LgpFq0gCJLeRBedOX8oYs6dn7n/F7zz/i3ErUrTMRmnt2f2tALPPu/a8111VuO6fv2vBmIrUtuzc8D93btr179/69tKxmWmjb8kg2qUhrF+aFSvO7rIWjo8CVmhhNl4VmGBUfRwTjQ4b+rBhgsU+Rb5fG4QAtF9i2/NOxxL4+BIg+Oguptq5q2TgawzsdKpKvfjBnHS0M0Wz/rArq8r/cRqSnd4lQ52x2SfvvHfk/X/+V1+OW/WcYxvVE5+9fFHgw1O49u+vM3aNT0SzZffUa278xfsfGR49dWjlqtTSzgEpVwuqmWIq3QUE1Veiq8w01ezc4l0IATbsShjgTJkbKgSggyJWzaB3cIY+skbVZRG6bEKxJs4zkNjvVE9rFnT6xabNVmD4jOH2JDKUd+3YJOmY4W585LHpl1394q8vHey5PZFMNE677PhFgw+POD41aW/ZvuOCG2/71buTQ2tOHliytAdAGYmCcsNyklKs5JW/x2yDz1oRAXna25El/aP/bMJExIN0D48F9NEmVwv4KJ2G79mZdY5EDIUUHnG+5pBWBGMN/duXQNh9JjspiXhUclNTMx2x1P0XXXTh1zKZTlBq2PsFPp/50DXR0cmpE37z4INvdLq6Tuoe7OszbStSRl4RNTFGuir4O5nILO7uq0BYuAQpgRCAgpQmxzoWkKdFZvT5kObUX88Xp9+xQ4ORJh7ziez1XI6iBCM/OyUD3V2z8EiP/K8/es034radR0lG8czLT9qvlhfQfuT+Rx993XixcPZxp5zSuWtiMprLF1RtVx6FY4VCSRKJFEL9LDZtawqEwBP0PPHGa0v6B+nYz+RhjwkY0u2ZPQBSmo9vgvmAQ7tF95TXAW39vtUfVCnlZLC3s/bAnb+dfuHlV3xrWV/PzYlkqn7elSfPlaIv4kn55Pu/6IxOTFz6xPC2Z/UuW963cdtwmtpUb2+/lBFtq8DsiqLgFexkoOFY1CHCxoSLuA/tbhr6gNqVVDvbsc8WVaBjqIOm9i/rBoE+YTxF5Xdzb4rN757Rokug+AHFozlJ2uZYXzxx39mnnXJdMhYr2baVa0fce9omXyhE7nrggdem+/pXRhOZjngHaA8jUdkO7meS1A8tWwoTrCIzM1mQ1PdKqdDGobwMU91FLVyClEAIQEFKs9UEOyZ0IK81T+t16yB807RRLmrIws8V0k5qnSeEdD9EoSrZJx95bPi9b3/Hv2TsyM54zMlf8LyT9kt6n/3YV2M7xsbWFVw5rlio9jlIYq6gqLWBVKG+gX6V7ZzNZhX5fHdnj0yDLzqmSi+ePm/Je0RAR7RfpxX0E/aMGi80wYK9nbqBptdHKtihj9DRvFC7f3atjRIJPqS3YNscE8hTZ60XEv5sFnrWyoIc6GJ2x/DYy5/3wm92x5xHU8lE8dIXrWsLDfao/RRLxsjoxHOKEhlcuvK4KEg8EPGKioEMa9J7kBOI4MOF5lcMhPZtqjS0HdmCo83Nj9B7dQSeVghAQd4UZYIde8t8SlXt5vFbKidQWFoqFxTPjwPgmZ4aR24fO1A0GhM7tk8v7+i6/bSTTvxhX3fH2FUvP9fPat4vIeZLRXvnxPRZTiKTqAEJFQB6eUpseKgXj39xcTdKqXS4u+F82a87s/edQoEGLFBqQMeQC2g36fmZztSE+JoBYXwPGgKOj42At6ckKfBk5LNT4tRqE/Xp6S0vvvr5/znQndkMTuZFeYQXHvjzn/x2BDSqzqNPbFzmRJO2W9cROPad95OyVPcNBUQahCLYpr1FtztBs8J2d2hv2HCr9mKQoZwWLQF6ohe909G4gwYaxMO8ANecCaYnOlsc70AX0j7046pWCsi9iUpHzCoPP7Eh//pX/cF3j18xdGdXZ4d56UvPPiCBAXzQuMuKT8/mUhErGnXVHfAINOYaz+OcfH7p9qXtpSHSmRWaYO2Lra0tQyd0W2IKN9qbBHyNZ16msIqMeWF5TP5EMopuE5MyONCL7qUzMjm2o/aKl7zwwcsuOOubBrSWi19y5viBSrhScw20Z16WSGdiEcuJ1Q0mPwKAfNMrgip3BXFUYnSNu18+0uaxqQGFANSmsNrdLASgdiXV7nZzv+MH9Ive7uEO53Z+P3c1LalxqDWRR4MPJz+5dTLQegozZZhek5KfmZArLr0w+863/9F92eHpKvpwHZDp5V9/sVSycsXSKV39PTEkOyJwDqZF6mCeycXYXNPjzEztxQlO61ChCbY4qbWx9SLvQxsjHsObeGSIvsvhmJAEDRp1wS26gW+OUQBxlFg8/sRjcuIJa0CxWpDzn32ufPYz7+7p7cgsz6TjUYTdvbYTByauQqkU2bZjx7m2E0+S2IzkPZrAh9k7IJhnNWmzz4/vB1pUwM1nGzmwEw33nieBUAM66h+IhZOond8Ulk60Xvie92kNqe8mJhXq8uu9fIOGa+Q8K3UBfMrQOvJTM3LqCavkkfvvkNe/5lXyjre/XMyaTFI5AX1qNVJnPfyBL+ALcrZs3TpUi2WcOADIVQDEccnnQ+oPHkZThszlIrUjq+a5eaSIB36u4QhzEljUHQgF9/QS0GSsh9JNQLMC5VL+S0V39MsvFDWAIs2/vZot1m2hJFO9mKhXr1a8TqPMGESDPrTDaYCjmYyAddCVsrVNlNw4YICvopwBI6quEeweWsb32Bx5PczzcZF54wpoNCSO5D+zPC2V6WEZTJvyqY+8X97z5y8XJOcgCceNWI1qPuYY1oqzlx0wAH3yf3+ZOOZsHR7pRo94dGc2pZjTHM/62nVxbATlF37VvgIiT05tPNfqxoaZ0G1IapGbhBrQIgW2z821C+QQLr4q03pU73fFt4vm9zied26diE7V0EqU/bkUDSkmLyNXSsFBPgH/LgNhmFAIwmb0S7cUgyHfx9FBVNBZoorSBgIXcgxVR1JQGuLzgpj1srzpdX8oV1x8gZxz5gqlGVXRn8tOmGCHN/uixRoo4g98wbmbYDc82Y46GcOIOJSEzzXNlIhGBGRjBCCPg0hpRNSNfL9Ve6cAH1B7G4ZbtS+BEIDal9U+tzw8pMGeB3jB2alyCFaeq8WjCmu+11oBTazRSfAvgwje789lgi+H0SMuBCAHeTv1UgkAxe4V2M4hX3IEpF4ldBQdl+6ejNKiHNsCrakto7t2Sik3Lc+9/GJ5zat+X844dbmk0IGCjiIoSBIh0bsOQDmWY9mlrTkztiKlWk/s71KplM3x8clzYuDXQJsfNvdS10MQqvGg3rLQiRPGtPZX4sHtFwJQcLJUIx1aE8w/+VZ/jJ+u4mtB9H/o7chCqH/1NfioKBHAx0F5Al9cyiBpr7HNKFECwaR8nk37ohIDaZgaA6AUjVngTU7gc0xwFJMm7IYU8pNSrDnyoqsuk99H++N1J2ZUsJtnUUQPrkohL12dSbHAsQwEIyYmUZORchroHggL7kBuQ7laiWzatvXcZEdHQqCh6XOHxuNpLLz8VqK0p1EI934aSCoKNaADuUt73jcEoABluiAKdkgUdsPL5m06jNXPOiNTHgC1aD2KBFUlDmofEfeB1qCiRS78QmriQkOJWqif4gTGrE0lO2V2Oou+WWPYF94ffM4OFhFEzx0zBi6fCTlu7XK57HevludecbmsWRVXR2a3UrJdAKuQfIj2yaBdVeCnkpHroCU0O2GvnRJxGxuweWl/b8O//N3XAD47l4xMjg/2H3eiXYfW4y918Ez7PjG/Yn9/j3NIbub+ntxRvF8IQEfxzZsj09L8yvPJtVrjC9R49DYISKsr1qFylo00YBppjYf+nigcOQY+h1mDsHlZxqHZ8H03lQvA2i7QWuTzs7LkjDPkikueLS97yZVoh9wvGbBelAEjzOpB7SnGAtshdRvMXNPLC1JWIYtSDTQWdCv9AL7zxTIeaIwjHagRmTb7rEVrQvD/OIVy6SKoY0PQ4uIVYBvzBVVfd3W81px0X05hTvOR8tiHABTgndCR30Prgtaaz0Lwae+iwC8B2lPlsoVmUoOfJy+5Qln97UATcqBNjE/tUj4eo7dbLrjgfLnyz98gZ555pqxc3iHAJJCt6t59xLc0rDR0upHpyRxMNAdk847SuEiBqsaklxqnWscObqPWH3Wcc3CgN6Nb4K1GrXFvfdKdAHDMuvVGIdoPlvp9LN/84o8iW4d3RB/fvPlqJ5Xshl4XA5ABgFoDa7Sd9sB72OQnah/zDu2d3dfVPzO+DwEo0PvYEgLb5/QJ9MB6MM/80m/mR7dVJrB6Kc+P3iRSldLsLCgyNAAVUCRaQPi6uzMtJx1/qpx4/Gq59JJL5JSTj5e1qzo137N32srMwjD0KWN3tVSrDQCSK/3dUIe8pQS1KAYwgltYaVsVOK+paVnRWAI4sQpwEUeT5RU498sAFBvNcuR+s1rb6I6XJ1DfNekMxJu0rFvv326sOEOH7X/23TuMHbtG7Vojkn7wiQ1r+lcfH2e0zmsKhC1IeA/TUl0ndmmCEpMS2XrZk9JiUCXszRz4QxsCUMAiVQ7PgMd8uuGSqYxHsmWD67gAs6kmnZ0AC/hqGFqnf4e+EGoFNH8Msw6NhdpOGX6gskxs2SBLlg3JeeedLc95zmVy4fkXyOpVPRIDqHCm04ryr2khABGR9LVqQEMQTE38VvCjJtSsPsfGDvh5uJC4BBUTGezKlqQ9+Gg1UOF0SUQuhEY2gvylXUaltq0xXRqrFMulaq2xFa3i3c13b5rK5YszExMzcFRF6sOT42/uXbGyt9ZoROOI4LHNchTpAcTiSqWE66XjaU8S9E3U9jWgQ3tnD+FDdBgPFQJQkMLXM/WQ6j5k9aO/g6+uri6VDDg5Oalazgz09slsbkbi8AQ3Gq7E4jZAwpQdO3bh+6qcjAzlr/7bP8iSgS5ZtqxPbMxJH2S0K1tPuTng8bUqahR7Edxi0TcSIUJ1Y8AOvAYAVuATq+ehvuQlhi6FjlmwkykXxlwuUU5NlPKlu63R7K+qNXd0tlZx73n44WfnK+Wu3v5ex7QcqZUArAReOsq9UgwFgItM+ll4dcplFuSzEo6lJBACUIAPgn5AD+1jSrMm3dkBjuMZsPwVEbVKovo8DjCJwAcDrSiHJEI4kyOGK9s37YKGlJfnXnm5vO2tb5ZLzz9ePQA+yPhn71aRDd3QWpNmEGwx3Qg8TXIv3/e0P9fsHZXjqTGRAYlTxhrJiZFeT5QN0vpAVyLi1SRhFGC5XZi27BdZHbG7hvPl2ce3bFmT6BuKowZMmV9MlFTkhczk5rAq7OYdQw2q0xR0A8LFJWED0A7pj0uAj+YRO1QIQEHemmb9kRr0oD+sau4CaPyMZR1OB3CwlAJ3dnTXDkyziqQTcZlE0uCpJ66Qv/qLt8qLX4Tgk3fdXDfq8AUhZo4aBsVcaDJXRzmmufZNFE/raYKPLzj6vTip94S9i5vg82+FYpeMNAhM0GdwFjTw4jitHjNh9yesxNDPf/ubRrILqZC9fXEXoMKkQwKmidKRGsJxuvvqPm6FV73fxmMAHNwfoG1j5GN4kxCAjvKbn0glZRodHhhhyiTTkpuZRg1UCWHxjKTirIGyZHTnNrnqikvlve/+SzlhbTdVCphqSCgE0BgwzchekYzDFQNfUQ2+IQIawUzlAjWJK3yHj59fROTywGcf5BZ7RuL2wclFYWsE+YochxE3KxbpGJ0yem+67TarZ2AgEYkl0GgQXzRYRgIzDOYnTVIbMuHfc8vcmfj2VJuQorCeZthR/rgccacfAlDAt0T9SB5CW4wRJZ3JbMnU9AQyk0syAArUBhzMU5MTsnP7Rrn2S5+TV73icpWZTIvEJpG8hUJNnChrulDAqRzUEYTdDVQy+AC0T9F4SY6+8qPW8zShltbMexysNVepdQN/nhOkWGuGMhBcpzLacBH89oGHH81M5wuJdAokPTC3QEgG7cdRwFMsFpWvS/mA5nFBLzze3o6/tytvE672KbhwA18CIQAF+Swo2irO8iAHffqxsvD9mAg/JeH7KeRm1bqKjhM7Nj8py4Z65f777pbOBADGw0XLQOFppQjwqaHIFE36Eh3NxD3+xHNKwuyBFgU/kNIidNTKX1ovrXU6qgxrAsQe52jrRNeaj9Ks2pQTa7r8kD/3nZgQ+cF//yjV0dEJNAXo4MQVBStMxpqK+CEdAKBaQVkJkyC5PC21SDu3i6XwIf60I6lFbbPYn4BFDX5sbkz7BSaAUgVazAxSQiBLV02+BRNv3/PQz+FZuGbGsSNT45MyMTYOzUZgdjkyNrJNhvo75Jtfv1ZWL43JYB8KTJHsXFW90TlnEVOCSyUaT+tbxJkF1UJlEDM8jvemZSvw8X3E/lpNZu/Gtn5HT5Eykbzv92RgcfQ5BbFlkN0eFD+UqB9P23CQYV1FDpE+xhObtsuPfvILSWT63HSmW7X9odPZxUXSeU5tMIpWPCUU0WrOIt/N3oognizb8Ct7zU5aRXBsPtoH4apDDShQoeK3FzOB9A/I//XUf5g18E3oRRdItlZlu8wM5vz3UcgzGfx5QT8Mf9H97/m3v7iYjtViA62NB+F4LqO0ypTcxIhkonW54ZvXyLoTupTZpZoiqxwd/KN2x3kAYLg0YVJhkJ7we9Ny/OP6U9rfl9qJt6vahGadyrJGGx46uE2cF0s7eKE0GY0IHjuvRqKUn5FYKqU6iYBWVeJo4+NHqFTbZ1UAgjOHaQjfskyDP/Hjn/q8DK46rTYyNWNlGrqMLBkDNQiv0zvJYqmg6EJ06UmrtkVfFrOjF912PnRCN5+84P4INaDgZOlNXerqNVgYqL5SD7onYoalPGIsNVHULJ/TE/w2Nn7rqSaVTwvgNKhf+K1l4DwmKKXjCZmdmlR+HRK+i1uU227+ASJeA8qcYvdREo+pY/nI0qq6qOtvye9p473m1Zmb7AtNExsmE6k7OK4CI/wVZYNAOrXpAVckPRRXA+CTAHiWSOHsgQ/KOZTj2A/xI6EQmhuUGpheroyMVuWxDU/J2PSs1dHTpxzPmuvHOx/N3txyV/1x5sbTJ+9v144zvKn87FtZDfR5euYPFgJQkPdYzwL9I7zXHoXzH3hNi0GTQ79UixtVNKor2tVL0Wfoz/hiyFlXu9cROndhdlmgw5jGRC7Kd274pqxcmpRcjn4eno6Xw6NKEVpAqMUWmhvZP0J7a44HHjKxPL8X//a1I9aC0icTtdGYkGXx+IZ+mQh4gwBLHpDqiU2ncevCLqZ60Y8nzSliVk+PKX/6xjeW+7oyM10dyUZnOn2o8j5D8yvIebLg5+EgDX2MDjvPUem/WYjzTI7zgKjJq9y6jUYH33HKiaw7wszvDkyNaGZ6TNB0Qoozu+QTH/+QrF7RqxAwASIxOpq1V4bmICe9N/F5a7xTm9NmfK2m/bUCLgMhcp4ZNAoEnnTDG3V5DFeZaIlcRWY2NDNkFKJv19xDwQp8gCd3TgBIfC2MM135dLxPuL8aEh985ZpvT48Pbx0Bt1ChuzNTzk6zm087GkxQz2LICBSUJP1xQg0oWIl61fCYjs0WDHs7wJyp0Krp+H/7zlPl1FVaEieh1nxoVNGwIUNWV8aRydFN8u53vk3OOeMk6UAecQ0hobqL7Od5LuEWB/a8ZEKOpn/g92dN/lNUncEJjBIIz8nsguKVYEQr7KYf34YkyKziIPPrQRny15YpP6TapMG1CD8Rz5I09XlPK6LZ5uJ6dmwbrv3XV7/62Efe9Z5XT+/aOTm8dRM8zhqcDtFybPbdPsjCDQEoUAFjIjFfXyfxYj7T+dmiEvltgZsRMk8TWuB4XvirTsezcj5jO5Wj43kiqL0UcxOyammP/PGrflfWLE9D4wBfM9rfJJETU67StPFMMLXm8XzdokULUzLwz3Oxa01u7yL7mnsqGh4vM5pk9dd/+3sAHriSIQomBZYALKptF9IBXNUSTPuD8sUSIm866mYjrcBlOQX+Zv4PWRo/8u6/3vLxD3/0h2tW9ZVOO/WkyahtINWZfrBDpgGFZligc0UPFgJQgEL128Dscch54NPayYKAQi2k9aX1HINggxmtNQtMNDhZdCcHdqxgpKkKCo0x+cw/fgyFpyg/qNQlBW9tGjYZt4vafg6PH4b2bve8WPjCMPVi3hNwdKmGjUp0LlRoqP0QPe6/9zGZBpvi4OAShW8GomIuEcoHQ65ZuwUPNJqZqoqOiSxAk2YZrmECIa8nntiS/8s3vu3uP3/rOz8GQH9LxLBe8cLnPe+WqYmRsmO3EUMP5v7q34C2M5eCOeixMEoIQIHeZaU9wPhSk3gvERNf69GZM/TT0FQy+WuOtX7pz/zWOVzzM35nMnyMlwYsV675t8/J+nNPUXMabW7U5GY30iK0Bm1coRJeVX7xpeNiypc078Vt+Nni1hyLIXjFvaPC+lh7+IW6WLnjzrtl7Zrjpa8PoXVsZ0LzSSDMzsXF9Zpo9aPVChwbO2bzdbnj7gekhG0LuMyf3PbL0nPOv2z4uRe/5OMzk4WbpiYLXbmZytrjVy+7yWw0JqFBQe06lBpQ6AMKdLqEGlDQ4tRKgPoJV2aYgczktOLpYVauA9OiUMgprcGFEzYGUndiRjWfRZgZ2gtoMxyYJg44e8ArgegSShCg5URZOlFnVm8VDmdDdmx9EjO4JJ/51CfkeVc+24MUF+UIJSkg/6WBvBvHSQKEGG9ipy5oR82XD2XaPY0OO8rn0qqX8H0RgahcoQozjmAx/3v/vYJKJDKhFSGuR3uQCshLIigxLedHP75JXvqy31XvyxXkLPGAUBNn8nnlVAeHDz6wATw66nXrz38tf/zGP5XvfP+nsnO0JG9927tyf/bmv/4yykPu3DU2U1//u8+KTU7kEtnpkvlHr/yDu7du3BhIW+d2ngLvjoZh+HaEtYhtwkTERQhr35sq24bAo8CHC0nBGNUZHOyXRx59UE5cuwo1W6MgDUsqIjGaLrZJZsIJKbAYFH4S9tliA0B6bbl/JwiX+Xl2akpOPPlkedc73ipXXnGVXLh+EPVeORnoTqhkvwiBB3eUYDIDBEkgR4gztNXiIggwzQYRcc1k6G3PKBMP6VtFtN5Q2qn2VbihkVX7eZTjWS82umMoXQ6fTU+XpbNDm3033XK3TM1MyfkXnaH8P1Hl99H7sGLdgulFDW1qtoAomB7jn/7lC7Jk+fHy7//5Tfnnz10jp5xy3tiaE066uQZnFgjxizf8681PQrRnxGP21jPPWPdY34+62dZ5jn5x3zdof7dQipq2wsIlSAmEABSkNJtT1Pf8GnAKlxXFxRTAo7e3F/k5szBDYjIyshOZwuzfV0HInMWkjhx33IlgJjxPTjrpBOU3sRFGymQyitunuzsKMFIKBCa5BgKaOb0t9Ke8FBaFszEEe7L7ub5bdhZkw4bHZcuWLbJ9+3b1mkBBFdkDO5hLwz5aSDOOJ2OgY+2RvoFe6e8dkCSAYbB/SDq6Mlj3ADTngAiBLgVkqPwQcICBAxqABr/NLBKTH3t0o/zn178qL/u931MJhkwDQiqPWlyoVyhKwV/UnFDDlkb1Ot595vPfkompsnT3LwEQQosyErJzerpntm6/uDud/HmjXHy4Wi6em4jF3t7b39M3eNzAiquf//zIbb++P9A7uMfBFOwwAqBucLgEKIEQgAIUpop+6XAV4uDaB0SWwm3D2wEgnTBDUCiJCblp8yZUa8O1DLrQv3zLm+TySy6Uk09aCzIxfTLsLgHMamouBQAN37OwEpacSp8hyGRg5uRmigAbfAmQyuYr6NkFRMB39OXefMvt8n8//6+yZduwjI9PqRowAprftA+k8PhuXGUrM3ReJYcOWS1o8tGPBUWumC+p9wSodEcKZPSr5LQz1snZZ54jK1cul/6+Hunvj+JaBCAr8s3rvibf++71Mrxtk3zkYx8S7I59MXeh/jBgxcJSRskopipsuRySxsenG/LF//iq9A6tlGiqRyrYKZNmGYXd/8F//PSbfufKKy64+rKLv5E2ynf09HXckezrfW/PsvQLXv3aP0oeEgBq5m2HABTgdFFDhQAUoES9UInuaszfTPxF/w9NMNYl1VAmMTW5U1784hfJ//rjV8u5ZyyXDDSDGKP11A6YVYyJjICQWmgWFfNVcPto9YF6A2pP5y0ZoBBNrukcOv2l8CU2+uYNP5dPffpzsmV4RIaWr0SviC7pW9rbdAArnxTMvAZApY4EQdaAOaT1wLHZMRVwBD830xxdgA4cxQAifl4BQG0CYD2+5Wb5/o23qdIKvqipzcxOShoaVG8P6roAMm/80zdL70Cn6gvmcwqRkD4e5cVFcF0Ix4PFkMD6ib//rNixDtR6pWQWPqTRyaLKb4olu2Xp6uTQnQ8/lLnltltOO/uMdVNXXvUc49SO7jXlkYZVphp26BadAxEugUogBKAAxanawehgbTP7hz4cgg/Nn6ElvTCtBuXd736nnLAKnSFwbDUdYZZwEtO3wokZZxgdw7CrgwNaVVVTBXunDLKwWCyJ/Dsk/VEFQpU4DzQ5VZFMlyPDu6ryjvf8DfwvP5OugaXS0bsMjmgTUSW2x3GQLhhX2o+BUL2JDGaVxgdw4XnXocIwgUkREALFyA3ESNssmRLZkhlRLhPoZ2PfFJsXRuMKWPGNIrkfXLpKstMjIAuzJJ/LyVXPv1r5mXy/Ecg9sK/XfRX94WPYn+Vx//3Tx+XHP/mZDK1YC+CKAcgq0t23BCYbnNNgcTRwrUv6epMwXZOPbd408MS//4difRxD/Vs0npGevhUB3sG9DaWAx0+oOgTHO3YOEYbhA7zXDcSavR9JphWrmDz6OQBcorJ27RrZvHkjHM9Tcs0118iGTTnPEwIAGd+Byc+8HgAMImDo2gfNAu8RBYOXCP8XVaQsRnWCWceo+aoWZ0BRUVBaUwfA58tfuVEuuvhy+fWv75LVx50MDKFjF36ddC8maicmrQMwqcMfQ/84tCa8KohgJTPogJHqFDMKYAOgIe4mLtkHTYCgDcCKpdSanxXRdidXqkFLqap1rsgWNzH0DitgXPiRAI5FaCXnnLdelq9cpmZsAdE6uNXVtTJOVgb4WFDzSCz20IM75K/f979l3RlnSxUAOJmFtphAowyA5Y5dU9LRPYhziqrr6B8YAvc1NKp4EhpiQpYsWQbw6Q3w7j39UF4yeqgBBSzxUAMKUKCqG6eizlDPKS0X5ZthseUUaraWLl0OP0hZvve9G+W6b31DnnvhubI02ZAO2GBvf/vboEUslRKaA1KLKMNMisJZ7ZOrm2w1qkJWCHrH0ko7qtUsefCxYfn4P3xWfvLTX0pv3yD26ZIZNhdE3ZUB4BsdHYdfKKGIynh+1Mg04yFcwAh10Rzj5w0gWQ1rjmtAdVG5hNCGqGiRiUv9UjGcxcRIfE9Nii/HjklfN+rPTHiicb2jozvkta95v3TDbFRBNgxAfuY6AI3a0hSKZPu64wIKI/nfH/57SXX0y9jENMZKSAcq5mfRBNEFEPd0ZGQW9LL0oe0aG0HTQ/b5grnnIKcIhGrMJ5rOzkITwzm1JJsHeDtbh/I0oNAEC1q+IQAFKNFrb/hY4+VX/5UekQ4g1jzhmTVJRQEzxcYkyyPDruZGAUbL5PbfPCC10Sflxm99VQaXrFRafiKRQnQKuT+YYC7yhdhqhuqUYcVlGvkySXS8YCRsx3BObvnZ7fLRf/iCVCNRSXSvRhgfPqccs6zpeIGjF6yGLMlg4mK9nFOnpbxJ/oT1fs9V62T4gWhq6e418KGT2B65SgRAmnmWCvPDKFNABWc6tJho0pA8esYz+dBBvpIBbp6XPf9yefa61aDUgDaD8cAIBBCCOZUDOX4KvNW9cbnrwYL806e/KI9vy0m6r0+VgvE4zG1KejQeUsspbZDtoZOg7KAHm2YcxIjzSIE7iOH8DsUScLAXLaZDlnV9sC/niBo/BKCAb4dXs6W1H0wYhuCpKVDbmJiaVV1H+es9vH0nJm1EvvKf18kFF5/nnQUzgtFFFJoH86BpLanaKuTM0NSKpeLKb3PXPdvli1/8D7nltl+LleqDecR95tQA/2+d/9Om1UAQ8sCpdU0w0u93X6vcaaBXHSZhdmYS2+XkT970Bh29A1K4EIILUHSgiaXhIEfGgWzdXpf3f+gTWE8h5+cEmHIz2NobW6c04r0u72hdNNAcfLDZy+PQphADfpiOgeFCAAr4Jtd1cWQTDQgGNHNSYP0rIUuZfxdLOfX+ox/8mFx+1SlSY6EmXTNeNKyGaahMIJgtXNR0xJ16ageynz/7BfnBjT+GFhKRVKYPIOWRr3vXsScgCvgS5w1HbSiVTgEg8/LCq6+SFSu7oP3QUgTwwqekrDYFMSLf+Ob/yL9f+y1cKEAYOUbl6iFLZD4wEWj4CUHowKS4x71DAApYqA1wZrRGa0lBOoGCTIarGTVKJqPIB9JAtAs8zrf8cot0I5TO7WIpJA8yCxo+kwS0nQISgmpw6j70yKPyjetukLvvug9NBzvRVx2ZiEClOPiQSzOzzStoaj6HiD2dUbskwGdsbKcsHeyVVyO1gEmHSWYDwHQkEFFz27ptRD704f8jwyNTcIwh2bEHrYHgvB7ZNYZQu5dzEPB9CIc7OiQQAlDA98nTgPzos6oBo7ZDM6yI8og86qD4fjY7Lf/yuc9LdnJKRb0IHjZY5V1oFFR/TCQqTmObdLoTyXzIEO7pl/5lJ8hMDiH4aAr+EUce27gdGcvd8zpRLNSADnbqCnODmKj4qte8VpYM6VLXWSRBsiTk3ns3y8033yw33vjfcsJJpwGsTBlD6ci2nSPS2dUnfYO6dfRRsxx8Z/dRI4qgTjQEoKAk6Y0DDUjr6p4WQgAykD/DDGDmA01PjqLswkSFeJ+qBVux6nilDdFQYTeHCoi9yojycP/ueBc0orosR3udahW1YHBgm1ZSxrNonY48ntOQjTw6vLlpHRxqDYjnPIOmiCevO1XOOPMkGZ1GlvcTk3LrT26We++8U+U+Meq2fMVKeXLjMDS3pHT1DSDXp4jEQ0boRpHzdNRoQCH8BDxXOFwIQAELtb4gUkttZwxaDmvCenqQkQzgKaE/ew7JegSnqdm8CoOzUr6qspBR1sAoFMZJpZPKec1QOtsNJ6ENVVFNmkwhaxiO582bt0gCmhLtsVbNJ+BLetrhWD+2eetmee3r3ya56WkVzVoyNCS5qawsXX4iTLC6ZGdnkFE9JImONApyN8gAIoBT2LYHZRwFaIRHx6J/Vo6Ocz16zjIEoIDv1UKTh3VWnUigo4+HGg+SWAAgMRXmZjSMva4U5Rh8P1mAET9jr6tyuYjJbMgkGg+mCTgIgzMEbiKkzcgWs48Vtw6SFPfmeObnB9MEY3ierYF4jawxI/VIAxQgFvw/HajQZ6IiM6gTyR4UyboyvWNcVq49HiH5GYmj8G0mn4PJ5rP4B3wjAh4O8BOCT8AyDTWggyBQ71dSNQXm8DRBGELmmmYYWx9T8yELIiculVCV54NXCvQZtN9Auq52rkF7iKFknvk8yOTBJ562o1L6mOcDkrIF6SmtgHMwwccXnWq1A39UGefIejHYiAAb9pxngiC0Oi+izm4fdjwFcxPUq9iG8lDAGcaWDs5TeJSMGmpAQd+oRU8osuJoggo20WP+kF9i6bcz5Ce6DY/PzOODkU8oH/RF7N94mmhDE+e7Km9HazfaeGleofpAVdwfXeij06rCJVAJhAAUqDgX+YhiEoKpQi2KxkxRdGk6s90XH3T8b7RqcSgygZ9eRMyenqtKn9eDHRelAHUP01Z/1ISnoO9CON5RIoEQgAK+Ufvn0dDlDq3Lnn9q59NPzOHU4ckQ9rkfFQgqHmyeH/Q2FtF6/c52Bx/vGtgl1gPcgG/BQRlu0YrtQTmLZ96gIQAFfE/p11hMHuDcBNUg4msM87WgFuDZjYT98ICPFpsuj2g9V9X1VCk3XLeem4ZU5RtqLgQu1pqE0zvgx/CoGS4EoKBv1SIdG9R8fJJSngqJ3tXaU4Hma0KeGUbTzTdtDvfcVc5mHyB5JTS5WjU1D3CaHWC9a5i3X9A34aCMd7glfVAu6nAPGgJQwHdAlcBrN+s+H1iv+5eiK/XLLxeacFq78CaxQiM9uZXmNE+bCPhC2hxOnZJnfikzklxG80CIHK/a3GLETxF7eBJS+x26tjptXtFeNwtVtQOV4B72DwEoYKHC/AI2oJ0gtZSWsZtmCuPzLdCk+Ftbz6HlS/6pOlD4G2DCeoZM68gBX8Eih+MFeOesqDx4hsr5TIZHamqtUpiL3gUWT5rXebZVkrv71dSVLQBtX8Ok4qrSIZoynweOyCJotpRdpIDCzZ9OAiEABfx8mIYBmnVwI6Iko862EciFYUV4s52yIvfSEV0Sfc1pPlq7UR1QPS3Hn7qaDszzt5D9nXuDz5ShbBW833PYLOAr28twTcDUZ6vI7D0cMHxy+4W7KqRqCf/t75kCfAzyulIKlEXTn0TwIVvjHIsqZU3waeIPtTJsr1oxevqqOiNmHPq/CtinVEbOFqgHHCdWNc3DKej9FdKRvd/h9GAe2ZLZz7Nr1KvVuO0UKsWim0mltelBdnlv0cmBWuy6z/vCW6AnjeqMrjh4uNbtmPn4K+jCpON+XB9ZyxxQKl5pdX7zP2ueL0EoCOezAjw/CueP7oO4lrtWkkjU7ZmvvCvEo72QmfmnRXkn0GGxu7u7Njk+Rr7d3YmKjqwbcNSdTQhAAd+yVDKRnZndUenMZArjE6Pe6Ewx1Ez1fOj58M8RbNFrpHhPWyar2tD7bM8BeT2p5oflA76Uo2O4p/UhaU1z7qWBylCyJVcjtVDejzlAaordk22xlBe3XC7ZhjmD1tLgYQyXICUQAlCQ0uSjHmmMLulYdmt5djYbtazK3I/mXFcXKkSgDdLZza1agnr6F2gNzV/3hb4U7ePYU5JfwJd05A9HENot8kag0dqXNgt9rVEDvf8dWLA9fbMV6H3zELV34NUf2bZtatXyFffbpp098oVxdJ1hCEAB369URyZy4fkX3Lr9iYe39HdmJujlQQs+lmwqn4QLs4shdpek8urYeoL4ZpX6tSYI7Wa+6BNVASSlHM35igK+hKNqOMp0ftjfP33P9PMAXIOQ7kUdqftgREOXZSO4SwRz6pQ+mCGZkhnediQyXc3OPIgGjHdcf9PnwJMSLkFKIASgIKWJsb7w//622plJbjlp2XHXPXzPXTvRwWFaB9lphAGM2OEXIKRNMj9Hxv/1JfDwM89saObO+H4U/2R98DnGI8PNwNRCMG71C1F2BB6aup42xHcKxQFAvqWrgN3XpBjBRFvGWim77cmnNi/tG/pRdyazNeBHJRxO/fyGS+AS6OhMV84/7+xbBxKJ70fKpWG3UpzV8S6Geuf8Nn61Op2dBmwptVY+Ch9w5maH9hvhhY1aX4Gf/NE2oO/M3qNTmzLVlflzLw0+vkN/3uV6KVy8V/VaOe+WCtsH0un/Auvkb7/x/U8eLcRFR9UdDAHoINyuf/zS+2p9PR3bL1+//qtWLntDpJTfjLY4U5FGFY8+Q/MajHQRp6fFzEsO8m9Li4a0sFjsIJz3M2tIX6v0ZTj3qPsRRpX2oO4BI3LsQwJ6E7zQ+HHWLeQ2lXeNf2/5wMB3/+umf9r0zJLNkXM1IQAdpHvx9//+PndosGfLRWef/eXy9i1fKY+PbUjbjVH00avWEFkBGIFwvqTC9BYaY3EiVEFCX0cvLsc2xQZnTg1sZTTTfDPBC8p7fiCd63KsL8qk5UvDiI5stZhbxXxBsTSy9TX7l0HA6kV5sxstc5UsUBKw2aGJ92hgPbFtw2OPz24bvuGE5Su+2t2ReuJYl/HBvP49x3gP5hGPsbHf+6aPR0CpuvwHP77lUru/73cb6cQ5NcPs7ejpi01NZY0etB/O5QoAI5Cxonc6Cb5I3+q66LnF5urs2qcWH2y8nCIPfHbPIwpWwKrbKxaSqbHQVpOoofMFOq2SBdH/Ptijtj9aE4Sb+VRaXr5ceN41JIRW0WOeCzuT8EUQKgJ0GCBIJKIyOTZaBlX3qFmo3geqxu+vWrb8592dHU9++fqP7rOkpv2zDbdcKIEQgA7BM/GBt34yMj01E33ksY1n3PHwg79/+sUXXPT4ti0rOnsHUuh7nmRuItvvVCpQ//GGlKYGqEwJRlV2DCX8NLUdfz7oUo8QgDxg3gsAZZIJmZqaUt1G0uDYpkyRIYGkaVDaokVS3S1XauVCNuPEhkee2vTLE5av/kZ/b+/D1173kTDkfgjmRghAh0DI/iH+4o/+2t6xc2rFf//kf9Z3L1lxdT3pnGumMp11w85ETDtmRCyzBmrTKluiwgSz2ZZZ3SFdVzW3tIBQsz7s4FzI0a0B1aWGUooMyPCZjzUzi+6tAPjOrgwNtWp2ctd0XGTXziefug9tW29Zv379Lzs7M9v+7WsfOUo6Jh6ce34oRw0B6FBK2zvWn/3BeyNbt+084ee/+vWznYH+K6qOeVa5Xu9CM7AOakVdnb3IFzLxS43AixeqV/qO5+toLf7cYzQnwGs64gFIaYeMHs53OvssjVFwatP8wgpdRuLwqxVKYyM7Z/Mzk5NOqfLA7MjYbeevX3/rd2/61w0Bii0cqk0JHGnFRG2e9tG92ee/+UmqMBv+5BXv2blzbOr2+x557MydU5PPWXvG6WcnOrs6n9y8qTtXqqSHhlaYCNyTYlBfsE9f0VKBfnRL4sDOfp/OGUQWbTj0p7PZhlst5SuFaLY0mx2bGd318MqegdsGB7t+3XXmOY9H43bozT+wW7Hfe4ca0H6LLrgdX/uyd3eNjk/2PPjwhuOHJ3adN3TcSed0Dg4dNz6V7YjYsRT8QelGRMVwmpEvNIBWsGQyih/cqew20pGsATUN0b1oQJG6WxnftSPX19051agURyd2bL+nK5a4aclg/2M9nZlsIpkY/9JXPhQWmB7E52dfQx/MZ3dfxw6/XyCB17ziPdbsbKlvcjI3cO99D51WNsyzepYtXdewjRUIx0frlpE0bDNtmGbMrwFjgt1cCtEesipYc4a7rBgwmnfb326OrmJvN+PgAxBPqvV85s5EXVdLftQcGcacwlI3dEELF8Xl49bL6GeUQ8sidH6sjs9OjG8oTc/ed8Ka1bd3daW3xhPOtq9f/4l9Kk/hw3loJBAC0KGR86KP8soXvqsrXyinEcLvuevhe85pSPnsnsG1XfGu5AkV183Y8WhCLDtZN5xU1ImbDJGXy9Vm+J76EXtvcXJDexKLviQ4tlWzQlLnwBnLrOxaHY0NvdYcms9av1oXbsvoEdMCVBkJQvNstBiLxdS6dVnYHpphcHUsjyCS+/p/N+rIzbHQC415O6qJoqYucevopQZnvMrTwVnyGKqPGtpTk1uJLay5XQVNGU2n5lqmlBzDzEeqtZnsxNTkrs3bNll185Ghnv671qxZ+6RlGVk7Hhv7z29+KDS1Fv0kHtwdQgA6uPINZPSXXfX2zmKhmCoUi8mnNm5cPjy16+RkunuVlU4cn+ruXVFtSLLq1qIAG7BGmHHTxBSNRR20dTZ0FJ+TW99qF2sNAvwM1oeBl89o6AFPKwBxW74IQHz5C3OW2JlV5Sp5y5560/t5Q+osFgIbzwsEa6TDUB1SPbOSOU+ml6EcA7rU0DW2xgaP9CbXqgVcQck2zZJpuuVcbiKXHR8fyY1PbutLdz28ZsWae9PJ5CQ6so5HLHvyG//19yHoBPIUHpxBQgA6OHI9aKP+3lV/ZpXLlVShXE5PZmc7n9y4aU2uPHsCpvfKWEd/uqe/Z4npWH3VeiMOLchGpXfMMJAHbJmOaaHRvGnFCChMdGSOYSKZUlqSDzS+huObXtRyCCK+FsQLIxARfNj3nl1enw6A+J2vAfnaj79GuafE4zF0VgXgsMMqAciF8eRWKo1SrVSvIzsTahw+r8YAOADMXHZsanhqfHzcasjOZDy6tb+76/5MKjmTTsQLlu1M2bZT+sp3PhmG0Q/aExjswCEABSvPwzLacy95XdStNfqKhbI9MzPbvXnjpoGCFPudSKIzlkp1G7bdBY1owIw7KwFECbiNHJRjIqhvWqaRoG3G2Q8zjoqIYRkG/jYMVZrPvMhqrQKSa+ygFCBsYJmNdDpjZDJpaCe6rk2bUVrb8tcwqRrI8CYrPWhqWQDXqKo10o+hDbEro1tx82BLrdSAPdUGGt7XylWySY5X8sWJeqkyhZPIzkxMToOLZ3zJkqVbOjvSOxPxaMV2rBzOMm/ZZun6Gz8bajmH5ck78IOGAHTgMjwiR3jOs14ba9QjaUCDXa1WLJhvsdGx0cGRqZ3LXCkPCQo/HCudtJ1UHP3qo8CbOIAlatpOxnKMjGnbKcOM2A6+qtbKFgAIGKEybiKmFZF0qqOeyaTcUqkCZYRc1swWoHNJaTIeeSx0Hag58OpU67VGqe7W8ljnsJ4FNoGsrZovFrPFUjGHqojSjG1Zk31dfcNdnZ0j8Wi06Dh2DZoRLMxG/ge3fWH6iBR0eFIHJIEQgA5IfEfnzpec8we2haRHKD2xKgr0qd24bh3+Itd0q9VosVxKl4rFVKVaSeRnZuPwLzkw2hhkIthgjeQAI1qOJ5I1gBYzJOkIohpEblkE7KgsUcMxGolEfNowrWLUcbKWbRdQZFuE3lW1TLNumhHXthVzfQWlErkf/+KakPLi6Hyk9vusQwDab9Edmzuev+73GdSniVb/9QNfr19y9h8jDKb4ZT37S9tjkQhyk41I46d3XstQXLiEEgglEEoglEAogVACoQRCCYQSCCUQSiCUQCiBUAKhBEIJhBIIJRBKIJRAKIFQAqEEQgmEEgglEEoglEAogVACoQRCCYQSCCUQSiCUwDNUAv8fK9mWxK0ZiGoAAAAASUVORK5CYII=;" parent="1" vertex="1">
          <mxGeometry x="-480" y="360" width="120" height="72.92" as="geometry" />
        </mxCell>
        <mxCell id="PDv1FXCA-drPs_k4_aMJ-13" value="" style="shape=image;verticalLabelPosition=bottom;labelBackgroundColor=default;verticalAlign=top;aspect=fixed;imageAspect=0;image=data:image/png,iVBORw0KGgoAAAANSUhEUgAAASAAAACvCAYAAABdEgM5AABoY0lEQVR4Xu19B4AkV3Xt7Uqde3LaHJS1yhKLsoSQENEYAzbG4E8yxmBsEw3+BAOGj20M2Hww2JYwnySQCBYGIwmJLFDO0ipsnt3ZyT3Tubu6/znvVfX0zO5qe3Zrk7ZK6q3p7qpXVbfqnb7xXJFwCSUQSiCUQCiBUAKhBEIJhBIIJRBKIJRAKIFQAqEEQgmEEgglEEoglEAogVACoQRCCYQSCCUQSiCUQCiBUAKhBEIJhBIIJRBKIJRAKIFQAqEEQgmEEgglEEoglEAogVACoQRCCYQSCCUQSiCUQCiBUAKhBEIJhBIIJbAXCURCyYQS2JMEfnvLxyISaRgRaeAZaRjYJhKJNLhpRD00kYa3Fr5teJ828Ae/baj/JFLn69zLPoB1uIQS2F0CIQAdY0/Fr28FsEjDikTqtkjdkXolKuImDUOiwA670WiYEambABusG5YY9YQR4fbqRSAysAY4Cb9XwIRXHcDjKnhqRKr4G8OI28DfUjdy+LKCv/F9pIYt8De+k0hFDKskRrTWELPSEKN80cUf4PfhcgxJIASgZ/DNvuO2vzMbjVq80XCjmPNRA2ASMeoxYIWDtWOYtXStlj/fjLpDYphd1bqbKZXLTrlUsqu1iuXWa3YjUrcAUAZgxqLWA03HkAbeGwQfQBHQRGs80HYaUJGAXmoNwAFWYUOzYkasqmXbtVg0WnEcu2BFjBlpNKYaVXvMctJ3ua6VrdcjlUY9Uqy7kQIwsCRiViMRE2Bmli6+7IOVZ/BtOqYvLQSgZ8jtv+uXHzXcRj1ab9RjdbcWl0YlbUTcjFsrnB6x3CUNs4ZXdahczafLlWK04paculQSTjrSEbEbACbTxoS3BX/gRW1HPxu0otSigKZlWWhVURlqXbxHSylJ2FsBVN3FqwZAdKVer9VrkUIlF8kbDTtvm9GCY0cBTtFxYOMuo+GMNlxrwoomHnbrZrbmGtPQkoo4zaJhmOVLL/lwqC09A57dEICO0pv4yO0fx4yuxmtuOVlvVDJuo9bj1qtD1XpleaVeOaVYmV1arec7zVikN2K7aYBPAkAUExPaj+kCaKCgQFkxLWVBHSYpGOLCAIOmBIQygU2WK65VadSMsrhOoVE18o2KMWlF4pOOmRh2Is4Gy4xuMSxrOyzE8YYbmTWt6KxErML6iz6yECEP0zWFh12MBEIAWoy0DvO2D/zyY3ZDagCcclcjUuqy7FrPTGn0heLU17gRt6sKrafiVtPVRrWjWi8nYAXF4km4auBuiZhwuZgulBu8AF1c08Xj1hw1+Q/LAhA0LVhXcA016gAgaEtc11387fK8HMnnarD8rKopdt4Sa8Y2onnbMLNmw8xKxdjemRz4drVqjtfr1qREnOmI4eSffdFHQ5PtsNzQxR80BKDFy+yQ73HPbR9MiFHrAIgsNaOVU2tGaf3k7PhxM8WxfitVHQQAJSOmFYsYylEMcGHwCRMXQGM7cBVLFZMbk1yt6/AY4+8GAciG7pFW68Oy0EctszjXKs7VhHcbbia4mOALxxp/Y12r0nyjhmQBnDRAUWOqw85sVCK54kR9RybaNdyT6dsQtVO/qZath6quNeY27OxFl3wif1iuKzxo2xIIAahtUR36DX/z4/ck3Uily3TcUxt25ZLp0tiz85XJpUas0RNPRdOxZCRalSk1gbWfhWaVv8DlAgcxnM/ed9rMmr8NJ33ssGpA9Qb8zd458vwIRHqtfUem4YOj72MCQOkEAAWckVpaygUpVwrV2XrZmEyYHds6E/13NRr2z2uu+UjEsCcuvvhTQLlwORIlEALQEXhXfn3jO+Jwf6wUp7JuLLfrJU7aOsFJRVYYjvREzDKcx0VoMSW84CqRvNJ4OGENxNKpRai1QW0iIrUafbWeI7g+d7t18OrIWXxMUeBj+CfH64IGRyAFuNbrWntTa7wQNZOY3ak1OJhrUo9KoxatSDUyXivIVjfvPtTXveRHkUjsgYgZ23HBhZ8qHDlXHJ6JutehGI4cCfz0W++BuyPXa6WKZ1djsy+brU2uT3RGV4jldrn1krhuGROQ2o7K72MQHKk0vmbg30qaKfzb1yAQRcffiEKpiYw4lDehtWnmIECv03MOwwKzqlJmShFNLuYyRuCnUhmP6r2+zjkw0hE5XvfcubpV+K2RVcTrAiYBgG2x7bjYZrxuwhTLjs5u608vuduop79Vq8fuu/jS/zt5GK40POReJBAC0BHyaNzytXfYjVhxqRuf+sOiNfGihpOD1tPoiSVoRlU80MBkhD9Eazgwn7AuVz3wwOfaNPEASaXsmHMakBcO900cddkEnkj5sAKQNJAHCSDyl6aJ6IGNadI5DXTxgGj+9yIWcrWbKQKM9CttScuJviO3aru1WdlllJL3Z+yB62v15M2GnR6+/LJ/OlyhvyPkiTsyTiMEoCPgPtz05b+0GsnSumxk9B31xMz5nYPmSlcmbCdWFWo+6pdfRaq0M1YtXhJyw/OV7PMyPACat503yfe570HdgNe0MIeI4NgePkTgVJ8DIAIq3xOwKDOG+QHSRUucRsdkccJ8It7o/kE02vN1w0puuuKKzx5hhuhBFfQROfjcT88ReXrHxkk17MLxjVTxD52oXG4lrWXReFnKtYrU3JL2h+gKiJaJqk0wre20fN6ctK2T15tjhnZU68X/3t/3cP0O0fzDeTWvpeUUm6DUem6+duetVamZzmdqLipB28MkakRSEydGX5HRjXyhdVKoWTGrVirmZ76HrZ48Np6wI/cq9/DTc+Se7DPxzG6+5k0JNz75yrIz/TtGrLgsYuZRxYASKZhXyrnqJjG/EnqtzBVOMDo7itp84tKqHflg1SqspqZDc41agvfi34d94bkQhJi6452f5+Oaf2oeWCoNUCcuqoUyULLwAJkyapGZZcIfZEOOyG2M2JWkxMsnztRGX2nbxRfc8sM3ZQ775R/jJxAC0GF+AEyn0ls2J8+XaGEolqygSnMGMeWcdsTCOatApx731vhb137qV9N57E1IVT3hmWn+ROX2TVDyJ6+v+RwJt98/d0+bQ8nZnFa3h+tRxfmeOaoAiADmpR/wc0TC5mQGh7QVF8uCs7ual1o9K9FUPeU6xTUz5ZHn2nZ95WG+/cf84Y+EJ/CYvQk/ufYtqC+vrqhJodtyGlEnismlcnp0hKtSYRYeJhVDzH6oWf3tW86tQMJbic/V9v6L7719OTH9ydkgoPHFHJvDZX4p9PCuyz8f7xzVeXqhdV5r6zX5ANU0PSkDD2TVtbbISuiEd6FNMrKmzT0bX1sxI1WT0gD8R0tv/fF7DlMa+DH72M+78BCADuNzcMXrvtAwTGb8mm6tVq25LidIRKIxzpgafrVpWngOVeXv8X79m5NTb6dNGP/F7f2okacpqWts8RepzGJPU/KjZodFDr625p+PrwX5j6Wv6RE8/OtqvVZcu7oOH3SIJZ7WpEwygLiSYU0Bj2khLRMyRha1SnBEzpSrWEXC5bBJIHRCHzbR6wNbTmrENjKTbjlXrFbdhJh0nKJkAhMuliCjBSaQmkseACkth0l3mJQG66g8H8i8SJI/gb11c18fiFovur1o08ERE83IhSP7fimPz0x97Z9jy7n6DnfSGiktCTJR2hEXgpWWi2NXYXpVADpMZzAFMgZRgFNIOJ1Zw0iOXn7lJ44ER9jBEe9RMGoIQIf5Jpl214RZm36sVqofV680OuqRglWqzQCYXOnsSKEYs6z9zgyGMWGP+S3kDsPEayATWuC01hPOjyh7PiJsx3xE0vbUm1Gmue/8y6b1UmdCozfNd1tjAz0Ot1vsGuOq/fc8Pk2n5mnzhOZRf2iwwdnrM/M0mrnbxTA7OdW0KankopIzUeemasuY31SUTDoh2WxWSkVcAPFdokWjFN9l1jL31o3EzsN8+4/5w4cAFPAj8Ddv/j+Jv/viX7ed8p/KLM0aNfvGsjmxslCY6ovYZlcEE6rmTslUYVpS6bjUGgCZBsPyUUzoBJSGJH7r4SdBRXupWhfDQbIeEvJc0OxUK/iFRyKeZZkAMYBUa4TaAxOdGa05xMSOQN/SacRV0vSgdINrvgeloVSK0B7omoIG4QMQjrBHQOI5+EAFUiEFfIloAueG84EjJoKkQgcOYa75Hv9C4cPnvvaG7blfa1jdRTWqqpJHMiLPWTnnOR4yno1GTByzG9dILaiEGBrKUlCm0gDRom3WVFZ1dnIKRlZaklYG2dIdJavSM5Z0eu6MWF3fj0jndLu3/wNv/7t4uZhPmpYz8YkvfDjMH2pXcPvYLgSggATJYd71uk9EhneMnPa2V79v8+e+9old7Qx9+iV/Vn/ivq/tNOMrRqbKo+5kbqNUaybMr7gk0hVB8SmwACUYgjCyyQmISYuiMPDhkHpQCtUqJqMImAbFsKOY2LpmivUKLuuoMFn53nXhU8JkZm1YGfuQEwzvZLY0g3814NS4n1prpYqxpUTU9gBoThNqD4A0YI2M71IanKoYUWv8gxfXhKCkk1JAZBOUAE4MmfNloZaNqQi8RpufWzEFQATZOrK/SzhPJiFGrDLGQaY4UhfqjQJAMyeNKmrkcA0mGGdTiUEp5mwpzsQqttsxnXKWbIxL/w/F7tx0+gV/0hZtx7vf8EGnUKj056Zmjosn07fhSkIAaufhbmObEIDaEFK7m0xnc3GgRPr+ex98w5+8/N2f/tL1/wAHztMvOx77VcSJR8yega5l3e5EIjaakdFJ8OCUtkmhgkp3hJHtqClmHBMaWlCxPIHyglExQV5o2QmJdyShEQCQWHiKQs0KCL4qSGIE4aBiRp2YHAOQUHtgzRQcsFyrQk4UdPLU6D7xXUV+ag1NPlWTxcwcgJV3CV51lm8Uqc+1q3e+l4bv/ZfJgJafGIhxqRUpckRv0OKMFhFdwabJYlqWmID5R1FzmDBDuyUKYHWg7dBxjOp2aHx4D8Cyce61yiiuK6+AyQTK2fA2G5EUQCoiYJcF8GCfepcknMHKYOcJxYHE6geKs/bDlaqV3de98b+fmZ5tbNz01AtXrVqzs1yuMnToJWC1O0K43d4kEAJQgM9GueJWKpWa84tHfvCnS1auuuF1L3vXU9d+5x+f1snpRLsSqVTiFIl2nNghHYnoKoBKqlOGRx6S8ZmNmHxFaETTAJ1pqaAso4GEPdOCqQIfEWdgoYRSg3JFwOOMv/P4G9ujaFVTM0NTKEMzoAlFEACoqJgP7roqocLil4+phGuCAKJwBBWw0mtwgSqhUvzwpa/5UDPak0+IQKYTt2GKAYK4nw1Q4Rrk0c21vz9ByEJ+pW911WgvEhgBlOrc8LY8zagV/6aG5EgslpBEPCXgl4Y550o6CYBEqL1WdpE9DvBFYaoZicJb1im20QlNKSY9HWtkaf+65JLuE+pOrWPdtMx2zeYqbZEgvf533mEWiuUTf3nPry5bvvqE/wtC2VbOkwCfnmNzqBCAArzv1XojluzswAO6bNd1P7r+n1561e/+2Wtf+o6tX/neP+1VZbftdFc02fPiesMaiGDi8L/lvd3S0bFSZos75LGNd8D3M4bpPCHxaB45LCVoOFMyMb1TJrIjYka7lR+oUi4rzafBanncVQcTX2iywUdLsFEaCTUaOpMVIOA9X4RHBtQoB+5CRKI/CaigNBegF9cuo0gEJbU/tTE9XuuaSKLeq/HoFMbf3v78gvs1WLnOY9GHTJOMEXQfCAGQBLAIA1pc029sVqVYqMAXpT+LV+MSQ6ImWnNgDACtmwPApKW7a0ji8U6plWIAoxS+Q+WF2S9nnLJe0vEl0uEshz6VyiAev7ajq+eV5fLY5ifvujt/3Lnn7PUH4g0ve1+kkJ856ZHHHvmrvs5liWKp3MUi4HAJTgIhAAUnS/hXpFIoVszenuXx8YmxE37x23s/eMn6cz/y+pe/d/s1139yt1/OXY8+mXTs+IVAldPBb9zVgFlBOomIxKXDTkvGXiFDZ54qE+5G2bztPnlqyz0yMvY4/D7I6HUcsZM9ki8W4AEhLxAgA4StFoDHpG3iRY4YfvZro1Q8yQceggReSiNS9Bd88W9W1XtrRWdGpNBaiiY40wvBxPt/DkG875nD7X8Pu0kfHqCmCkd5jcoBzgYaDYHipqN8npbGNX1a6hxwiGgcphYoWuHFUoAUYVidQAph10sNAEu37NphyPDGrMTgjB/sXSrHrTpbVi0/S3rMVYrxkU57ERCvAdwbEWsokmhc0d1lPlnK7/za/bf9ZvKMy5+92715/cvfbxYK5c4ntu56y9apqbM6Mx1Z6J05AGqoAQU4Z0IAClCYsI0wUYzJ8YmsuWbd2T0bH7r3Bbff+5B1wTmnffItr/6bJ77wtb9rVoQ+8ou7aRB1R2Oxl2Jerca8VCoIaUfBb4zJzpTdpJTA2dxt90jPqpNlzfKLZePmB2XjlkdkYmK7FGa2SrRnGPMU9WPECWICTCbgoLoqOmLp0I1gTOVb4cRm0wv8rak74NouoeyDFK7UTjwqC83FowPyqiatuRAy5sJqvh9H8/NoaKLx1brQ76QXRrKU7qW3U4AGaIhBW/Gjcox0KYc4xyKEgW5tBmYn/lPnTo2IBGtQ2xDkEyfeJfWZ1ZI2Vkjf0qWyeuUpsmbV6ZKRIeyflCrkGDVIOasdXR6PkAPUPc7uzLyhO1fM56bz37/1upunnvP7VzbvzRte+X4rX6gP3f/E1r+dKmbPX3biqclNjzyaqzXM/A0//NRetdkgH6VjZawQgAK803U4XfIF2AB2DHPe7jrl2ZfJ9s0bn/v9W37a94LLLviXv3z9h36yesWS6pqVS8xyyU1Go/bvRdLJy3AKHf5pcHraBCN2iYDTxrb7ASjkc07gF71betaeKGetLUq2MCpTpSfkV498RXLVrZID6U0V0S1aCCZAR1kKMMEKOdaVccbTJ6RD2BGvglxbW0QCT92gTtLUcuh44X4ev453gq1Mis2/PX+SRpY5gFJshk19QX8+RyZGPQlgpQwgz57DNRsKfPmeGc4AGSuqHO406eBig6kJrmtExVKZDulMrZFnnfWH0pk4XnoS/ZAWtRykLTCYj3KOBJzz5JT2j6twTQFf3YJT/tTUQOZdQ5VKMjdb+uq3Pved6vadY4Xh0XHZNpK98q6Hn3i9JBLnrF17Zh/MMLd/yXIzXyhTlQqXACUQAlCAwqSZAZ3BNewE4sxRKcI3s+aUUwfv+8Wu9I23/GjpZRde8hUnav2/zs5MfvnKZStiXZ0vw+F7fbuGjlSV6wJNiooHmf5s1Ich3iUFcto4MThiM5hedemNDUpXYq2suuhCRcs6Ax/R2MQOGRndJDtHNsr45DaZKTJahiiZXQIoocIeIesIieDhyFYeGUxIC+dZx/i+9kOtY47UiwDFcJgPQhpEdqNz9XQC32yiRqM0LGXu+cDjm3la+1LshzTBirO0ylQY3jAYMiNoOFIp2XC8w2RqdCCU3i/9XctlaPkaGexfLX29S6Dl9OCsU9D8UlgnAVzQHJk6AJkxisZ8IyprCsxbFwVC2LbWiBTdxgndq5e+Y5VY1clc+dvu2NTSTbsmf+/W397zPEQCTjp55YoUmjVGjWi8mCtAfjY9/+ESpARCAApQmoYJlUP5P2gR0bFhIKSeNU69+NL0xK7Nq396x+1/tmNi53MTmdT3119+XtlIJk4iBvgKhBVbMFtgauQRpk5mMpKI8dedfldMMACUiUlmIjRdwUSkydSD3/2enrKc2JOT2skzgJFZfDItj22+Q0qVcZkt7JCp3E6ZzY0ilD+NyJoOXc+idylj7gQEsg8qtkVqUUwcVDaPOqoGnhbyeN0R1VMpOKd91UaZOrwibYopZzQjYB6PswYJDXJUj9JxJCoCqAk8ppmSdKpf+vqWS0/nKknGB2Tt0jMBuJ14pQE0GeXTaYiDF8L0AB1Q/fjWnwdkcze0jrILgwjkCZjHruFYFsL1/Dzu0MSVfrO3853DM9OrvnPbreds2LRz5dBxa/s6e4fSM7N5RN3QvRoXhF39Cw7wiQmHCgEowGfghhs/3LjyivfqycogDZ2lmIw7xkalI92VPv5Zz7Y3Pv5ox4c/8y9n37tpS/5973tP6uzThtT88Esi1VxR/8CccmrI4OX7nPqsjixndAZVjlyaKNUCfCExhLmUacWoMl/QktQkpe+kJOtXrcWaaStljEiHNV+gpgDZWQ1h/c07NiJ6VoQzuCT5wqzk83m8cup9FQl9Cig8qlMdmNdajT5PL5TlyVADj+/j8bpbKDMyiokck2QyJckEspKTSfXeQY7TYPcSOI9TSHgEyMISRakEQIa0I9TMeD3IccI1GTCt9Of6kSWYEBJqlRJkgM98DmmAGxo0ajOU7AIs5iAfNrKlTQiZaQHcT+2O9RNbJqKf+dznln//xh+/pbNnaeOM8y+ws7lKdAzlG2kEzZQTXrurmj73AB+ZY36oEIACfgSUydGo6wcWr0QmDfOpIdMF/JpakdjqE9c5DThrbr/vse5Lr3yp9aKrr5DX/6/XyBXPOVn5R/Io4kD5EiadKTMzk8h5wUSC9mAjXm0gR0drI8yXgXkWZ0sdPRF95YQO7LryH6EMgxMX3lr0hFd6GVIVMZ21w5nhbdcsSu/KZ+EdGhf6IKK+pf5G129dphHyZyaQUjQIOCoczyxk/V7XYOn5T3pYxrxY+aUBypBus0u95xXpz3WETB+P4ELAIcCQFUCnS/NvbmvgOkhJQiOU18PxlE8cx2rWsDu0VRGj5+cEF1S8I21TyShfREmGg/ovMwHwFRnelVP1dVGI7e67RuTr3/qW3HTbT6Snf8A689yLrUK5LlOzuAEgMct0QzOjPwxOb1wn/tTyCJdgJRACULDyJNUDntMKfqCRFRRxDLRJVjk1TiKBX/04TB/XyOWK0TpYDrv7M/LT394nP7z1Njnn7NPlrW/9U7n6yrOkwHkO0yiRGVD+nnIFWgnMgSjAxMFLeZro4yAVR411UGp+q5eqdFCaCJNp+PIAyluzzItfc64adEgrBzccu95mGuKoHxB2XOmxVukQuPqeM5+RKn04/bkGF39/lldwVA0wmh6DYEpY0X8T2nw9iY8fC0oZVtetdphn48Ao9bnmY9CemkurEeQnMwFweEENlGdUoA25QEPDJvDaiJIhIxo7F2g/4YQyfSm55WePyjXXfkU2PPaUdPcO4B6slhwSObPFnMRSaWSWd6ucJ4JXsZhHlA7mHoAWBbX4WVF6V7gEKIEQgAIUpprjzLRjaq5XcpAlcEBTYZnlZDYHvw28GelesTuiiOjkJdGTErsQkzsefkx++YY3y8olS+R5z71cXvo7L5T15xwH0IE+4KSR95NW07kGc0nVU1GLgXZg2gxLkwkQegXYbVTkiTk3vkrTAkCc1PPy6DAra0gIVuYbv6MmQ3Cas6QUzPg+II10rVoA/54fdtfv/YNrjUYtyiGtX82/GWhT/iZGu/S2/p4oXUPIHZ8Tf7zDkseHi4rkcSeVGMT9wA4A0Iki/8lXBr38SgQCRO5/aIfcfMvP5Be3/0aGd+6CJmlLqq8PbicELKEdJaFZFgFC+ZKLiGIW8oa2CaCPp6AFIfIGSUMFouOKOdnhEqQEQgAKUpocSzXeohOaZhieV0yWUhXlE/DbxBOM2AB4KgiPF5BQx/olo4ByL1sGV61UTqNSviTXff9Wuf6Gn0gcE+qNr3+tPOvsM/FaJZ1IaamDfqKMSYU5BPCBLQHKCUEhpvJ5q+nLSTw38XkM+o2ohejZqyEEEXtVkBpHnZmatf6ippiuHePLcLykxiYQtSCI+swDmKb/R5+DflEZZORtLvdIdTz1UQZDA66l2gJOBD+lxdmAbLyaJweepCY1R/OENWUtQ+3MeVJZ1RhrckbknvuH5eENT8q3bvie5FGOUsYdsRNR6VyyAuCCTG84+Ms4cD6HUhUXDn2ATiKNewPUy6PVKkpw4bdL4H4ovmnsQFuslVsg6Afn2BwvBKCg77uOUSutHfPETMHhSn8GzQvSg9ZqcJoiPyWdTsOH0yFT+W349UUNFzCEOS/UdhJGSllXNFz+7Zrr5dOf+ZJkUnG5+PxnyYtecKU867yzZHAIZh1ruuCcRdmlmvA1FKCqSngeUeX7MLLlKEcqWqlrTyq3xAy3QcPBSJCLMJDhNQXUM1+jlO7Rju39OdfUqHz1iMdpjdrNU5uIxAo7DJWV7RloyjOPC+NXqjYMSA1TiV+rTGgPblS5VVPZ8LqgeqoTz91SgEqDEOCDsagXIX1H7rzrIbntp7+W+x/eIDnQiJhw9kTjGZSlwA8EeZAZoALkrSGXyLAhOTQwRJI1HOBY4wRKJbIOIIUxlgSglWV8dAz+OJiUSqh1xhRCDSjg+RICUMACVfMUcwt+X4AQQAGOTZpjvk4QwU+8gXqtUnkWL4SEWd1tILyszAxmQgM4mIRHq4qf8Ze5G6lC+OjWO++X//rJzxSl6Jo1q2TduuPlRc+/VJYv75fjVq+UzgzNKT13OVuoTWh/C7l4PEygtsE/ab1gzRIOg7YXU4vnLRiIWhBVFLUAjhD+115gfZFK3ZhngXlveAIeYFShAanwPjtTUCNUCZLa1KK3SCVHesDjH555Sd4RtK7TcgyCzRSCgk9u2ibbto3KLbf9VjZv3iWbNm1SRbmo85IuvBhtKwLVq9B0aKEq5zj9Q8yqQrlLHSqTix8EmrNunYVm+AZ/K4wGWHN7B4WvJn14bsQFbxEM3BCAFjwkB/w2BKADFuH8AaB1qKnPjCClAfCpVSigfzzJUMjnmM5ftaDK29xLc0FVxU41h48+JnEi5YiD0HCxWJTRmbL89p4Nct03vi3JjrgMDQ2hDGGlnHziWjn9tHVy6qkny7KlqAj3fCyg9VGcPL4i43tz7BiJ4GmSwRUNK4OnT14e+rhVXRg1lNbFwyM/GbFc0mUfulsrXNAElxbAgJLRXHxHM/OLCErcTru7PVFQZBif74l7lNvoeE1Gdk3Ik09ulCeefEo2b2Wy5ZhMTk4ip6kCR/JSuPsjku5DwSm1I3bA4P4oAaG7vNUXpn8c9MmZTQpbfXReFk08FAU3z1f9aJBRsg4uAOAVTjvUgOY/DQf8LgSgAxbh3AC//5IPRCampvTz3OpXCeAYPjiwtiuVSuHXvozkwqKccNY5cCQXQMVRkvsfeVzueehh+c9vXI9M4gLYEQty/vpnQTNKy5Klg6iVWiHHQXNasWK59MMJm0oZcMCqmQdNC9oBHUtYCI1Iyta91glanonE73xTyUeyCKJE/gQmmPhhIv/yK0ADjsHUJd3HXkfB/Dwc+n/gp5ex0QnZOjwsW7dsl23DO2R017jkcH33PfAgeI/i8AfB0cw2zYqWEblF0aR0p3plJluQKEwo5hURACknJjoSSKOg7ODfgSzwRIcaUCCSnDdICEABynQB6gQCQazvIujQZ0LQ4YuTja9o3JEcNBCQZMGxDYc27CwUt0oUfoskfC0unN+bhyektmVEanc/qMLUVSCCKhCFCUI/SkdHh/R0d8qK5atk1eoVsnTJcunq7pA4/CAmnLVDg0vVmmRgXKOTBHJrECqHA5xrndVM3xZ9XBVF+s41SyJIijY2NqHW4EkCN/OUjIyMwnTaItu375BJgHU2O6siWvTrmCQag8lpkdkRHmWafFasC34x5ArhvQt/lNKiaFSC6YzbZTqR2QSOEcrFp2wlEKlo4G41I/t9sxUjiU4ND5cgJRACUJDS9FUE3/USwNj+LzknVaGALGYACF/qlx4qSgrggeJXqCxwoBIAFKzArMOENU1oBaQ4hc+IJPcOyX+8SnOafRybGc+TBSRKPj4s9z++VZUqlEG+Uy4xSofj4D2Bx4IzmyF8RtMIPCQFi8Zs1GsyYY8ghOwk5QSn5qTX/ucsfaCWguJbDSyqtgzvMzFZ1rtSOenV/lQclXOa2cuE84h09aPIBNO+AmAjoLoGxsb3FZpKUJ9wVjgWSct05T7B2teECN40yQJZKNbQBxSIKFsHCejuBH5eR+eAvsthYUDoAK6Gmo6iWyX/jTfJOMGURoT4c25kF3JgWKgKfiBoLUxC1BzQ5HYGSyDKNZRfR9FwINuYfhdoLRUyHTLD2slobcE7R5azxaPQgMhigWNov46uEdPjAswwqQk8rJNqR8vw68R4jAozqQkunnZSKc05v+mQJsTpNcwtrEjZSgoRRtMcXB+NRJ4D5VGg1uPlDvEcufh1ZnzP8+R2QSye+RVqQEEIs2WMEIACFqjn9Qz0QaXGw19zTqZWQFDAE4+joBLfwQSrQGvhwslns6Ie2kYRtR0KPEh1oUoZ2IoPSEkwo7ZBkFGf65c/iQk2Ku2FOTwofOV11aFBMd+mAUYwJHSrMLjlkZ/5gLJwzXPn+fgv3zTS42vXr1Ycffc4cxj03wSgWNRSphc7dVAr4z4ci/4dB76wOvJ0uLVOc5gDaZ/cPojbq4OJPodkECOGY/gSCAEo4GdhXgZyAGPT7PK7RVDL8bUQXxuqIMxdBQC58LH4JggjUaq7BUApjlwYlVJDjUfxO3vRKmpDMI2UOUdnM53OXlsctGvV6QEwvUoAsBrqrSyAFIvWYe2oHBrVtx7AxLzLOgGMUXnFBe2nAOguGnFE2fy2PjVoP5pLmoYcNTJNn6EASGk+7OulkgZ0CyDMe0b8WERK4KRxpq4VppeLmjdSUMbpH/NyhigfH0BpWs7OziqHfSCLzhUI9IclkPM6ygcJASjwGxiso5K/5P6k8k/V1xYUxQVqoFQdvEd8Y1BF4QuL6rEFdFF1WL5ZqNIDqMbAnGJaDic6o1z4WLMOeiaS6pzB5EiYQiQXYVQJf6s0R6VywOlN0MB2ilHR85AopcZLPWjljFY6hJ7EOu/Hm8q6RkyDjXJP8fggv9A6UF0cRWiNL0g2j08tlZntLcjXKeP65nQn/bnvN6OWFOQS4k+Q0tRjhQAUqEw9J9DCGRHoMeYGo9vW3K06gBChNZJmBt9eKgj8dB29h/awLlzzGPpzaiDUTvz3cxX2qks0NRtut4j1QrE004ea2ddUq7RmpjUnXu+ehDkvG/IgSZsF8aECFLRwQwAKWqKe+yLoYfc2ngKaFhpUtZ2nZcwZDK0TdPdcOtWJwgOPhWsVk1Lfk1Rew5F+T81KczhzdLXfItf6mjyVqfl3y5V6QETQ0+MvOHev/fTBl7UGnhCAgpd0CEABy1QVFgTtCHrac2Rr4/lT2f+d9kq/8GXrxN2LtuDjwMJ1K5opcG1FNzqpvbF9rW8R6zl94ukBsnn5ZFtsxSf196HQfgJ+SMLhmhIIASjQh0FNzkOop+vJpwm/tPPXYB2+Wmvn8L4Xr0TE33/BmgDD8RiZ0i//vV6r48IHtKdGhXPn4Z/PgvUewWPP5zw3fjvXtO+r3o8t4B47hLd2P07waNwlBKCA75qak4fIB6Qmv1eR7ms7rOrmwroBH5TmLnH3CaRq01Shk95q4Rr1sfpzrySDa/+9cjL77/ey/97GbZ7fHkFoToDal4WM6+b4Xthefe45v4P1++/2RGhPVLgcDAmEABSwVA+l9aWJTeEZmafpeMWV3oRVnETNZe5vrZ0w4sTI1961Cn8PHRz3Gg6qqe+x86jj7J9WwlnNF8PyGmj8ZW48X7ubwxjvO3VcOqWDSTTc12PA2GCIQ/uS0uK/378nZ/HHOYb20DP/UClBvhm0WAHrCX+gZ4nHxwev/VgT+OjYBteYJjdUr/mPZKs/yyOGf9pL9UGNGlPry/9cj0dY9V96ON9ynu/obpFPa6bkYoUdbr9XCYQaUJAPB59X/TrQmd3WWWma971oAM2Z2zrUflgS3i5+pKyZv4PPFYjtB/CoM/IcyiZsOgpLDUWTTlHZcu2f64Jq9qa2RPBiDhLzEUFNi2LWGLLC2bSQDJQu69/wt0/jWkUhbh38PypDnFE1DM88IbLnMrO6UmE2Jss/kHAJMjPmX7HWraazy/3T2w8BtnUrj9mNQgAK+NYfEuRpOeeD7fP2r2cOW32NYS63cX9ByID6pjqp0bgh6HjX1cxHWphegO81nxL30VsTLJgBzXqxIv4uuwVV1EoOkKoiuq9JBuyTU+MT0tvTo/KmWBe3c/s2GRwcRFU/Ey2VIajI6MleRkDiZ8xCdzRJ2aG+rQE/lUfucKEJFuC9aZ2sAQ77jB5KR9h0BG++v4qXzceTAKDXc5lGvqRZlEuOIDAcVgA4JWRLuzY4jjISAw0rmzgmrISM75yQKJgBOpOdkp/KSyVfloEe9GPDQUdGRkBuNqE4i6gRsZ6sUkV3jd15hBYw/T+jb8shu7hQAwpY1IfSCR3wqR/64UjLoVMbFfhoh/QcICnb52l0D5qAUVCR0NRSNWReMS3J9qkhWSgTKUxPS1cyDrpVU0a2bpH+7i7JzWYljo6s3aAy6e5JypZtWxXoOKScpWPbq6RnoW0DzRlVHngExSihHyjwZyQEoCBFquyhEILaFamfJ+RrPvPBxzMud/O6+LE/nY1NLqBGFZQhpJGFFlMGDzQLbG1U0XelwaSIotvJ8THp6OkC+21ZxoafAo/21fKud74KfcDQoPDhovzz578gDz70GDrEgp4E7IsxFPCyk4fiM2peDO5rW3lV7V59uB0lEAJQgM+B+rEOvQWLkijolptqTtMU28sITBtQiQee/4cA1JWJo2njNLrPVlTPdwvFqy5aFVXwvqHoquvocmHL2M4Nsv688+SMU06RN77hJYorG1RDcsa6OLSgDGhFQGYGojX2HqT55ZKYHoCmfBTK76R6roV3d1F3d98bhwC0bxm1vwV/JNvfOtzSk0DDi3jplII5Cfotn/VmVC5hrDFkr6JYuhZteHgzerhHZTk4r1etWgFq2SFFKRuNgtoVGy8ZGpDeri5FO9vdEZMf/c9PpYxuhTF0EEmASDKPYUulIvrVg6ExnpTZGdCPIKpWV8RpKOptOvZ008dwCVYCIQAFKE9N6BfqQYsRqW6gxsUvK/HgBmL0I/E63UCDju5xr9+b6If2lje/Vs45a52cecZKLwMCkTHSiDBzuzmqbouUL8xIdmqbPP7EPbLu5FPQqFB3m9XkaOiehogZQYbhfDJK0pTzF31rQwBazL1tZ9sQgNqRUpvbqIrx0AhrU1p6MzWpPcL9CjQPB0TzbNpIRzBZIMvQTgg2bFtGeued27bBR2PKX7ztbfK8550vgz0AFphSfoyMfpwYTLFCiX3dkecDHxF7f5XgZM5A5fmDV/6efO1rX5MnNzwmL37FH6EvvCkTExOKvCzKVtB2UhH+j6L1TyaTQR5QwT/REIAWdWfb2zgMw7cnp7a2UmGS8FeyLVlxIzp4CTKKZxotgZLoIsvJz/fscuECkLo70dkUfiLbQhvl7LichmaMX7n2X+Wlv6PBZ2ZWBG4g1WoajU3RCJJEaQArOowBbA6ZHfFJDX3fv/ilf5epbE5e/opXo4Fhn1x80eXyH1++Tnbu3ImoWFK9eOxcLqe0It1l1sMfDZZhImLbd7e9DUMAak9O7W0VJgK1J6eWrXQTRAvhdEdiaL9jMoEQpk+piA4g0D7Gdm4HK2OjnJscmzlh5ZLpf/vCR2XdiWloN7rJahx0kOwydM2/XSdXX/kSWbPyePned/8HAITQOzqgVqtU8i354Y9+AR7rpAxvnwXIJeR5z3+BfOrTX5Lrv/19aD851bXDQhNGRr8qFZ1Z3UJozzsLMoDQBFv0Dd7HDqEJFqBElQkWPqRtS1T5aJh1TMJ7j1SePemjACQTvqEq+p11d6Rnc6Mj4+vWrNj5z5/58GCHI7uqeYlkEpKGfhJHy57E37znU9Vrv3JtYsVQ/2xXpjeFJsrTCHx153OIgCUNuenm22XFyuPQL21KVq1di84cMNvQDLFUNRE9q0pnz6BqeFgFhzbbBpFkzYLNx/5piqYWGhhvawg/bd/atjcMAahtUe17Q/WQhoGwfQuqZYtKuaZrtthGCFnIMfhtkmj5U4fmki3ki9nhXSOnr139qw+89y8fTzfMJU5RapbbMCMFiUeq1fRN//XT1Gc/89H1p6w5a3Tjw4+ayXh0x/p1Zz4xM1Fan+mJ9T+1aVSS8ClNTufQ2hrRsaQu+UCitLztL94pA8tXSzLVKdmZPEy+GnxAZNhm9AtJiGTqh3Oa1hc94ge77GVRgnuGbBwCUIA3UmOP54oOcNxn8lBzLXug9bB9D0wwF50+ysVCrZIrZu1C8ak3vf6P/ztlGROFbBmphPWN1RJ6deRmOnK52amUGUm894/f+qLh7TtOv+qcs+8+/ZST7xh7cutMZ3ztn0vKekG1lEsMDA0siUSnDdNJCKozJAen9Qc++Gm09UlDA4OZBs1HtXyG9qU6vCIHiB0+TGY2qpIMFXlrpxj/mXyrDsq1hQAUpFhDNX3R0rQBAA3k3LCVkIPOqTWATzaXlUilkutLJDf/6Vv/5Cc9KeeRetWdKrgFpj3nsI1brdZGqxUyIZkzp5227ksrl6+MmpGInc50ZMfHpqzSXY/+bSzhfGfn9MjVPWuWXoK0xOOXLhscoJb6vg99TH75699Kf/8KFWovw/wzrZhi/KEWRj8QTcIIz2vuikLretF3d987hAC0bxm1vcWh54Nu+9QOyoY+x47PSeSTijFX5+mWZn0XEv1KABz2jXfQbicFz3LdLUutmK13GMbISUtX/HD1QMc38JAWkZmcR4SqsvbsodZIFP9msRYX3ZVRL5UfX3uTNVso3mObyYcyZuftx5049A/bZ930y179ttj2HaNGz9CQFMuopDdSAjxDASvrvtj2mZ1ho14L7DKc3Mr68pbQCxT0gxQCUMASPZYeUQJPTZU+aEIvAhDLJHy+nYUdO1StF+St1zpTsIo3LgpFq0gCJLeRBedOX8oYs6dn7n/F7zz/i3ErUrTMRmnt2f2tALPPu/a8111VuO6fv2vBmIrUtuzc8D93btr179/69tKxmWmjb8kg2qUhrF+aFSvO7rIWjo8CVmhhNl4VmGBUfRwTjQ4b+rBhgsU+Rb5fG4QAtF9i2/NOxxL4+BIg+Oguptq5q2TgawzsdKpKvfjBnHS0M0Wz/rArq8r/cRqSnd4lQ52x2SfvvHfk/X/+V1+OW/WcYxvVE5+9fFHgw1O49u+vM3aNT0SzZffUa278xfsfGR49dWjlqtTSzgEpVwuqmWIq3QUE1Veiq8w01ezc4l0IATbsShjgTJkbKgSggyJWzaB3cIY+skbVZRG6bEKxJs4zkNjvVE9rFnT6xabNVmD4jOH2JDKUd+3YJOmY4W585LHpl1394q8vHey5PZFMNE677PhFgw+POD41aW/ZvuOCG2/71buTQ2tOHliytAdAGYmCcsNyklKs5JW/x2yDz1oRAXna25El/aP/bMJExIN0D48F9NEmVwv4KJ2G79mZdY5EDIUUHnG+5pBWBGMN/duXQNh9JjspiXhUclNTMx2x1P0XXXTh1zKZTlBq2PsFPp/50DXR0cmpE37z4INvdLq6Tuoe7OszbStSRl4RNTFGuir4O5nILO7uq0BYuAQpgRCAgpQmxzoWkKdFZvT5kObUX88Xp9+xQ4ORJh7ziez1XI6iBCM/OyUD3V2z8EiP/K8/es034radR0lG8czLT9qvlhfQfuT+Rx993XixcPZxp5zSuWtiMprLF1RtVx6FY4VCSRKJFEL9LDZtawqEwBP0PPHGa0v6B+nYz+RhjwkY0u2ZPQBSmo9vgvmAQ7tF95TXAW39vtUfVCnlZLC3s/bAnb+dfuHlV3xrWV/PzYlkqn7elSfPlaIv4kn55Pu/6IxOTFz6xPC2Z/UuW963cdtwmtpUb2+/lBFtq8DsiqLgFexkoOFY1CHCxoSLuA/tbhr6gNqVVDvbsc8WVaBjqIOm9i/rBoE+YTxF5Xdzb4rN757Rokug+AHFozlJ2uZYXzxx39mnnXJdMhYr2baVa0fce9omXyhE7nrggdem+/pXRhOZjngHaA8jUdkO7meS1A8tWwoTrCIzM1mQ1PdKqdDGobwMU91FLVyClEAIQEFKs9UEOyZ0IK81T+t16yB807RRLmrIws8V0k5qnSeEdD9EoSrZJx95bPi9b3/Hv2TsyM54zMlf8LyT9kt6n/3YV2M7xsbWFVw5rlio9jlIYq6gqLWBVKG+gX6V7ZzNZhX5fHdnj0yDLzqmSi+ePm/Je0RAR7RfpxX0E/aMGi80wYK9nbqBptdHKtihj9DRvFC7f3atjRIJPqS3YNscE8hTZ60XEv5sFnrWyoIc6GJ2x/DYy5/3wm92x5xHU8lE8dIXrWsLDfao/RRLxsjoxHOKEhlcuvK4KEg8EPGKioEMa9J7kBOI4MOF5lcMhPZtqjS0HdmCo83Nj9B7dQSeVghAQd4UZYIde8t8SlXt5vFbKidQWFoqFxTPjwPgmZ4aR24fO1A0GhM7tk8v7+i6/bSTTvxhX3fH2FUvP9fPat4vIeZLRXvnxPRZTiKTqAEJFQB6eUpseKgXj39xcTdKqXS4u+F82a87s/edQoEGLFBqQMeQC2g36fmZztSE+JoBYXwPGgKOj42At6ckKfBk5LNT4tRqE/Xp6S0vvvr5/znQndkMTuZFeYQXHvjzn/x2BDSqzqNPbFzmRJO2W9cROPad95OyVPcNBUQahCLYpr1FtztBs8J2d2hv2HCr9mKQoZwWLQF6ohe909G4gwYaxMO8ANecCaYnOlsc70AX0j7046pWCsi9iUpHzCoPP7Eh//pX/cF3j18xdGdXZ4d56UvPPiCBAXzQuMuKT8/mUhErGnXVHfAINOYaz+OcfH7p9qXtpSHSmRWaYO2Lra0tQyd0W2IKN9qbBHyNZ16msIqMeWF5TP5EMopuE5MyONCL7qUzMjm2o/aKl7zwwcsuOOubBrSWi19y5viBSrhScw20Z16WSGdiEcuJ1Q0mPwKAfNMrgip3BXFUYnSNu18+0uaxqQGFANSmsNrdLASgdiXV7nZzv+MH9Ive7uEO53Z+P3c1LalxqDWRR4MPJz+5dTLQegozZZhek5KfmZArLr0w+863/9F92eHpKvpwHZDp5V9/sVSycsXSKV39PTEkOyJwDqZF6mCeycXYXNPjzEztxQlO61ChCbY4qbWx9SLvQxsjHsObeGSIvsvhmJAEDRp1wS26gW+OUQBxlFg8/sRjcuIJa0CxWpDzn32ufPYz7+7p7cgsz6TjUYTdvbYTByauQqkU2bZjx7m2E0+S2IzkPZrAh9k7IJhnNWmzz4/vB1pUwM1nGzmwEw33nieBUAM66h+IhZOond8Ulk60Xvie92kNqe8mJhXq8uu9fIOGa+Q8K3UBfMrQOvJTM3LqCavkkfvvkNe/5lXyjre/XMyaTFI5AX1qNVJnPfyBL+ALcrZs3TpUi2WcOADIVQDEccnnQ+oPHkZThszlIrUjq+a5eaSIB36u4QhzEljUHQgF9/QS0GSsh9JNQLMC5VL+S0V39MsvFDWAIs2/vZot1m2hJFO9mKhXr1a8TqPMGESDPrTDaYCjmYyAddCVsrVNlNw4YICvopwBI6quEeweWsb32Bx5PczzcZF54wpoNCSO5D+zPC2V6WEZTJvyqY+8X97z5y8XJOcgCceNWI1qPuYY1oqzlx0wAH3yf3+ZOOZsHR7pRo94dGc2pZjTHM/62nVxbATlF37VvgIiT05tPNfqxoaZ0G1IapGbhBrQIgW2z821C+QQLr4q03pU73fFt4vm9zied26diE7V0EqU/bkUDSkmLyNXSsFBPgH/LgNhmFAIwmb0S7cUgyHfx9FBVNBZoorSBgIXcgxVR1JQGuLzgpj1srzpdX8oV1x8gZxz5gqlGVXRn8tOmGCHN/uixRoo4g98wbmbYDc82Y46GcOIOJSEzzXNlIhGBGRjBCCPg0hpRNSNfL9Ve6cAH1B7G4ZbtS+BEIDal9U+tzw8pMGeB3jB2alyCFaeq8WjCmu+11oBTazRSfAvgwje789lgi+H0SMuBCAHeTv1UgkAxe4V2M4hX3IEpF4ldBQdl+6ejNKiHNsCrakto7t2Sik3Lc+9/GJ5zat+X844dbmk0IGCjiIoSBIh0bsOQDmWY9mlrTkztiKlWk/s71KplM3x8clzYuDXQJsfNvdS10MQqvGg3rLQiRPGtPZX4sHtFwJQcLJUIx1aE8w/+VZ/jJ+u4mtB9H/o7chCqH/1NfioKBHAx0F5Al9cyiBpr7HNKFECwaR8nk37ohIDaZgaA6AUjVngTU7gc0xwFJMm7IYU8pNSrDnyoqsuk99H++N1J2ZUsJtnUUQPrkohL12dSbHAsQwEIyYmUZORchroHggL7kBuQ7laiWzatvXcZEdHQqCh6XOHxuNpLLz8VqK0p1EI934aSCoKNaADuUt73jcEoABluiAKdkgUdsPL5m06jNXPOiNTHgC1aD2KBFUlDmofEfeB1qCiRS78QmriQkOJWqif4gTGrE0lO2V2Oou+WWPYF94ffM4OFhFEzx0zBi6fCTlu7XK57HevludecbmsWRVXR2a3UrJdAKuQfIj2yaBdVeCnkpHroCU0O2GvnRJxGxuweWl/b8O//N3XAD47l4xMjg/2H3eiXYfW4y918Ez7PjG/Yn9/j3NIbub+ntxRvF8IQEfxzZsj09L8yvPJtVrjC9R49DYISKsr1qFylo00YBppjYf+nigcOQY+h1mDsHlZxqHZ8H03lQvA2i7QWuTzs7LkjDPkikueLS97yZVoh9wvGbBelAEjzOpB7SnGAtshdRvMXNPLC1JWIYtSDTQWdCv9AL7zxTIeaIwjHagRmTb7rEVrQvD/OIVy6SKoY0PQ4uIVYBvzBVVfd3W81px0X05hTvOR8tiHABTgndCR30Prgtaaz0Lwae+iwC8B2lPlsoVmUoOfJy+5Qln97UATcqBNjE/tUj4eo7dbLrjgfLnyz98gZ555pqxc3iHAJJCt6t59xLc0rDR0upHpyRxMNAdk847SuEiBqsaklxqnWscObqPWH3Wcc3CgN6Nb4K1GrXFvfdKdAHDMuvVGIdoPlvp9LN/84o8iW4d3RB/fvPlqJ5Xshl4XA5ABgFoDa7Sd9sB72OQnah/zDu2d3dfVPzO+DwEo0PvYEgLb5/QJ9MB6MM/80m/mR7dVJrB6Kc+P3iRSldLsLCgyNAAVUCRaQPi6uzMtJx1/qpx4/Gq59JJL5JSTj5e1qzo137N32srMwjD0KWN3tVSrDQCSK/3dUIe8pQS1KAYwgltYaVsVOK+paVnRWAI4sQpwEUeT5RU498sAFBvNcuR+s1rb6I6XJ1DfNekMxJu0rFvv326sOEOH7X/23TuMHbtG7Vojkn7wiQ1r+lcfH2e0zmsKhC1IeA/TUl0ndmmCEpMS2XrZk9JiUCXszRz4QxsCUMAiVQ7PgMd8uuGSqYxHsmWD67gAs6kmnZ0AC/hqGFqnf4e+EGoFNH8Msw6NhdpOGX6gskxs2SBLlg3JeeedLc95zmVy4fkXyOpVPRIDqHCm04ryr2khABGR9LVqQEMQTE38VvCjJtSsPsfGDvh5uJC4BBUTGezKlqQ9+Gg1UOF0SUQuhEY2gvylXUaltq0xXRqrFMulaq2xFa3i3c13b5rK5YszExMzcFRF6sOT42/uXbGyt9ZoROOI4LHNchTpAcTiSqWE66XjaU8S9E3U9jWgQ3tnD+FDdBgPFQJQkMLXM/WQ6j5k9aO/g6+uri6VDDg5Oalazgz09slsbkbi8AQ3Gq7E4jZAwpQdO3bh+6qcjAzlr/7bP8iSgS5ZtqxPbMxJH2S0K1tPuTng8bUqahR7Edxi0TcSIUJ1Y8AOvAYAVuATq+ehvuQlhi6FjlmwkykXxlwuUU5NlPKlu63R7K+qNXd0tlZx73n44WfnK+Wu3v5ex7QcqZUArAReOsq9UgwFgItM+ll4dcplFuSzEo6lJBACUIAPgn5AD+1jSrMm3dkBjuMZsPwVEbVKovo8DjCJwAcDrSiHJEI4kyOGK9s37YKGlJfnXnm5vO2tb5ZLzz9ePQA+yPhn71aRDd3QWpNmEGwx3Qg8TXIv3/e0P9fsHZXjqTGRAYlTxhrJiZFeT5QN0vpAVyLi1SRhFGC5XZi27BdZHbG7hvPl2ce3bFmT6BuKowZMmV9MlFTkhczk5rAq7OYdQw2q0xR0A8LFJWED0A7pj0uAj+YRO1QIQEHemmb9kRr0oD+sau4CaPyMZR1OB3CwlAJ3dnTXDkyziqQTcZlE0uCpJ66Qv/qLt8qLX4Tgk3fdXDfq8AUhZo4aBsVcaDJXRzmmufZNFE/raYKPLzj6vTip94S9i5vg82+FYpeMNAhM0GdwFjTw4jitHjNh9yesxNDPf/ubRrILqZC9fXEXoMKkQwKmidKRGsJxuvvqPm6FV73fxmMAHNwfoG1j5GN4kxCAjvKbn0glZRodHhhhyiTTkpuZRg1UCWHxjKTirIGyZHTnNrnqikvlve/+SzlhbTdVCphqSCgE0BgwzchekYzDFQNfUQ2+IQIawUzlAjWJK3yHj59fROTywGcf5BZ7RuL2wclFYWsE+YochxE3KxbpGJ0yem+67TarZ2AgEYkl0GgQXzRYRgIzDOYnTVIbMuHfc8vcmfj2VJuQorCeZthR/rgccacfAlDAt0T9SB5CW4wRJZ3JbMnU9AQyk0syAArUBhzMU5MTsnP7Rrn2S5+TV73icpWZTIvEJpG8hUJNnChrulDAqRzUEYTdDVQy+AC0T9F4SY6+8qPW8zShltbMexysNVepdQN/nhOkWGuGMhBcpzLacBH89oGHH81M5wuJdAokPTC3QEgG7cdRwFMsFpWvS/mA5nFBLzze3o6/tytvE672KbhwA18CIQAF+Swo2irO8iAHffqxsvD9mAg/JeH7KeRm1bqKjhM7Nj8py4Z65f777pbOBADGw0XLQOFppQjwqaHIFE36Eh3NxD3+xHNKwuyBFgU/kNIidNTKX1ovrXU6qgxrAsQe52jrRNeaj9Ks2pQTa7r8kD/3nZgQ+cF//yjV0dEJNAXo4MQVBStMxpqK+CEdAKBaQVkJkyC5PC21SDu3i6XwIf60I6lFbbPYn4BFDX5sbkz7BSaAUgVazAxSQiBLV02+BRNv3/PQz+FZuGbGsSNT45MyMTYOzUZgdjkyNrJNhvo75Jtfv1ZWL43JYB8KTJHsXFW90TlnEVOCSyUaT+tbxJkF1UJlEDM8jvemZSvw8X3E/lpNZu/Gtn5HT5Eykbzv92RgcfQ5BbFlkN0eFD+UqB9P23CQYV1FDpE+xhObtsuPfvILSWT63HSmW7X9odPZxUXSeU5tMIpWPCUU0WrOIt/N3oognizb8Ct7zU5aRXBsPtoH4apDDShQoeK3FzOB9A/I//XUf5g18E3oRRdItlZlu8wM5vz3UcgzGfx5QT8Mf9H97/m3v7iYjtViA62NB+F4LqO0ypTcxIhkonW54ZvXyLoTupTZpZoiqxwd/KN2x3kAYLg0YVJhkJ7we9Ny/OP6U9rfl9qJt6vahGadyrJGGx46uE2cF0s7eKE0GY0IHjuvRqKUn5FYKqU6iYBWVeJo4+NHqFTbZ1UAgjOHaQjfskyDP/Hjn/q8DK46rTYyNWNlGrqMLBkDNQiv0zvJYqmg6EJ06UmrtkVfFrOjF912PnRCN5+84P4INaDgZOlNXerqNVgYqL5SD7onYoalPGIsNVHULJ/TE/w2Nn7rqSaVTwvgNKhf+K1l4DwmKKXjCZmdmlR+HRK+i1uU227+ASJeA8qcYvdREo+pY/nI0qq6qOtvye9p473m1Zmb7AtNExsmE6k7OK4CI/wVZYNAOrXpAVckPRRXA+CTAHiWSOHsgQ/KOZTj2A/xI6EQmhuUGpheroyMVuWxDU/J2PSs1dHTpxzPmuvHOx/N3txyV/1x5sbTJ+9v144zvKn87FtZDfR5euYPFgJQkPdYzwL9I7zXHoXzH3hNi0GTQ79UixtVNKor2tVL0Wfoz/hiyFlXu9cROndhdlmgw5jGRC7Kd274pqxcmpRcjn4eno6Xw6NKEVpAqMUWmhvZP0J7a44HHjKxPL8X//a1I9aC0icTtdGYkGXx+IZ+mQh4gwBLHpDqiU2ncevCLqZ60Y8nzSliVk+PKX/6xjeW+7oyM10dyUZnOn2o8j5D8yvIebLg5+EgDX2MDjvPUem/WYjzTI7zgKjJq9y6jUYH33HKiaw7wszvDkyNaGZ6TNB0Qoozu+QTH/+QrF7RqxAwASIxOpq1V4bmICe9N/F5a7xTm9NmfK2m/bUCLgMhcp4ZNAoEnnTDG3V5DFeZaIlcRWY2NDNkFKJv19xDwQp8gCd3TgBIfC2MM135dLxPuL8aEh985ZpvT48Pbx0Bt1ChuzNTzk6zm087GkxQz2LICBSUJP1xQg0oWIl61fCYjs0WDHs7wJyp0Krp+H/7zlPl1FVaEieh1nxoVNGwIUNWV8aRydFN8u53vk3OOeMk6UAecQ0hobqL7Od5LuEWB/a8ZEKOpn/g92dN/lNUncEJjBIIz8nsguKVYEQr7KYf34YkyKziIPPrQRny15YpP6TapMG1CD8Rz5I09XlPK6LZ5uJ6dmwbrv3XV7/62Efe9Z5XT+/aOTm8dRM8zhqcDtFybPbdPsjCDQEoUAFjIjFfXyfxYj7T+dmiEvltgZsRMk8TWuB4XvirTsezcj5jO5Wj43kiqL0UcxOyammP/PGrflfWLE9D4wBfM9rfJJETU67StPFMMLXm8XzdokULUzLwz3Oxa01u7yL7mnsqGh4vM5pk9dd/+3sAHriSIQomBZYALKptF9IBXNUSTPuD8sUSIm866mYjrcBlOQX+Zv4PWRo/8u6/3vLxD3/0h2tW9ZVOO/WkyahtINWZfrBDpgGFZligc0UPFgJQgEL128Dscch54NPayYKAQi2k9aX1HINggxmtNQtMNDhZdCcHdqxgpKkKCo0x+cw/fgyFpyg/qNQlBW9tGjYZt4vafg6PH4b2bve8WPjCMPVi3hNwdKmGjUp0LlRoqP0QPe6/9zGZBpvi4OAShW8GomIuEcoHQ65ZuwUPNJqZqoqOiSxAk2YZrmECIa8nntiS/8s3vu3uP3/rOz8GQH9LxLBe8cLnPe+WqYmRsmO3EUMP5v7q34C2M5eCOeixMEoIQIHeZaU9wPhSk3gvERNf69GZM/TT0FQy+WuOtX7pz/zWOVzzM35nMnyMlwYsV675t8/J+nNPUXMabW7U5GY30iK0Bm1coRJeVX7xpeNiypc078Vt+Nni1hyLIXjFvaPC+lh7+IW6WLnjzrtl7Zrjpa8PoXVsZ0LzSSDMzsXF9Zpo9aPVChwbO2bzdbnj7gekhG0LuMyf3PbL0nPOv2z4uRe/5OMzk4WbpiYLXbmZytrjVy+7yWw0JqFBQe06lBpQ6AMKdLqEGlDQ4tRKgPoJV2aYgczktOLpYVauA9OiUMgprcGFEzYGUndiRjWfRZgZ2gtoMxyYJg44e8ArgegSShCg5URZOlFnVm8VDmdDdmx9EjO4JJ/51CfkeVc+24MUF+UIJSkg/6WBvBvHSQKEGG9ipy5oR82XD2XaPY0OO8rn0qqX8H0RgahcoQozjmAx/3v/vYJKJDKhFSGuR3uQCshLIigxLedHP75JXvqy31XvyxXkLPGAUBNn8nnlVAeHDz6wATw66nXrz38tf/zGP5XvfP+nsnO0JG9927tyf/bmv/4yykPu3DU2U1//u8+KTU7kEtnpkvlHr/yDu7du3BhIW+d2ngLvjoZh+HaEtYhtwkTERQhr35sq24bAo8CHC0nBGNUZHOyXRx59UE5cuwo1W6MgDUsqIjGaLrZJZsIJKbAYFH4S9tliA0B6bbl/JwiX+Xl2akpOPPlkedc73ipXXnGVXLh+EPVeORnoTqhkvwiBB3eUYDIDBEkgR4gztNXiIggwzQYRcc1k6G3PKBMP6VtFtN5Q2qn2VbihkVX7eZTjWS82umMoXQ6fTU+XpbNDm3033XK3TM1MyfkXnaH8P1Hl99H7sGLdgulFDW1qtoAomB7jn/7lC7Jk+fHy7//5Tfnnz10jp5xy3tiaE066uQZnFgjxizf8681PQrRnxGP21jPPWPdY34+62dZ5jn5x3zdof7dQipq2wsIlSAmEABSkNJtT1Pf8GnAKlxXFxRTAo7e3F/k5szBDYjIyshOZwuzfV0HInMWkjhx33IlgJjxPTjrpBOU3sRFGymQyitunuzsKMFIKBCa5BgKaOb0t9Ke8FBaFszEEe7L7ub5bdhZkw4bHZcuWLbJ9+3b1mkBBFdkDO5hLwz5aSDOOJ2OgY+2RvoFe6e8dkCSAYbB/SDq6Mlj3ADTngAiBLgVkqPwQcICBAxqABr/NLBKTH3t0o/zn178qL/u931MJhkwDQiqPWlyoVyhKwV/UnFDDlkb1Ot595vPfkompsnT3LwEQQosyErJzerpntm6/uDud/HmjXHy4Wi6em4jF3t7b39M3eNzAiquf//zIbb++P9A7uMfBFOwwAqBucLgEKIEQgAIUpop+6XAV4uDaB0SWwm3D2wEgnTBDUCiJCblp8yZUa8O1DLrQv3zLm+TySy6Uk09aCzIxfTLsLgHMamouBQAN37OwEpacSp8hyGRg5uRmigAbfAmQyuYr6NkFRMB39OXefMvt8n8//6+yZduwjI9PqRowAprftA+k8PhuXGUrM3ReJYcOWS1o8tGPBUWumC+p9wSodEcKZPSr5LQz1snZZ54jK1cul/6+Hunvj+JaBCAr8s3rvibf++71Mrxtk3zkYx8S7I59MXeh/jBgxcJSRskopipsuRySxsenG/LF//iq9A6tlGiqRyrYKZNmGYXd/8F//PSbfufKKy64+rKLv5E2ynf09HXckezrfW/PsvQLXv3aP0oeEgBq5m2HABTgdFFDhQAUoES9UInuaszfTPxF/w9NMNYl1VAmMTW5U1784hfJ//rjV8u5ZyyXDDSDGKP11A6YVYyJjICQWmgWFfNVcPto9YF6A2pP5y0ZoBBNrukcOv2l8CU2+uYNP5dPffpzsmV4RIaWr0SviC7pW9rbdAArnxTMvAZApY4EQdaAOaT1wLHZMRVwBD830xxdgA4cxQAifl4BQG0CYD2+5Wb5/o23qdIKvqipzcxOShoaVG8P6roAMm/80zdL70Cn6gvmcwqRkD4e5cVFcF0Ix4PFkMD6ib//rNixDtR6pWQWPqTRyaLKb4olu2Xp6uTQnQ8/lLnltltOO/uMdVNXXvUc49SO7jXlkYZVphp26BadAxEugUogBKAAxanawehgbTP7hz4cgg/Nn6ElvTCtBuXd736nnLAKnSFwbDUdYZZwEtO3wokZZxgdw7CrgwNaVVVTBXunDLKwWCyJ/Dsk/VEFQpU4DzQ5VZFMlyPDu6ryjvf8DfwvP5OugaXS0bsMjmgTUSW2x3GQLhhX2o+BUL2JDGaVxgdw4XnXocIwgUkREALFyA3ESNssmRLZkhlRLhPoZ2PfFJsXRuMKWPGNIrkfXLpKstMjIAuzJJ/LyVXPv1r5mXy/Ecg9sK/XfRX94WPYn+Vx//3Tx+XHP/mZDK1YC+CKAcgq0t23BCYbnNNgcTRwrUv6epMwXZOPbd408MS//4difRxD/Vs0npGevhUB3sG9DaWAx0+oOgTHO3YOEYbhA7zXDcSavR9JphWrmDz6OQBcorJ27RrZvHkjHM9Tcs0118iGTTnPEwIAGd+Byc+8HgAMImDo2gfNAu8RBYOXCP8XVaQsRnWCWceo+aoWZ0BRUVBaUwfA58tfuVEuuvhy+fWv75LVx50MDKFjF36ddC8maicmrQMwqcMfQ/84tCa8KohgJTPogJHqFDMKYAOgIe4mLtkHTYCgDcCKpdSanxXRdidXqkFLqap1rsgWNzH0DitgXPiRAI5FaCXnnLdelq9cpmZsAdE6uNXVtTJOVgb4WFDzSCz20IM75K/f979l3RlnSxUAOJmFtphAowyA5Y5dU9LRPYhziqrr6B8YAvc1NKp4EhpiQpYsWQbw6Q3w7j39UF4yeqgBBSzxUAMKUKCqG6eizlDPKS0X5ZthseUUaraWLl0OP0hZvve9G+W6b31DnnvhubI02ZAO2GBvf/vboEUslRKaA1KLKMNMisJZ7ZOrm2w1qkJWCHrH0ko7qtUsefCxYfn4P3xWfvLTX0pv3yD26ZIZNhdE3ZUB4BsdHYdfKKGIynh+1Mg04yFcwAh10Rzj5w0gWQ1rjmtAdVG5hNCGqGiRiUv9UjGcxcRIfE9Nii/HjklfN+rPTHiicb2jozvkta95v3TDbFRBNgxAfuY6AI3a0hSKZPu64wIKI/nfH/57SXX0y9jENMZKSAcq5mfRBNEFEPd0ZGQW9LL0oe0aG0HTQ/b5grnnIKcIhGrMJ5rOzkITwzm1JJsHeDtbh/I0oNAEC1q+IQAFKNFrb/hY4+VX/5UekQ4g1jzhmTVJRQEzxcYkyyPDruZGAUbL5PbfPCC10Sflxm99VQaXrFRafiKRQnQKuT+YYC7yhdhqhuqUYcVlGvkySXS8YCRsx3BObvnZ7fLRf/iCVCNRSXSvRhgfPqccs6zpeIGjF6yGLMlg4mK9nFOnpbxJ/oT1fs9V62T4gWhq6e418KGT2B65SgRAmnmWCvPDKFNABWc6tJho0pA8esYz+dBBvpIBbp6XPf9yefa61aDUgDaD8cAIBBCCOZUDOX4KvNW9cbnrwYL806e/KI9vy0m6r0+VgvE4zG1KejQeUsspbZDtoZOg7KAHm2YcxIjzSIE7iOH8DsUScLAXLaZDlnV9sC/niBo/BKCAb4dXs6W1H0wYhuCpKVDbmJiaVV1H+es9vH0nJm1EvvKf18kFF5/nnQUzgtFFFJoH86BpLanaKuTM0NSKpeLKb3PXPdvli1/8D7nltl+LleqDecR95tQA/2+d/9Om1UAQ8sCpdU0w0u93X6vcaaBXHSZhdmYS2+XkT970Bh29A1K4EIILUHSgiaXhIEfGgWzdXpf3f+gTWE8h5+cEmHIz2NobW6c04r0u72hdNNAcfLDZy+PQphADfpiOgeFCAAr4Jtd1cWQTDQgGNHNSYP0rIUuZfxdLOfX+ox/8mFx+1SlSY6EmXTNeNKyGaahMIJgtXNR0xJ16ageynz/7BfnBjT+GFhKRVKYPIOWRr3vXsScgCvgS5w1HbSiVTgEg8/LCq6+SFSu7oP3QUgTwwqekrDYFMSLf+Ob/yL9f+y1cKEAYOUbl6iFLZD4wEWj4CUHowKS4x71DAApYqA1wZrRGa0lBOoGCTIarGTVKJqPIB9JAtAs8zrf8cot0I5TO7WIpJA8yCxo+kwS0nQISgmpw6j70yKPyjetukLvvug9NBzvRVx2ZiEClOPiQSzOzzStoaj6HiD2dUbskwGdsbKcsHeyVVyO1gEmHSWYDwHQkEFFz27ptRD704f8jwyNTcIwh2bEHrYHgvB7ZNYZQu5dzEPB9CIc7OiQQAlDA98nTgPzos6oBo7ZDM6yI8og86qD4fjY7Lf/yuc9LdnJKRb0IHjZY5V1oFFR/TCQqTmObdLoTyXzIEO7pl/5lJ8hMDiH4aAr+EUce27gdGcvd8zpRLNSADnbqCnODmKj4qte8VpYM6VLXWSRBsiTk3ns3y8033yw33vjfcsJJpwGsTBlD6ci2nSPS2dUnfYO6dfRRsxx8Z/dRI4qgTjQEoKAk6Y0DDUjr6p4WQgAykD/DDGDmA01PjqLswkSFeJ+qBVux6nilDdFQYTeHCoi9yojycP/ueBc0orosR3udahW1YHBgm1ZSxrNonY48ntOQjTw6vLlpHRxqDYjnPIOmiCevO1XOOPMkGZ1GlvcTk3LrT26We++8U+U+Meq2fMVKeXLjMDS3pHT1DSDXp4jEQ0boRpHzdNRoQCH8BDxXOFwIQAELtb4gUkttZwxaDmvCenqQkQzgKaE/ew7JegSnqdm8CoOzUr6qspBR1sAoFMZJpZPKec1QOtsNJ6ENVVFNmkwhaxiO582bt0gCmhLtsVbNJ+BLetrhWD+2eetmee3r3ya56WkVzVoyNCS5qawsXX4iTLC6ZGdnkFE9JImONApyN8gAIoBT2LYHZRwFaIRHx6J/Vo6Ocz16zjIEoIDv1UKTh3VWnUigo4+HGg+SWAAgMRXmZjSMva4U5Rh8P1mAET9jr6tyuYjJbMgkGg+mCTgIgzMEbiKkzcgWs48Vtw6SFPfmeObnB9MEY3ierYF4jawxI/VIAxQgFvw/HajQZ6IiM6gTyR4UyboyvWNcVq49HiH5GYmj8G0mn4PJ5rP4B3wjAh4O8BOCT8AyDTWggyBQ71dSNQXm8DRBGELmmmYYWx9T8yELIiculVCV54NXCvQZtN9Auq52rkF7iKFknvk8yOTBJ562o1L6mOcDkrIF6SmtgHMwwccXnWq1A39UGefIejHYiAAb9pxngiC0Oi+izm4fdjwFcxPUq9iG8lDAGcaWDs5TeJSMGmpAQd+oRU8osuJoggo20WP+kF9i6bcz5Ce6DY/PzOODkU8oH/RF7N94mmhDE+e7Km9HazfaeGleofpAVdwfXeij06rCJVAJhAAUqDgX+YhiEoKpQi2KxkxRdGk6s90XH3T8b7RqcSgygZ9eRMyenqtKn9eDHRelAHUP01Z/1ISnoO9CON5RIoEQgAK+Ufvn0dDlDq3Lnn9q59NPzOHU4ckQ9rkfFQgqHmyeH/Q2FtF6/c52Bx/vGtgl1gPcgG/BQRlu0YrtQTmLZ96gIQAFfE/p11hMHuDcBNUg4msM87WgFuDZjYT98ICPFpsuj2g9V9X1VCk3XLeem4ZU5RtqLgQu1pqE0zvgx/CoGS4EoKBv1SIdG9R8fJJSngqJ3tXaU4Hma0KeGUbTzTdtDvfcVc5mHyB5JTS5WjU1D3CaHWC9a5i3X9A34aCMd7glfVAu6nAPGgJQwHdAlcBrN+s+H1iv+5eiK/XLLxeacFq78CaxQiM9uZXmNE+bCPhC2hxOnZJnfikzklxG80CIHK/a3GLETxF7eBJS+x26tjptXtFeNwtVtQOV4B72DwEoYKHC/AI2oJ0gtZSWsZtmCuPzLdCk+Ftbz6HlS/6pOlD4G2DCeoZM68gBX8Eih+MFeOesqDx4hsr5TIZHamqtUpiL3gUWT5rXebZVkrv71dSVLQBtX8Ok4qrSIZoynweOyCJotpRdpIDCzZ9OAiEABfx8mIYBmnVwI6Iko862EciFYUV4s52yIvfSEV0Sfc1pPlq7UR1QPS3Hn7qaDszzt5D9nXuDz5ShbBW833PYLOAr28twTcDUZ6vI7D0cMHxy+4W7KqRqCf/t75kCfAzyulIKlEXTn0TwIVvjHIsqZU3waeIPtTJsr1oxevqqOiNmHPq/CtinVEbOFqgHHCdWNc3DKej9FdKRvd/h9GAe2ZLZz7Nr1KvVuO0UKsWim0mltelBdnlv0cmBWuy6z/vCW6AnjeqMrjh4uNbtmPn4K+jCpON+XB9ZyxxQKl5pdX7zP2ueL0EoCOezAjw/CueP7oO4lrtWkkjU7ZmvvCvEo72QmfmnRXkn0GGxu7u7Njk+Rr7d3YmKjqwbcNSdTQhAAd+yVDKRnZndUenMZArjE6Pe6Ewx1Ez1fOj58M8RbNFrpHhPWyar2tD7bM8BeT2p5oflA76Uo2O4p/UhaU1z7qWBylCyJVcjtVDejzlAaordk22xlBe3XC7ZhjmD1tLgYQyXICUQAlCQ0uSjHmmMLulYdmt5djYbtazK3I/mXFcXKkSgDdLZza1agnr6F2gNzV/3hb4U7ePYU5JfwJd05A9HENot8kag0dqXNgt9rVEDvf8dWLA9fbMV6H3zELV34NUf2bZtatXyFffbpp098oVxdJ1hCEAB369URyZy4fkX3Lr9iYe39HdmJujlQQs+lmwqn4QLs4shdpek8urYeoL4ZpX6tSYI7Wa+6BNVASSlHM35igK+hKNqOMp0ftjfP33P9PMAXIOQ7kUdqftgREOXZSO4SwRz6pQ+mCGZkhnediQyXc3OPIgGjHdcf9PnwJMSLkFKIASgIKWJsb7w//622plJbjlp2XHXPXzPXTvRwWFaB9lphAGM2OEXIKRNMj9Hxv/1JfDwM89saObO+H4U/2R98DnGI8PNwNRCMG71C1F2BB6aup42xHcKxQFAvqWrgN3XpBjBRFvGWim77cmnNi/tG/pRdyazNeBHJRxO/fyGS+AS6OhMV84/7+xbBxKJ70fKpWG3UpzV8S6Geuf8Nn61Op2dBmwptVY+Ch9w5maH9hvhhY1aX4Gf/NE2oO/M3qNTmzLVlflzLw0+vkN/3uV6KVy8V/VaOe+WCtsH0un/Auvkb7/x/U8eLcRFR9UdDAHoINyuf/zS+2p9PR3bL1+//qtWLntDpJTfjLY4U5FGFY8+Q/MajHQRp6fFzEsO8m9Li4a0sFjsIJz3M2tIX6v0ZTj3qPsRRpX2oO4BI3LsQwJ6E7zQ+HHWLeQ2lXeNf2/5wMB3/+umf9r0zJLNkXM1IQAdpHvx9//+PndosGfLRWef/eXy9i1fKY+PbUjbjVH00avWEFkBGIFwvqTC9BYaY3EiVEFCX0cvLsc2xQZnTg1sZTTTfDPBC8p7fiCd63KsL8qk5UvDiI5stZhbxXxBsTSy9TX7l0HA6kV5sxstc5UsUBKw2aGJ92hgPbFtw2OPz24bvuGE5Su+2t2ReuJYl/HBvP49x3gP5hGPsbHf+6aPR0CpuvwHP77lUru/73cb6cQ5NcPs7ejpi01NZY0etB/O5QoAI5Cxonc6Cb5I3+q66LnF5urs2qcWH2y8nCIPfHbPIwpWwKrbKxaSqbHQVpOoofMFOq2SBdH/Ptijtj9aE4Sb+VRaXr5ceN41JIRW0WOeCzuT8EUQKgJ0GCBIJKIyOTZaBlX3qFmo3geqxu+vWrb8592dHU9++fqP7rOkpv2zDbdcKIEQgA7BM/GBt34yMj01E33ksY1n3PHwg79/+sUXXPT4ti0rOnsHUuh7nmRuItvvVCpQ//GGlKYGqEwJRlV2DCX8NLUdfz7oUo8QgDxg3gsAZZIJmZqaUt1G0uDYpkyRIYGkaVDaokVS3S1XauVCNuPEhkee2vTLE5av/kZ/b+/D1173kTDkfgjmRghAh0DI/iH+4o/+2t6xc2rFf//kf9Z3L1lxdT3pnGumMp11w85ETDtmRCyzBmrTKluiwgSz2ZZZ3SFdVzW3tIBQsz7s4FzI0a0B1aWGUooMyPCZjzUzi+6tAPjOrgwNtWp2ctd0XGTXziefug9tW29Zv379Lzs7M9v+7WsfOUo6Jh6ce34oRw0B6FBK2zvWn/3BeyNbt+084ee/+vWznYH+K6qOeVa5Xu9CM7AOakVdnb3IFzLxS43AixeqV/qO5+toLf7cYzQnwGs64gFIaYeMHs53OvssjVFwatP8wgpdRuLwqxVKYyM7Z/Mzk5NOqfLA7MjYbeevX3/rd2/61w0Bii0cqk0JHGnFRG2e9tG92ee/+UmqMBv+5BXv2blzbOr2+x557MydU5PPWXvG6WcnOrs6n9y8qTtXqqSHhlaYCNyTYlBfsE9f0VKBfnRL4sDOfp/OGUQWbTj0p7PZhlst5SuFaLY0mx2bGd318MqegdsGB7t+3XXmOY9H43bozT+wW7Hfe4ca0H6LLrgdX/uyd3eNjk/2PPjwhuOHJ3adN3TcSed0Dg4dNz6V7YjYsRT8QelGRMVwmpEvNIBWsGQyih/cqew20pGsATUN0b1oQJG6WxnftSPX19051agURyd2bL+nK5a4aclg/2M9nZlsIpkY/9JXPhQWmB7E52dfQx/MZ3dfxw6/XyCB17ziPdbsbKlvcjI3cO99D51WNsyzepYtXdewjRUIx0frlpE0bDNtmGbMrwFjgt1cCtEesipYc4a7rBgwmnfb326OrmJvN+PgAxBPqvV85s5EXVdLftQcGcacwlI3dEELF8Xl49bL6GeUQ8sidH6sjs9OjG8oTc/ed8Ka1bd3daW3xhPOtq9f/4l9Kk/hw3loJBAC0KGR86KP8soXvqsrXyinEcLvuevhe85pSPnsnsG1XfGu5AkV183Y8WhCLDtZN5xU1ImbDJGXy9Vm+J76EXtvcXJDexKLviQ4tlWzQlLnwBnLrOxaHY0NvdYcms9av1oXbsvoEdMCVBkJQvNstBiLxdS6dVnYHpphcHUsjyCS+/p/N+rIzbHQC415O6qJoqYucevopQZnvMrTwVnyGKqPGtpTk1uJLay5XQVNGU2n5lqmlBzDzEeqtZnsxNTkrs3bNll185Ghnv671qxZ+6RlGVk7Hhv7z29+KDS1Fv0kHtwdQgA6uPINZPSXXfX2zmKhmCoUi8mnNm5cPjy16+RkunuVlU4cn+ruXVFtSLLq1qIAG7BGmHHTxBSNRR20dTZ0FJ+TW99qF2sNAvwM1oeBl89o6AFPKwBxW74IQHz5C3OW2JlV5Sp5y5560/t5Q+osFgIbzwsEa6TDUB1SPbOSOU+ml6EcA7rU0DW2xgaP9CbXqgVcQck2zZJpuuVcbiKXHR8fyY1PbutLdz28ZsWae9PJ5CQ6so5HLHvyG//19yHoBPIUHpxBQgA6OHI9aKP+3lV/ZpXLlVShXE5PZmc7n9y4aU2uPHsCpvfKWEd/uqe/Z4npWH3VeiMOLchGpXfMMJAHbJmOaaHRvGnFCChMdGSOYSKZUlqSDzS+huObXtRyCCK+FsQLIxARfNj3nl1enw6A+J2vAfnaj79GuafE4zF0VgXgsMMqAciF8eRWKo1SrVSvIzsTahw+r8YAOADMXHZsanhqfHzcasjOZDy6tb+76/5MKjmTTsQLlu1M2bZT+sp3PhmG0Q/aExjswCEABSvPwzLacy95XdStNfqKhbI9MzPbvXnjpoGCFPudSKIzlkp1G7bdBY1owIw7KwFECbiNHJRjIqhvWqaRoG3G2Q8zjoqIYRkG/jYMVZrPvMhqrQKSa+ygFCBsYJmNdDpjZDJpaCe6rk2bUVrb8tcwqRrI8CYrPWhqWQDXqKo10o+hDbEro1tx82BLrdSAPdUGGt7XylWySY5X8sWJeqkyhZPIzkxMToOLZ3zJkqVbOjvSOxPxaMV2rBzOMm/ZZun6Gz8bajmH5ck78IOGAHTgMjwiR3jOs14ba9QjaUCDXa1WLJhvsdGx0cGRqZ3LXCkPCQo/HCudtJ1UHP3qo8CbOIAlatpOxnKMjGnbKcOM2A6+qtbKFgAIGKEybiKmFZF0qqOeyaTcUqkCZYRc1swWoHNJaTIeeSx0Hag58OpU67VGqe7W8ljnsJ4FNoGsrZovFrPFUjGHqojSjG1Zk31dfcNdnZ0j8Wi06Dh2DZoRLMxG/ge3fWH6iBR0eFIHJIEQgA5IfEfnzpec8we2haRHKD2xKgr0qd24bh3+Itd0q9VosVxKl4rFVKVaSeRnZuPwLzkw2hhkIthgjeQAI1qOJ5I1gBYzJOkIohpEblkE7KgsUcMxGolEfNowrWLUcbKWbRdQZFuE3lW1TLNumhHXthVzfQWlErkf/+KakPLi6Hyk9vusQwDab9Edmzuev+73GdSniVb/9QNfr19y9h8jDKb4ZT37S9tjkQhyk41I46d3XstQXLiEEgglEEoglEAogVACoQRCCYQSCCUQSiCUQCiBUAKhBEIJhBIIJRBKIJRAKIFQAqEEQgmEEgglEEoglEAogVACoQRCCYQSCCUQSiCUwDNUAv8fK9mWxK0ZiGoAAAAASUVORK5CYII=;" parent="1" vertex="1">
          <mxGeometry x="-570" y="360" width="120" height="72.92" as="geometry" />
        </mxCell>
        <mxCell id="PDv1FXCA-drPs_k4_aMJ-14" value="" style="shape=image;verticalLabelPosition=bottom;labelBackgroundColor=default;verticalAlign=top;aspect=fixed;imageAspect=0;image=data:image/jpeg,/9j/4AAQSkZJRgABAQAAAQABAAD/2wCEAAkGBxQUExMTEBQWEBMWFhYWFxMWExYXFhYWFhMYFxgTFhcZHikiGRsmHBYWIjIiJisuLzIvGCA1OjUtOSkuLywBCgoKDg0OGxAQHC4mISAuLi4uLi4uMC4uLi4uLi4uLi4wLjkuLi4uLi8uLi4uLi4uLi4uLiwwLi4uLC4uLi4uLv/AABEIAOEA4QMBIgACEQEDEQH/xAAcAAEAAgMBAQEAAAAAAAAAAAAABQYDBAcCAQj/xABCEAABAwIDBAYHBQcDBQEAAAABAAIDBBEFEiExQVFhBhMicYGRBzJCUqHB0RQjseHwM2JygpKi8SRDwlNjc5OyFf/EABoBAQADAQEBAAAAAAAAAAAAAAABAwQFAgb/xAAvEQACAQIDBgYBBAMAAAAAAAAAAQIDESExQQQSUWGx8BNxgZGh0TIiweHxFBVC/9oADAMBAAIRAxEAPwDs6IiAIiIAiIgCIiAIiIAiIgCIiAIiIAiIgCIiAIiIAiIgCIiAIiIAiIgCIiAIiIAiIgCIiAIiIAiIgCIiAIiIAiIgCIiAIiIAiIgCIiAIiIAiIgCIiAIiIAiIgCIiAIir3STplTUl2yP6yX/oR2c/lm3M/msgLCsFZWxxDNNIyJvF72tHmSuQYn08r6rMKZpp4wNRE0vkA4uktp4AKuVWGPIZLK8ySSAu7ZLnhodlDi5xvqQfJRvK9u8r9OJNna52Cs9IWHx6faOsPCNj3/EC3xWhN6RIpGn7IxziDYukGUDnlBufguWMw/kt6gh6t19x0Kkg6DQ9PeraTVtzNH+4wdrxZsPhZSNJ6RcPfp15jP8A3I3tHna3xXMsSZns3cNe8qNfh6A/QNDiMMwzQSxzDjG9r/Ox0WyvzfHh7s7erJY8kAOBykEmw7Q1CtNJ0zrqSR0TniuYwkEODi6zdtpB2hbW5dfYo3lfdvja/wA2Fna52dFWOjPTqmqiGB3UTH/ZkIBJ/cdsf3beSs6kBERAEREAREQBERAEREAREQBERAEREAUfjWLspmB8gLsxyhrbXJtfedi3pHhoLnENaASSTYAAXJJ3Bcg6SdMmVM9mNd1LOzG/3te1JlOwGwtyAQEl0w6czujDaUfZw45XSXzSWsTZptZvfqeFlz+noyTc3JJuSdSSdpJ3lT1RlezQ32FY4o9zRcqUiD5hsZY9uV5iuQC4G1hfUnipStxASl46przchjwCHAX0vbbx1X2kwonV2vIbPzUxTYcBuV3+tjOaqVMGvfPisflrliUPb3FOEMenfsVuOged1u8rMMKdxHkVbIqDkthtDyWrwaK/szeNVeXQphwl3EeX5rG/DpBuB8VefsHJYZKDkng0Xp8v+Qq1ZalDlhI9YEeHzW7W4gC57oWtaXtymQj7wgtAdrewvbcFZJsP5KIrMHG1vZPLZ5LNW2CM2msbXwfO3o8tTRT21xweHNevqs9ClVNDyV06FdNqiO8NR/qY2tGV7nWlbrbKXe2O/XTaoeopy02cPHce5fKOMNzHZe3wv9VTJNOzNCaaujr2CY/FUFwYHNc0AlrgNl7XFjr+alVxbC+lDKaojks9zQbPyj2HaOsDttttyXZKWpZIxskbg9jwHNcDcOB2ELySZUREAREQBERAEREAREQBERAERQXTXHvslNJKLdaexEDvkcDY23gC7j/CgKR6U+lBe80MB7DSOvcPadtEPcNC7nYbiqbRUy3sKhbGxsk8fXvnLnXeToy+r7++5xJvy5rdraZrXtbFezmtdld6zS4XynwsfFVwq70t1J45PCztg9ePFK+ml/coWjvN5Z8rmvBCXGzf8Kw4dhwHzPFMLoLAfEqx0lKuvTpqir6nKqVHWeGRhpqPkpKGkW3T063Y4VTOsWwpGkylWdtMt9sS9iJUOoy9UiN+zLG+lUv1S8OiUKoyXTIKWkWhU0asz4VqzQK6FZlM6RSq7DwQQRcKs1tGWHXVp2H5FdHqqZQOI0QIIIuCr5RjWjjnoymMpUny1Rz+sprqyejPpOaeUUkx+5ld92SdI5XbuTXH+4jiVH1NKWuyHfsJ0vc2CwSYE1zDneWSmQxsbbsh4FwHu9m50BXLrVI0fzw76c+30qcXUxjid2RVj0eY+amlAlP38J6qW+0keq89428w5WdeiAiIgCIiAIiIAiIgCIiALjnpUxUzVYgabx07bEbutfZzj4DIPNdeq6lsbHSPNmtBJ+g57l+eGSPklkkkBD3vc9wO0Oc4uI8LoCdwvEHsjyENkj3MeLgHiOCkMKiL3GR2pJP46lRMbNgG/RW3CqewAWnYqEIzlVSx/fv9uCM22VpOKp3777xJOgp9inKWBatFEpiJlh+t6sqzK6UDJFEtuONfImL3LIGtJOgCyN3NiSR5lkawXcbBakc75PUHVs94i5PcFGvqOskaZDZl9l9AP1vWOXpWxxLKSM1OXQyA5IWnh1hBzfygqxU5aL6RS6sdXbqycFGPac9/e4geQsF6FGzcCO5zvqq+cUqjreBnLq3yf3dY38FsQYxKPXbG8cW5mHyOa/mo8OZPiU+0TPUW2EnkdfjtXiSNeqWrbIOydd7TtCzOaq8Uy1WeRE1EKhq2nVkmYoyriWilPEz1YFExyiu022jUfMKInrGOhkDmuMr2taTcZeyezJxzAaK5YjCqRiEOV7m7to7j+im2UY1FGb0a+1flhiuS4EbJVlBuHH+n1+XxPfQTG3Q4i0yHs1P3UmwAvP7N/fm0/nK7WvzhXsIILLhwILSNocDcEc72X6DwauE8EUuwvY0uHuusMzDzBuFlSSVkar3zNxERSAiIgCIiAIiIAiIgKb6RJZAIW3tEcxI4vba1+Vjp4qhVEDT2jo7jx5Hir76V5SyiDm6O66MA8Lh1/guXULidXEk8SboCXw9l5G8tVc8Oj2KpYM3tnu+auuHN2Lo0cKPnc51Z3rexN0jFINbq0c/waT8lqUgW8Bqz+L/i5ZKjuzXTyMlQ/K0AbXFrR4nU+AufBaWOSaNYN+p8NnzW1WntQ/8Ak/GJ4HxIUfjoOZp/d+IP5heYLFE1H+lnNul+Mue50EZsxps8j23Da3+EHTmQvcvSvIxsdNE1jWgAF+uwe6D8SVXrE3J2nb3715c1d/8Ax4JKLWXzzZ83/lTcm08+nBEq7pbU3vmb3dWLfVb+HdONQKlgA9+O+nMsPyPgqq8LA8I9npvCxbDaJrU7FS1AcGyRuDgdWuadDzCseG1nWN10cNvPmFyHodXSQTNp5QWsmyloOwOeLscOTtnfbgV0ht4ZRfcdebTvXJ2ijuu3qjq7PVur+5OTNUdUtUpItCoCywZsnkV+vjVJ6QRWc094+f1V8rgqX0kboD+98itrxpPvUxRwqoh4IGg5tCePDuV19HksnWSsB+6yhxB3PJs0jvAd5LnFcSNQbHiNq6H6H5y+CoLzmcJg2+l8vVtIHmXea550C/IiIAiIgCIiAIiIAiIgKX6XGXoL8Joj5kt/5LmGGC9gNSdABvPBdd9JNN1mHVI91rZP/XI15+AKomBTTOhiEQ+76h4BDRZsrXOF7nebD+pUbRW8KO9Zerssr8Hw7dk7aVPxJW6K5jwbSQg6G34FXXDtypNKx0c+V/rb9b6kX2q44c/YuvQkp0E1j5e/7nLrJxrO5ZqVbjwS022jUd41t8FHUjlJwlZKmZqhijHXtMkRMWrtHsvsLmEOaCdwJFjyJWpJO2ogbLHuuSPaaRo9jhucCNRyWyH9U+x/ZvNwfdcdo7lFYlRywSOqaNvWtfrNTX9cgftI+D7bRv71MIrL2+uX35kTevvx8130x550jw0wylwH3byXNO4E6ln63KGcV0eXFKSdpGdrQdHwykRva7cLOte3I6KnY9h1PHcxTtJ3R6Od/U06BdmhtDwhNNPy7+uZ8/tGyJSdSDTXn393wIF6+QUxkeyNvrPcGjxO3w2+C+akgAEk6AAXJPAAbVeeifR4w/fTC0pFms9wHbf94/DxVtWqqcb66ChSc5W9z50upQ00cjPWZPHG3uJuB5sHmr/jsXZa7eDbwP8AhViWj6+rpY9rYnfaZeQbdsIPNz8x7mFWvGT92BvLgPxXGqSxguF/l9v1O3CP6JM2YnXY08Wg/Ba1Qtq1gBwAHkFo1DlnhmaJZETXKldJT2R/F8irhXvVLx05nxszBtySXHYNwJ+K2Se7Rk3wMccasUuJV686LoHoYZ/p6k8ai3lEz6qFnne2ZsToWugBy3dCbZGt7Tg7uBN+atXomgy0DXWt1ksr/AOyD/4XJo1/F00TWN8HfkscMc/M6dSnufKytkXJERXlYREQBERAEREAREQGCupRLHJE71ZGOYe5zS0/ivz1RSyR3he5wyOc1zMxyhzTZ2neF+jFxX0lYZ9nri8CzKgdaOGcdmQednfzphqDVifYgjcQVc8LnuAeOqolK+4VhwCr9g7RqO5a9lni4PXqZNphgpLTodAo5FKwvVZoZ1OU0qirDEmlMknxh7S12oP6utDPJDoRnj3Hh9FuRSLYa66zp2wZoaviiAxKioqjWeMF3vWc1/8AUzX4qAn6I0I9Rsju+Qhv1Kuk2HRu1tbuNvhsWL/8dnvO8x9FdCu4K0ZNLhdmedDed3GN+NkVegwqGH9lG1p97Uu/qNypRlM8i4ZmPstJsCeLney3idvAEqbhoI26htzxOq2gFE6zbueoUFH+CNwjDRC1xJzyyHPJJa2Z1gAAPZY0ANa3cBvNyfcvblA9mPU/xHYFszy20bq47BuHM8lijYGCw1O0neSdpKqvqy2yy0R9meo6qetieRRVZMracbsrqTI7EZdqoeKTZpHHcOyPD87qx49XZWm3rHRvfx8FTZ32Ct2iVkoLzKtnjdufp9mDEMYnDXMEr8pFst73Hujeu49HMP8As9NBBvjiY138WW7j4uJPiuNdCcM+010LSLxxnrpOFoyC0HvfkFuF13ZYYwjH8Ul5I2uTebCIi9EBERAEREAREQBERAFTvSTA10cBc0Os91rgG127r9yuKw1dIyVpZK0Padx/EcDzCA4tIGMF8rR3ADXgscEpBDm7R+rKT9I/R19MY5YyX05OU8Y3k6Bx3gjQHjpvF65RVFwpTtiiGr4Mv2FVwcAR5cDwVjpKlcyo6oxm41G8cfzVsw3EQ4Ag/lyK6EZKquZglB0nyLpBOtyOVVymq1IRVKzzpsvhVJlsq9iRRjKhZROqXAv30b+deHSrV69Y3TqFEbyNlz1rSzLDJULQnqlbGm2VSqJGWpqFB4jWAAkmwGpK+V9eACSbAb7qnYniJlNhowbuPM/RaG1SV2Z0nVlZGLEKsyOLjoBo0cBx7yvMOR4vYHcRYbVHVdRYKX9HuBSVU0jiSynZo91tXP0IYznbUncCOKxSk27s2qKirIt/o1p2tdUFrWtNowSGgb38FelrUFBHC0MiaGN+JPFx2krZXk9BERAEREAREQBERAEREAREQGGtpGSxvilaHxvBa5p2EFcO6U9G34fM3MDLTOd93JxF7mJ53Pt57RvA7utevoo5o3RTMEkbxZzSND9DzQHKIsk5LgGMhAzCRgDTGBa8Uo3u/wAi4WiZw15dCS1t9L6m3NZOlnQmejzyU5fPSnV1tXxgG4EgHrNHvAd9tqrtLXc1TQpOllJ2WXLnnm+KsuEVd3sq1FUWK8++Hdy8Yfjg0D+wePs+e7xU7BX7NVzuKcFbMcz2Hskt7jp5bF0Y7TpNXMEtm1g7HSI61bDa1c9ixuQbcrvMH4LZb0iO9n935L3v0nqeNyqtC8msWN9aqWekZ9w/1D6LBLj0h2Bre8k/RN+kteo3ar0LjNXKExDHWtuAc7uA+Z3KtTVcj9HPJvu2DyC1pn5dDovEtoX/ACvf6Pcdnv8Ak/Y3Z6syuHWuytvsAuB3DeV7hxOA3hla2OJ2jZPbYdznO3/rcq9U1ql+inQ+euIe68FPvmI1fyiB2/xbO/YsNan4uMm78b5PiufnfDDV32U5eH+KVu8O8eZq4BgEtdOYojaJp+8nynK1t9wPtkbG+ei7jhWGx08TIYW5I2CwG87y4neSdSea+YRhcVNE2GBgjjbu3k73OPtOPFbi9kBERAEREAREQBERAEREAREQBERAEREAVK6TejmnnLpID9kmOpLReJx4uj3d7beKuqIDiYwR1M4xy6yjafZsdhZxB4/4Udi8+RzeYPwP5rt+JYRDPl65mYtvY3IOu64OxR9X0NopG5XwNPA5nhw7nB1wgOMMr1kFaF0Sr9FNK7WKWeHlma8f3Nv8VHyeiT3awgc6cH8JAhBSzWheHV6uzPRIfarDblT2/GQrfpfRRTA3kmnl5XYwfBt/igOc0lXmlY3ifwF/kpqSkEtmWLiTYAetc7LLpmH9C6GEdinYT777vf4OcSR4LfpMEp43iSOJrXi9jrpfbYE2CElT6NejSCLLJVn7TJtEZFomHgWj1yOenJXwC2g0A3IiAIiIAiIgCIiAIiIAiIgCIiAIiIAiIgCIiAIiIAiIgCIiAIiIAiIgCIiAIiIAiIgCIiAIiIAiIgCIiAIiIAiIgCIiAIiIAiIgCIiAIiIAiIgCIiAIiIAiIgCIiAIiIAiIgCIiAIiIAiIgCIiAIiIAiIgCIiAIiIAiIgCIiAIiIAiIgCIiAIiIAiIgP//Z;" parent="1" vertex="1">
          <mxGeometry x="-510" y="240" width="70" height="70" as="geometry" />
        </mxCell>
        <mxCell id="PDv1FXCA-drPs_k4_aMJ-15" value="" style="shape=image;verticalLabelPosition=bottom;labelBackgroundColor=default;verticalAlign=top;aspect=fixed;imageAspect=0;image=data:image/jpeg,/9j/4AAQSkZJRgABAQAAAQABAAD/2wCEAAkGBxQUExMTEBQWEBMWFhYWFxMWExYXFhYWFhMYFxgTFhcZHikiGRsmHBYWIjIiJisuLzIvGCA1OjUtOSkuLywBCgoKDg0OGxAQHC4mISAuLi4uLi4uMC4uLi4uLi4uLi4wLjkuLi4uLi8uLi4uLi4uLi4uLiwwLi4uLC4uLi4uLv/AABEIAOEA4QMBIgACEQEDEQH/xAAcAAEAAgMBAQEAAAAAAAAAAAAABQYDBAcCAQj/xABCEAABAwIDBAYHBQcDBQEAAAABAAIDBBEFEiExQVFhBhMicYGRBzJCUqHB0RQjseHwM2JygpKi8SRDwlNjc5OyFf/EABoBAQADAQEBAAAAAAAAAAAAAAABAwQFAgb/xAAvEQACAQIDBgYBBAMAAAAAAAAAAQIDESExQQQSUWGx8BNxgZGh0TIiweHxFBVC/9oADAMBAAIRAxEAPwDs6IiAIiIAiIgCIiAIiIAiIgCIiAIiIAiIgCIiAIiIAiIgCIiAIiIAiIgCIiAIiIAiIgCIiAIiIAiIgCIiAIiIAiIgCIiAIiIAiIgCIiAIiIAiIgCIiAIiIAiIgCIiAIir3STplTUl2yP6yX/oR2c/lm3M/msgLCsFZWxxDNNIyJvF72tHmSuQYn08r6rMKZpp4wNRE0vkA4uktp4AKuVWGPIZLK8ySSAu7ZLnhodlDi5xvqQfJRvK9u8r9OJNna52Cs9IWHx6faOsPCNj3/EC3xWhN6RIpGn7IxziDYukGUDnlBufguWMw/kt6gh6t19x0Kkg6DQ9PeraTVtzNH+4wdrxZsPhZSNJ6RcPfp15jP8A3I3tHna3xXMsSZns3cNe8qNfh6A/QNDiMMwzQSxzDjG9r/Ox0WyvzfHh7s7erJY8kAOBykEmw7Q1CtNJ0zrqSR0TniuYwkEODi6zdtpB2hbW5dfYo3lfdvja/wA2Fna52dFWOjPTqmqiGB3UTH/ZkIBJ/cdsf3beSs6kBERAEREAREQBERAEREAREQBERAEREAUfjWLspmB8gLsxyhrbXJtfedi3pHhoLnENaASSTYAAXJJ3Bcg6SdMmVM9mNd1LOzG/3te1JlOwGwtyAQEl0w6czujDaUfZw45XSXzSWsTZptZvfqeFlz+noyTc3JJuSdSSdpJ3lT1RlezQ32FY4o9zRcqUiD5hsZY9uV5iuQC4G1hfUnipStxASl46przchjwCHAX0vbbx1X2kwonV2vIbPzUxTYcBuV3+tjOaqVMGvfPisflrliUPb3FOEMenfsVuOged1u8rMMKdxHkVbIqDkthtDyWrwaK/szeNVeXQphwl3EeX5rG/DpBuB8VefsHJYZKDkng0Xp8v+Qq1ZalDlhI9YEeHzW7W4gC57oWtaXtymQj7wgtAdrewvbcFZJsP5KIrMHG1vZPLZ5LNW2CM2msbXwfO3o8tTRT21xweHNevqs9ClVNDyV06FdNqiO8NR/qY2tGV7nWlbrbKXe2O/XTaoeopy02cPHce5fKOMNzHZe3wv9VTJNOzNCaaujr2CY/FUFwYHNc0AlrgNl7XFjr+alVxbC+lDKaojks9zQbPyj2HaOsDttttyXZKWpZIxskbg9jwHNcDcOB2ELySZUREAREQBERAEREAREQBERAERQXTXHvslNJKLdaexEDvkcDY23gC7j/CgKR6U+lBe80MB7DSOvcPadtEPcNC7nYbiqbRUy3sKhbGxsk8fXvnLnXeToy+r7++5xJvy5rdraZrXtbFezmtdld6zS4XynwsfFVwq70t1J45PCztg9ePFK+ml/coWjvN5Z8rmvBCXGzf8Kw4dhwHzPFMLoLAfEqx0lKuvTpqir6nKqVHWeGRhpqPkpKGkW3T063Y4VTOsWwpGkylWdtMt9sS9iJUOoy9UiN+zLG+lUv1S8OiUKoyXTIKWkWhU0asz4VqzQK6FZlM6RSq7DwQQRcKs1tGWHXVp2H5FdHqqZQOI0QIIIuCr5RjWjjnoymMpUny1Rz+sprqyejPpOaeUUkx+5ld92SdI5XbuTXH+4jiVH1NKWuyHfsJ0vc2CwSYE1zDneWSmQxsbbsh4FwHu9m50BXLrVI0fzw76c+30qcXUxjid2RVj0eY+amlAlP38J6qW+0keq89428w5WdeiAiIgCIiAIiIAiIgCIiALjnpUxUzVYgabx07bEbutfZzj4DIPNdeq6lsbHSPNmtBJ+g57l+eGSPklkkkBD3vc9wO0Oc4uI8LoCdwvEHsjyENkj3MeLgHiOCkMKiL3GR2pJP46lRMbNgG/RW3CqewAWnYqEIzlVSx/fv9uCM22VpOKp3777xJOgp9inKWBatFEpiJlh+t6sqzK6UDJFEtuONfImL3LIGtJOgCyN3NiSR5lkawXcbBakc75PUHVs94i5PcFGvqOskaZDZl9l9AP1vWOXpWxxLKSM1OXQyA5IWnh1hBzfygqxU5aL6RS6sdXbqycFGPac9/e4geQsF6FGzcCO5zvqq+cUqjreBnLq3yf3dY38FsQYxKPXbG8cW5mHyOa/mo8OZPiU+0TPUW2EnkdfjtXiSNeqWrbIOydd7TtCzOaq8Uy1WeRE1EKhq2nVkmYoyriWilPEz1YFExyiu022jUfMKInrGOhkDmuMr2taTcZeyezJxzAaK5YjCqRiEOV7m7to7j+im2UY1FGb0a+1flhiuS4EbJVlBuHH+n1+XxPfQTG3Q4i0yHs1P3UmwAvP7N/fm0/nK7WvzhXsIILLhwILSNocDcEc72X6DwauE8EUuwvY0uHuusMzDzBuFlSSVkar3zNxERSAiIgCIiAIiIAiIgKb6RJZAIW3tEcxI4vba1+Vjp4qhVEDT2jo7jx5Hir76V5SyiDm6O66MA8Lh1/guXULidXEk8SboCXw9l5G8tVc8Oj2KpYM3tnu+auuHN2Lo0cKPnc51Z3rexN0jFINbq0c/waT8lqUgW8Bqz+L/i5ZKjuzXTyMlQ/K0AbXFrR4nU+AufBaWOSaNYN+p8NnzW1WntQ/8Ak/GJ4HxIUfjoOZp/d+IP5heYLFE1H+lnNul+Mue50EZsxps8j23Da3+EHTmQvcvSvIxsdNE1jWgAF+uwe6D8SVXrE3J2nb3715c1d/8Ax4JKLWXzzZ83/lTcm08+nBEq7pbU3vmb3dWLfVb+HdONQKlgA9+O+nMsPyPgqq8LA8I9npvCxbDaJrU7FS1AcGyRuDgdWuadDzCseG1nWN10cNvPmFyHodXSQTNp5QWsmyloOwOeLscOTtnfbgV0ht4ZRfcdebTvXJ2ijuu3qjq7PVur+5OTNUdUtUpItCoCywZsnkV+vjVJ6QRWc094+f1V8rgqX0kboD+98itrxpPvUxRwqoh4IGg5tCePDuV19HksnWSsB+6yhxB3PJs0jvAd5LnFcSNQbHiNq6H6H5y+CoLzmcJg2+l8vVtIHmXea550C/IiIAiIgCIiAIiIAiIgKX6XGXoL8Joj5kt/5LmGGC9gNSdABvPBdd9JNN1mHVI91rZP/XI15+AKomBTTOhiEQ+76h4BDRZsrXOF7nebD+pUbRW8KO9Zerssr8Hw7dk7aVPxJW6K5jwbSQg6G34FXXDtypNKx0c+V/rb9b6kX2q44c/YuvQkp0E1j5e/7nLrJxrO5ZqVbjwS022jUd41t8FHUjlJwlZKmZqhijHXtMkRMWrtHsvsLmEOaCdwJFjyJWpJO2ogbLHuuSPaaRo9jhucCNRyWyH9U+x/ZvNwfdcdo7lFYlRywSOqaNvWtfrNTX9cgftI+D7bRv71MIrL2+uX35kTevvx8130x550jw0wylwH3byXNO4E6ln63KGcV0eXFKSdpGdrQdHwykRva7cLOte3I6KnY9h1PHcxTtJ3R6Od/U06BdmhtDwhNNPy7+uZ8/tGyJSdSDTXn393wIF6+QUxkeyNvrPcGjxO3w2+C+akgAEk6AAXJPAAbVeeifR4w/fTC0pFms9wHbf94/DxVtWqqcb66ChSc5W9z50upQ00cjPWZPHG3uJuB5sHmr/jsXZa7eDbwP8AhViWj6+rpY9rYnfaZeQbdsIPNz8x7mFWvGT92BvLgPxXGqSxguF/l9v1O3CP6JM2YnXY08Wg/Ba1Qtq1gBwAHkFo1DlnhmaJZETXKldJT2R/F8irhXvVLx05nxszBtySXHYNwJ+K2Se7Rk3wMccasUuJV686LoHoYZ/p6k8ai3lEz6qFnne2ZsToWugBy3dCbZGt7Tg7uBN+atXomgy0DXWt1ksr/AOyD/4XJo1/F00TWN8HfkscMc/M6dSnufKytkXJERXlYREQBERAEREAREQGCupRLHJE71ZGOYe5zS0/ivz1RSyR3he5wyOc1zMxyhzTZ2neF+jFxX0lYZ9nri8CzKgdaOGcdmQednfzphqDVifYgjcQVc8LnuAeOqolK+4VhwCr9g7RqO5a9lni4PXqZNphgpLTodAo5FKwvVZoZ1OU0qirDEmlMknxh7S12oP6utDPJDoRnj3Hh9FuRSLYa66zp2wZoaviiAxKioqjWeMF3vWc1/8AUzX4qAn6I0I9Rsju+Qhv1Kuk2HRu1tbuNvhsWL/8dnvO8x9FdCu4K0ZNLhdmedDed3GN+NkVegwqGH9lG1p97Uu/qNypRlM8i4ZmPstJsCeLney3idvAEqbhoI26htzxOq2gFE6zbueoUFH+CNwjDRC1xJzyyHPJJa2Z1gAAPZY0ANa3cBvNyfcvblA9mPU/xHYFszy20bq47BuHM8lijYGCw1O0neSdpKqvqy2yy0R9meo6qetieRRVZMracbsrqTI7EZdqoeKTZpHHcOyPD87qx49XZWm3rHRvfx8FTZ32Ct2iVkoLzKtnjdufp9mDEMYnDXMEr8pFst73Hujeu49HMP8As9NBBvjiY138WW7j4uJPiuNdCcM+010LSLxxnrpOFoyC0HvfkFuF13ZYYwjH8Ul5I2uTebCIi9EBERAEREAREQBERAFTvSTA10cBc0Os91rgG127r9yuKw1dIyVpZK0Padx/EcDzCA4tIGMF8rR3ADXgscEpBDm7R+rKT9I/R19MY5YyX05OU8Y3k6Bx3gjQHjpvF65RVFwpTtiiGr4Mv2FVwcAR5cDwVjpKlcyo6oxm41G8cfzVsw3EQ4Ag/lyK6EZKquZglB0nyLpBOtyOVVymq1IRVKzzpsvhVJlsq9iRRjKhZROqXAv30b+deHSrV69Y3TqFEbyNlz1rSzLDJULQnqlbGm2VSqJGWpqFB4jWAAkmwGpK+V9eACSbAb7qnYniJlNhowbuPM/RaG1SV2Z0nVlZGLEKsyOLjoBo0cBx7yvMOR4vYHcRYbVHVdRYKX9HuBSVU0jiSynZo91tXP0IYznbUncCOKxSk27s2qKirIt/o1p2tdUFrWtNowSGgb38FelrUFBHC0MiaGN+JPFx2krZXk9BERAEREAREQBERAEREAREQGGtpGSxvilaHxvBa5p2EFcO6U9G34fM3MDLTOd93JxF7mJ53Pt57RvA7utevoo5o3RTMEkbxZzSND9DzQHKIsk5LgGMhAzCRgDTGBa8Uo3u/wAi4WiZw15dCS1t9L6m3NZOlnQmejzyU5fPSnV1tXxgG4EgHrNHvAd9tqrtLXc1TQpOllJ2WXLnnm+KsuEVd3sq1FUWK8++Hdy8Yfjg0D+wePs+e7xU7BX7NVzuKcFbMcz2Hskt7jp5bF0Y7TpNXMEtm1g7HSI61bDa1c9ixuQbcrvMH4LZb0iO9n935L3v0nqeNyqtC8msWN9aqWekZ9w/1D6LBLj0h2Bre8k/RN+kteo3ar0LjNXKExDHWtuAc7uA+Z3KtTVcj9HPJvu2DyC1pn5dDovEtoX/ACvf6Pcdnv8Ak/Y3Z6syuHWuytvsAuB3DeV7hxOA3hla2OJ2jZPbYdznO3/rcq9U1ql+inQ+euIe68FPvmI1fyiB2/xbO/YsNan4uMm78b5PiufnfDDV32U5eH+KVu8O8eZq4BgEtdOYojaJp+8nynK1t9wPtkbG+ei7jhWGx08TIYW5I2CwG87y4neSdSea+YRhcVNE2GBgjjbu3k73OPtOPFbi9kBERAEREAREQBERAEREAREQBERAEREAVK6TejmnnLpID9kmOpLReJx4uj3d7beKuqIDiYwR1M4xy6yjafZsdhZxB4/4Udi8+RzeYPwP5rt+JYRDPl65mYtvY3IOu64OxR9X0NopG5XwNPA5nhw7nB1wgOMMr1kFaF0Sr9FNK7WKWeHlma8f3Nv8VHyeiT3awgc6cH8JAhBSzWheHV6uzPRIfarDblT2/GQrfpfRRTA3kmnl5XYwfBt/igOc0lXmlY3ifwF/kpqSkEtmWLiTYAetc7LLpmH9C6GEdinYT777vf4OcSR4LfpMEp43iSOJrXi9jrpfbYE2CElT6NejSCLLJVn7TJtEZFomHgWj1yOenJXwC2g0A3IiAIiIAiIgCIiAIiIAiIgCIiAIiIAiIgCIiAIiIAiIgCIiAIiIAiIgCIiAIiIAiIgCIiAIiIAiIgCIiAIiIAiIgCIiAIiIAiIgCIiAIiIAiIgCIiAIiIAiIgCIiAIiIAiIgCIiAIiIAiIgCIiAIiIAiIgCIiAIiIAiIgCIiAIiIAiIgCIiAIiIAiIgP//Z;" parent="1" vertex="1">
          <mxGeometry x="-400" y="240" width="70" height="70" as="geometry" />
        </mxCell>
        <mxCell id="PDv1FXCA-drPs_k4_aMJ-16" value="" style="shape=image;verticalLabelPosition=bottom;verticalAlign=top;imageAspect=0;aspect=fixed;image=data:image/png,iVBORw0KGgoAAAANSUhEUgAAAEgAAABICAMAAAEVNHPjAAAAAXNSR0IArs4c6QAAAARnQU1BAACxjwv8YQUAAAB1UExURQAAACIiIiEhISIiIiIiIiMjIyEhISIiIiIiIiIiIiMjIyMjIyIiIi8vLyIiIiQkJCQkJCMjIyEhISIiIiMjIyIiIiIiIiUlJSwsLCMjIyUlJSIiIj8/PyIiIiIiIiIiIiIiIiIiIiMjIyIiIiIiIiIiIiUlJRuaPS0AAAAndFJOUwDAh9vQVkvz++hmQJwQdmMqc5b9g0q5LxeAN5sI99E8/+xXZ5XmG08AQZMAAAAJcEhZcwAAFiUAABYlAUlSJPAAAAHwSURBVEhL7ZaJVsMgEEWpJlr3rUqJGnFp//8TnRkeCUxqamNrXXrPCQyPlyElBGo01rhOZErUOrKWiodzLhm5w/Fd1o2CJDhTUFllkfFcmLPF0dRzTvuU3euOqDzl9CeOoJqYIuSr8AFyi1TX9SN7KNN+XfPdcQih5CGJz0iuqqp9aRt7UVX3LNFVHAsTjPg5+InhjiGPhzFjKBdQchJ6+o1RakIITAw3KlnrZSUkoaf5gi+G8UpCucIUNk2aEK7zcBgO0ycT2GChQY1DFMokizT2tqacD0yhDnQyRaQJ1DMxuSFSeqzQwK80/erX8o3I5sAcQBCgOXclTTyf99fSBNC8n4VmqIw2oR5iUkAdYvr6M41p5+PNT5mgwhRRJoBxCP+KICMOCXamH2eyhJ9QMYcgiEpHkr2UJt72kq/lmU4sPrSUCSpMWDH9K3MlkwKqMo3CcRkYNNxh2D60CSpMEWUCGOdP054IDdlkpLTnREM7RZToZpYwXpLoGT7mUCXKJp5Ovd5E4YALZPduMlEvqyTKFnrKZMVE258jTW8iRZvo9i1A4gjhC7o6zGG4I/NpCPfQ1UJ9CzfVRZRkzv7lpewSCbtEy/lvidb29a8z0do2to0l6mUribY/R5phr/8K/ywSuicDuIQhoUDXj8KYd+hCplNaH1dSAAAAAElFTkSuQmCC" parent="1" vertex="1">
          <mxGeometry x="-445" y="150" width="50" height="50" as="geometry" />
        </mxCell>
        <mxCell id="PDv1FXCA-drPs_k4_aMJ-17" value="" style="endArrow=classic;html=1;rounded=0;" parent="1" source="PDv1FXCA-drPs_k4_aMJ-16" target="PDv1FXCA-drPs_k4_aMJ-15" edge="1">
          <mxGeometry width="50" height="50" relative="1" as="geometry">
            <mxPoint x="-250" y="340" as="sourcePoint" />
            <mxPoint x="-200" y="290" as="targetPoint" />
          </mxGeometry>
        </mxCell>
        <mxCell id="PDv1FXCA-drPs_k4_aMJ-18" value="" style="endArrow=classic;html=1;rounded=0;" parent="1" source="PDv1FXCA-drPs_k4_aMJ-16" target="PDv1FXCA-drPs_k4_aMJ-14" edge="1">
          <mxGeometry width="50" height="50" relative="1" as="geometry">
            <mxPoint x="-250" y="340" as="sourcePoint" />
            <mxPoint x="-200" y="290" as="targetPoint" />
            <Array as="points" />
          </mxGeometry>
        </mxCell>
        <mxCell id="PDv1FXCA-drPs_k4_aMJ-21" value="" style="endArrow=classic;html=1;rounded=0;" parent="1" source="PDv1FXCA-drPs_k4_aMJ-15" target="PDv1FXCA-drPs_k4_aMJ-11" edge="1">
          <mxGeometry width="50" height="50" relative="1" as="geometry">
            <mxPoint x="-330" y="350" as="sourcePoint" />
            <mxPoint x="-280" y="300" as="targetPoint" />
          </mxGeometry>
        </mxCell>
        <mxCell id="PDv1FXCA-drPs_k4_aMJ-22" value="" style="endArrow=classic;html=1;rounded=0;" parent="1" source="PDv1FXCA-drPs_k4_aMJ-14" target="PDv1FXCA-drPs_k4_aMJ-12" edge="1">
          <mxGeometry width="50" height="50" relative="1" as="geometry">
            <mxPoint x="-469.99633953564967" y="320" as="sourcePoint" />
            <mxPoint x="-435.005396015149" y="370" as="targetPoint" />
          </mxGeometry>
        </mxCell>
        <mxCell id="PDv1FXCA-drPs_k4_aMJ-23" value="" style="endArrow=classic;html=1;rounded=0;fillColor=#f8cecc;strokeColor=#B85450;" parent="1" source="PDv1FXCA-drPs_k4_aMJ-14" target="PDv1FXCA-drPs_k4_aMJ-13" edge="1">
          <mxGeometry width="50" height="50" relative="1" as="geometry">
            <mxPoint x="-605" y="340" as="sourcePoint" />
            <mxPoint x="-555" y="290" as="targetPoint" />
          </mxGeometry>
        </mxCell>
        <mxCell id="PDv1FXCA-drPs_k4_aMJ-24" value="" style="endArrow=classic;html=1;rounded=0;" parent="1" source="PDv1FXCA-drPs_k4_aMJ-14" target="PDv1FXCA-drPs_k4_aMJ-11" edge="1">
          <mxGeometry width="50" height="50" relative="1" as="geometry">
            <mxPoint x="-250" y="340" as="sourcePoint" />
            <mxPoint x="-200" y="290" as="targetPoint" />
          </mxGeometry>
        </mxCell>
        <mxCell id="PDv1FXCA-drPs_k4_aMJ-25" value="" style="endArrow=classic;html=1;rounded=0;" parent="1" source="PDv1FXCA-drPs_k4_aMJ-15" target="PDv1FXCA-drPs_k4_aMJ-12" edge="1">
          <mxGeometry width="50" height="50" relative="1" as="geometry">
            <mxPoint x="-250" y="340" as="sourcePoint" />
            <mxPoint x="-200" y="290" as="targetPoint" />
          </mxGeometry>
        </mxCell>
        <mxCell id="PDv1FXCA-drPs_k4_aMJ-26" value="" style="endArrow=classic;html=1;rounded=0;fillColor=#f8cecc;strokeColor=#B85450;" parent="1" source="PDv1FXCA-drPs_k4_aMJ-15" target="PDv1FXCA-drPs_k4_aMJ-13" edge="1">
          <mxGeometry width="50" height="50" relative="1" as="geometry">
            <mxPoint x="-250" y="340" as="sourcePoint" />
            <mxPoint x="-200" y="290" as="targetPoint" />
          </mxGeometry>
        </mxCell>
        <mxCell id="PDv1FXCA-drPs_k4_aMJ-27" value="&lt;b&gt;Master&lt;/b&gt;" style="rounded=0;whiteSpace=wrap;html=1;strokeColor=none;" parent="1" vertex="1">
          <mxGeometry x="-535" y="432.91999999999996" width="50" height="20" as="geometry" />
        </mxCell>
        <mxCell id="PDv1FXCA-drPs_k4_aMJ-28" value="&lt;b&gt;Slave&lt;/b&gt;" style="rounded=0;whiteSpace=wrap;html=1;strokeColor=none;" parent="1" vertex="1">
          <mxGeometry x="-445" y="432.91999999999996" width="50" height="20" as="geometry" />
        </mxCell>
        <mxCell id="PDv1FXCA-drPs_k4_aMJ-29" value="&lt;b&gt;Slave&lt;/b&gt;" style="rounded=0;whiteSpace=wrap;html=1;strokeColor=none;" parent="1" vertex="1">
          <mxGeometry x="-352" y="432.91999999999996" width="50" height="20" as="geometry" />
        </mxCell>
        <mxCell id="PDv1FXCA-drPs_k4_aMJ-31" value="" style="endArrow=classic;html=1;rounded=0;strokeColor=#B85450;" parent="1" edge="1">
          <mxGeometry width="50" height="50" relative="1" as="geometry">
            <mxPoint x="-250" y="380" as="sourcePoint" />
            <mxPoint x="-200" y="380" as="targetPoint" />
          </mxGeometry>
        </mxCell>
        <mxCell id="PDv1FXCA-drPs_k4_aMJ-32" value="" style="endArrow=classic;html=1;rounded=0;strokeColor=#000000;" parent="1" edge="1">
          <mxGeometry width="50" height="50" relative="1" as="geometry">
            <mxPoint x="-249" y="410" as="sourcePoint" />
            <mxPoint x="-199" y="410" as="targetPoint" />
          </mxGeometry>
        </mxCell>
        <mxCell id="PDv1FXCA-drPs_k4_aMJ-33" value="Read/Write" style="rounded=0;whiteSpace=wrap;html=1;fontStyle=1;strokeColor=none;" parent="1" vertex="1">
          <mxGeometry x="-190" y="370" width="70" height="20" as="geometry" />
        </mxCell>
        <mxCell id="PDv1FXCA-drPs_k4_aMJ-37" value="Read" style="rounded=0;whiteSpace=wrap;html=1;fontStyle=1;strokeColor=none;" parent="1" vertex="1">
          <mxGeometry x="-190" y="400" width="70" height="20" as="geometry" />
        </mxCell>
      </root>
    </mxGraphModel>
  </diagram>
</mxfile>
